%TF.GenerationSoftware,KiCad,Pcbnew,(6.0.1)*%
%TF.CreationDate,2022-01-31T22:44:09+01:00*%
%TF.ProjectId,TRX_Board,5452585f-426f-4617-9264-2e6b69636164,V 1.0a*%
%TF.SameCoordinates,Original*%
%TF.FileFunction,Legend,Bot*%
%TF.FilePolarity,Positive*%
%FSLAX46Y46*%
G04 Gerber Fmt 4.6, Leading zero omitted, Abs format (unit mm)*
G04 Created by KiCad (PCBNEW (6.0.1)) date 2022-01-31 22:44:09*
%MOMM*%
%LPD*%
G01*
G04 APERTURE LIST*
%ADD10C,0.152400*%
%ADD11C,0.150000*%
%ADD12C,0.120000*%
G04 APERTURE END LIST*
D10*
X129778276Y-66522600D02*
X129855685Y-66483895D01*
X129971800Y-66483895D01*
X130087914Y-66522600D01*
X130165323Y-66600009D01*
X130204028Y-66677419D01*
X130242733Y-66832238D01*
X130242733Y-66948352D01*
X130204028Y-67103171D01*
X130165323Y-67180580D01*
X130087914Y-67257990D01*
X129971800Y-67296695D01*
X129894390Y-67296695D01*
X129778276Y-67257990D01*
X129739571Y-67219285D01*
X129739571Y-66948352D01*
X129894390Y-66948352D01*
X129391228Y-67296695D02*
X129391228Y-66483895D01*
X128926771Y-67296695D01*
X128926771Y-66483895D01*
X128539723Y-67296695D02*
X128539723Y-66483895D01*
X128346200Y-66483895D01*
X128230085Y-66522600D01*
X128152676Y-66600009D01*
X128113971Y-66677419D01*
X128075266Y-66832238D01*
X128075266Y-66948352D01*
X128113971Y-67103171D01*
X128152676Y-67180580D01*
X128230085Y-67257990D01*
X128346200Y-67296695D01*
X128539723Y-67296695D01*
X115683695Y-86610371D02*
X114870895Y-86610371D01*
X115683695Y-87074828D01*
X114870895Y-87074828D01*
X115606285Y-87926333D02*
X115644990Y-87887628D01*
X115683695Y-87771514D01*
X115683695Y-87694104D01*
X115644990Y-87577990D01*
X115567580Y-87500580D01*
X115490171Y-87461876D01*
X115335352Y-87423171D01*
X115219238Y-87423171D01*
X115064419Y-87461876D01*
X114987009Y-87500580D01*
X114909600Y-87577990D01*
X114870895Y-87694104D01*
X114870895Y-87771514D01*
X114909600Y-87887628D01*
X114948304Y-87926333D01*
X115324466Y-68159085D02*
X115324466Y-68546133D01*
X115556695Y-68081676D02*
X114743895Y-68352609D01*
X115556695Y-68623542D01*
X115556695Y-68894476D02*
X114743895Y-68894476D01*
X115556695Y-69358933D01*
X114743895Y-69358933D01*
X114743895Y-69629866D02*
X114743895Y-70094323D01*
X115556695Y-69862095D02*
X114743895Y-69862095D01*
X115810695Y-99840142D02*
X114997895Y-99840142D01*
X115578466Y-100111076D01*
X114997895Y-100382009D01*
X115810695Y-100382009D01*
X115810695Y-100769057D02*
X114997895Y-100769057D01*
X115733285Y-101620561D02*
X115771990Y-101581857D01*
X115810695Y-101465742D01*
X115810695Y-101388333D01*
X115771990Y-101272219D01*
X115694580Y-101194809D01*
X115617171Y-101156104D01*
X115462352Y-101117400D01*
X115346238Y-101117400D01*
X115191419Y-101156104D01*
X115114009Y-101194809D01*
X115036600Y-101272219D01*
X114997895Y-101388333D01*
X114997895Y-101465742D01*
X115036600Y-101581857D01*
X115075304Y-101620561D01*
X125333276Y-66522600D02*
X125410685Y-66483895D01*
X125526800Y-66483895D01*
X125642914Y-66522600D01*
X125720323Y-66600009D01*
X125759028Y-66677419D01*
X125797733Y-66832238D01*
X125797733Y-66948352D01*
X125759028Y-67103171D01*
X125720323Y-67180580D01*
X125642914Y-67257990D01*
X125526800Y-67296695D01*
X125449390Y-67296695D01*
X125333276Y-67257990D01*
X125294571Y-67219285D01*
X125294571Y-66948352D01*
X125449390Y-66948352D01*
X124946228Y-67296695D02*
X124946228Y-66483895D01*
X124481771Y-67296695D01*
X124481771Y-66483895D01*
X124094723Y-67296695D02*
X124094723Y-66483895D01*
X123901200Y-66483895D01*
X123785085Y-66522600D01*
X123707676Y-66600009D01*
X123668971Y-66677419D01*
X123630266Y-66832238D01*
X123630266Y-66948352D01*
X123668971Y-67103171D01*
X123707676Y-67180580D01*
X123785085Y-67257990D01*
X123901200Y-67296695D01*
X124094723Y-67296695D01*
X139051695Y-81971847D02*
X138238895Y-81971847D01*
X138238895Y-82281485D01*
X138277600Y-82358895D01*
X138316304Y-82397600D01*
X138393714Y-82436304D01*
X138509828Y-82436304D01*
X138587238Y-82397600D01*
X138625942Y-82358895D01*
X138664647Y-82281485D01*
X138664647Y-81971847D01*
X138238895Y-82668533D02*
X138238895Y-83132990D01*
X139051695Y-82900761D02*
X138238895Y-82900761D01*
X138238895Y-83287809D02*
X138238895Y-83752266D01*
X139051695Y-83520038D02*
X138238895Y-83520038D01*
X134864323Y-66483895D02*
X134361161Y-66483895D01*
X134632095Y-66793533D01*
X134515980Y-66793533D01*
X134438571Y-66832238D01*
X134399866Y-66870942D01*
X134361161Y-66948352D01*
X134361161Y-67141876D01*
X134399866Y-67219285D01*
X134438571Y-67257990D01*
X134515980Y-67296695D01*
X134748209Y-67296695D01*
X134825619Y-67257990D01*
X134864323Y-67219285D01*
X134128933Y-66483895D02*
X133858000Y-67296695D01*
X133587066Y-66483895D01*
X133393542Y-66483895D02*
X132890380Y-66483895D01*
X133161314Y-66793533D01*
X133045200Y-66793533D01*
X132967790Y-66832238D01*
X132929085Y-66870942D01*
X132890380Y-66948352D01*
X132890380Y-67141876D01*
X132929085Y-67219285D01*
X132967790Y-67257990D01*
X133045200Y-67296695D01*
X133277428Y-67296695D01*
X133354838Y-67257990D01*
X133393542Y-67219285D01*
X139051695Y-73352780D02*
X138238895Y-73352780D01*
X138625942Y-73352780D02*
X138625942Y-73817238D01*
X139051695Y-73817238D02*
X138238895Y-73817238D01*
X139051695Y-74591333D02*
X139051695Y-74204285D01*
X138238895Y-74204285D01*
X138885990Y-100053019D02*
X138924695Y-100169133D01*
X138924695Y-100362657D01*
X138885990Y-100440066D01*
X138847285Y-100478771D01*
X138769876Y-100517476D01*
X138692466Y-100517476D01*
X138615057Y-100478771D01*
X138576352Y-100440066D01*
X138537647Y-100362657D01*
X138498942Y-100207838D01*
X138460238Y-100130428D01*
X138421533Y-100091723D01*
X138344123Y-100053019D01*
X138266714Y-100053019D01*
X138189304Y-100091723D01*
X138150600Y-100130428D01*
X138111895Y-100207838D01*
X138111895Y-100401361D01*
X138150600Y-100517476D01*
X139002104Y-101407685D02*
X138963400Y-101330276D01*
X138885990Y-101252866D01*
X138769876Y-101136752D01*
X138731171Y-101059342D01*
X138731171Y-100981933D01*
X138924695Y-101020638D02*
X138885990Y-100943228D01*
X138808580Y-100865819D01*
X138653761Y-100827114D01*
X138382828Y-100827114D01*
X138228009Y-100865819D01*
X138150600Y-100943228D01*
X138111895Y-101020638D01*
X138111895Y-101175457D01*
X138150600Y-101252866D01*
X138228009Y-101330276D01*
X138382828Y-101368980D01*
X138653761Y-101368980D01*
X138808580Y-101330276D01*
X138885990Y-101252866D01*
X138924695Y-101175457D01*
X138924695Y-101020638D01*
X114870895Y-95113323D02*
X114870895Y-95577780D01*
X115683695Y-95345552D02*
X114870895Y-95345552D01*
X114870895Y-95771304D02*
X115683695Y-96313171D01*
X114870895Y-96313171D02*
X115683695Y-95771304D01*
X115683695Y-96622809D02*
X114870895Y-96622809D01*
X114870895Y-96816333D01*
X114909600Y-96932447D01*
X114987009Y-97009857D01*
X115064419Y-97048561D01*
X115219238Y-97087266D01*
X115335352Y-97087266D01*
X115490171Y-97048561D01*
X115567580Y-97009857D01*
X115644990Y-96932447D01*
X115683695Y-96816333D01*
X115683695Y-96622809D01*
X138924695Y-95500371D02*
X138111895Y-95500371D01*
X138924695Y-95964828D01*
X138111895Y-95964828D01*
X138847285Y-96816333D02*
X138885990Y-96777628D01*
X138924695Y-96661514D01*
X138924695Y-96584104D01*
X138885990Y-96467990D01*
X138808580Y-96390580D01*
X138731171Y-96351876D01*
X138576352Y-96313171D01*
X138460238Y-96313171D01*
X138305419Y-96351876D01*
X138228009Y-96390580D01*
X138150600Y-96467990D01*
X138111895Y-96584104D01*
X138111895Y-96661514D01*
X138150600Y-96777628D01*
X138189304Y-96816333D01*
X115683695Y-91152133D02*
X115296647Y-90881200D01*
X115683695Y-90687676D02*
X114870895Y-90687676D01*
X114870895Y-90997314D01*
X114909600Y-91074723D01*
X114948304Y-91113428D01*
X115025714Y-91152133D01*
X115141828Y-91152133D01*
X115219238Y-91113428D01*
X115257942Y-91074723D01*
X115296647Y-90997314D01*
X115296647Y-90687676D01*
X114870895Y-91423066D02*
X115683695Y-91964933D01*
X114870895Y-91964933D02*
X115683695Y-91423066D01*
X115683695Y-92274571D02*
X114870895Y-92274571D01*
X114870895Y-92468095D01*
X114909600Y-92584209D01*
X114987009Y-92661619D01*
X115064419Y-92700323D01*
X115219238Y-92739028D01*
X115335352Y-92739028D01*
X115490171Y-92700323D01*
X115567580Y-92661619D01*
X115644990Y-92584209D01*
X115683695Y-92468095D01*
X115683695Y-92274571D01*
X139012990Y-77036990D02*
X139051695Y-77153104D01*
X139051695Y-77346628D01*
X139012990Y-77424038D01*
X138974285Y-77462742D01*
X138896876Y-77501447D01*
X138819466Y-77501447D01*
X138742057Y-77462742D01*
X138703352Y-77424038D01*
X138664647Y-77346628D01*
X138625942Y-77191809D01*
X138587238Y-77114400D01*
X138548533Y-77075695D01*
X138471123Y-77036990D01*
X138393714Y-77036990D01*
X138316304Y-77075695D01*
X138277600Y-77114400D01*
X138238895Y-77191809D01*
X138238895Y-77385333D01*
X138277600Y-77501447D01*
X139051695Y-78236838D02*
X139051695Y-77849790D01*
X138238895Y-77849790D01*
X138625942Y-78507771D02*
X138625942Y-78778704D01*
X139051695Y-78894819D02*
X139051695Y-78507771D01*
X138238895Y-78507771D01*
X138238895Y-78894819D01*
X138625942Y-79243161D02*
X138625942Y-79514095D01*
X139051695Y-79630209D02*
X139051695Y-79243161D01*
X138238895Y-79243161D01*
X138238895Y-79630209D01*
X139051695Y-79978552D02*
X138238895Y-79978552D01*
X138238895Y-80288190D01*
X138277600Y-80365600D01*
X138316304Y-80404304D01*
X138393714Y-80443009D01*
X138509828Y-80443009D01*
X138587238Y-80404304D01*
X138625942Y-80365600D01*
X138664647Y-80288190D01*
X138664647Y-79978552D01*
X115683695Y-73817238D02*
X115296647Y-73546304D01*
X115683695Y-73352780D02*
X114870895Y-73352780D01*
X114870895Y-73662419D01*
X114909600Y-73739828D01*
X114948304Y-73778533D01*
X115025714Y-73817238D01*
X115141828Y-73817238D01*
X115219238Y-73778533D01*
X115257942Y-73739828D01*
X115296647Y-73662419D01*
X115296647Y-73352780D01*
X115257942Y-74436514D02*
X115257942Y-74165580D01*
X115683695Y-74165580D02*
X114870895Y-74165580D01*
X114870895Y-74552628D01*
X139051695Y-86610371D02*
X138238895Y-86610371D01*
X139051695Y-87074828D01*
X138238895Y-87074828D01*
X138974285Y-87926333D02*
X139012990Y-87887628D01*
X139051695Y-87771514D01*
X139051695Y-87694104D01*
X139012990Y-87577990D01*
X138935580Y-87500580D01*
X138858171Y-87461876D01*
X138703352Y-87423171D01*
X138587238Y-87423171D01*
X138432419Y-87461876D01*
X138355009Y-87500580D01*
X138277600Y-87577990D01*
X138238895Y-87694104D01*
X138238895Y-87771514D01*
X138277600Y-87887628D01*
X138316304Y-87926333D01*
X115683695Y-77720371D02*
X114870895Y-77720371D01*
X115683695Y-78184828D01*
X114870895Y-78184828D01*
X115606285Y-79036333D02*
X115644990Y-78997628D01*
X115683695Y-78881514D01*
X115683695Y-78804104D01*
X115644990Y-78687990D01*
X115567580Y-78610580D01*
X115490171Y-78571876D01*
X115335352Y-78533171D01*
X115219238Y-78533171D01*
X115064419Y-78571876D01*
X114987009Y-78610580D01*
X114909600Y-78687990D01*
X114870895Y-78804104D01*
X114870895Y-78881514D01*
X114909600Y-78997628D01*
X114948304Y-79036333D01*
X138885990Y-90369571D02*
X138924695Y-90485685D01*
X138924695Y-90679209D01*
X138885990Y-90756619D01*
X138847285Y-90795323D01*
X138769876Y-90834028D01*
X138692466Y-90834028D01*
X138615057Y-90795323D01*
X138576352Y-90756619D01*
X138537647Y-90679209D01*
X138498942Y-90524390D01*
X138460238Y-90446980D01*
X138421533Y-90408276D01*
X138344123Y-90369571D01*
X138266714Y-90369571D01*
X138189304Y-90408276D01*
X138150600Y-90446980D01*
X138111895Y-90524390D01*
X138111895Y-90717914D01*
X138150600Y-90834028D01*
X138924695Y-91182371D02*
X138111895Y-91182371D01*
X138111895Y-91492009D01*
X138150600Y-91569419D01*
X138189304Y-91608123D01*
X138266714Y-91646828D01*
X138382828Y-91646828D01*
X138460238Y-91608123D01*
X138498942Y-91569419D01*
X138537647Y-91492009D01*
X138537647Y-91182371D01*
X138924695Y-91995171D02*
X138111895Y-91995171D01*
X138924695Y-92459628D02*
X138460238Y-92111285D01*
X138111895Y-92459628D02*
X138576352Y-91995171D01*
X138924695Y-93272428D02*
X138537647Y-93001495D01*
X138924695Y-92807971D02*
X138111895Y-92807971D01*
X138111895Y-93117609D01*
X138150600Y-93195019D01*
X138189304Y-93233723D01*
X138266714Y-93272428D01*
X138382828Y-93272428D01*
X138460238Y-93233723D01*
X138498942Y-93195019D01*
X138537647Y-93117609D01*
X138537647Y-92807971D01*
X115683695Y-82165371D02*
X114870895Y-82165371D01*
X115683695Y-82629828D01*
X114870895Y-82629828D01*
X115606285Y-83481333D02*
X115644990Y-83442628D01*
X115683695Y-83326514D01*
X115683695Y-83249104D01*
X115644990Y-83132990D01*
X115567580Y-83055580D01*
X115490171Y-83016876D01*
X115335352Y-82978171D01*
X115219238Y-82978171D01*
X115064419Y-83016876D01*
X114987009Y-83055580D01*
X114909600Y-83132990D01*
X114870895Y-83249104D01*
X114870895Y-83326514D01*
X114909600Y-83442628D01*
X114948304Y-83481333D01*
D11*
%TO.C,FL1*%
X107497571Y-76350904D02*
X107497571Y-76017571D01*
X108021380Y-76017571D02*
X107021380Y-76017571D01*
X107021380Y-76493761D01*
X108021380Y-77350904D02*
X108021380Y-76874714D01*
X107021380Y-76874714D01*
X108021380Y-78208047D02*
X108021380Y-77636619D01*
X108021380Y-77922333D02*
X107021380Y-77922333D01*
X107164238Y-77827095D01*
X107259476Y-77731857D01*
X107307095Y-77636619D01*
D12*
X111146000Y-78025000D02*
X111146000Y-77685000D01*
X109326000Y-78025000D02*
X109326000Y-77685000D01*
X111146000Y-78025000D02*
X111396000Y-78025000D01*
X109326000Y-76545000D02*
X109326000Y-76205000D01*
X111146000Y-76545000D02*
X111146000Y-76205000D01*
X111396000Y-78025000D02*
X111396000Y-79255000D01*
%TD*%
M02*
