%TF.GenerationSoftware,KiCad,Pcbnew,(6.0.0)*%
%TF.CreationDate,2021-12-26T21:14:17+01:00*%
%TF.ProjectId,TRX_Board,5452585f-426f-4617-9264-2e6b69636164,V 1.0*%
%TF.SameCoordinates,Original*%
%TF.FileFunction,Legend,Top*%
%TF.FilePolarity,Positive*%
%FSLAX46Y46*%
G04 Gerber Fmt 4.6, Leading zero omitted, Abs format (unit mm)*
G04 Created by KiCad (PCBNEW (6.0.0)) date 2021-12-26 21:14:17*
%MOMM*%
%LPD*%
G01*
G04 APERTURE LIST*
%ADD10C,0.152400*%
%ADD11C,0.150000*%
%ADD12C,0.120000*%
G04 APERTURE END LIST*
D10*
X109307085Y-74430466D02*
X109694133Y-74430466D01*
X109229676Y-74662695D02*
X109500609Y-73849895D01*
X109771542Y-74662695D01*
X110042476Y-74662695D02*
X110042476Y-73849895D01*
X110506933Y-74662695D01*
X110506933Y-73849895D01*
X110777866Y-73849895D02*
X111242323Y-73849895D01*
X111010095Y-74662695D02*
X111010095Y-73849895D01*
X139107333Y-101509285D02*
X139068628Y-101547990D01*
X138952514Y-101625400D01*
X138875104Y-101664104D01*
X138758990Y-101702809D01*
X138565466Y-101741514D01*
X138410647Y-101741514D01*
X138217123Y-101702809D01*
X138101009Y-101664104D01*
X138023600Y-101625400D01*
X137907485Y-101547990D01*
X137868780Y-101509285D01*
X138758990Y-100851304D02*
X138797695Y-100928714D01*
X138797695Y-101083533D01*
X138758990Y-101160942D01*
X138720285Y-101199647D01*
X138642876Y-101238352D01*
X138410647Y-101238352D01*
X138333238Y-101199647D01*
X138294533Y-101160942D01*
X138255828Y-101083533D01*
X138255828Y-100928714D01*
X138294533Y-100851304D01*
X139107333Y-100580371D02*
X139068628Y-100541666D01*
X138952514Y-100464257D01*
X138875104Y-100425552D01*
X138758990Y-100386847D01*
X138565466Y-100348142D01*
X138410647Y-100348142D01*
X138217123Y-100386847D01*
X138101009Y-100425552D01*
X138023600Y-100464257D01*
X137907485Y-100541666D01*
X137868780Y-100580371D01*
X138062304Y-99380523D02*
X138023600Y-99341819D01*
X137984895Y-99264409D01*
X137984895Y-99070885D01*
X138023600Y-98993476D01*
X138062304Y-98954771D01*
X138139714Y-98916066D01*
X138217123Y-98916066D01*
X138333238Y-98954771D01*
X138797695Y-99419228D01*
X138797695Y-98916066D01*
X137984895Y-98412904D02*
X137984895Y-98335495D01*
X138023600Y-98258085D01*
X138062304Y-98219380D01*
X138139714Y-98180676D01*
X138294533Y-98141971D01*
X138488057Y-98141971D01*
X138642876Y-98180676D01*
X138720285Y-98219380D01*
X138758990Y-98258085D01*
X138797695Y-98335495D01*
X138797695Y-98412904D01*
X138758990Y-98490314D01*
X138720285Y-98529019D01*
X138642876Y-98567723D01*
X138488057Y-98606428D01*
X138294533Y-98606428D01*
X138139714Y-98567723D01*
X138062304Y-98529019D01*
X138023600Y-98490314D01*
X137984895Y-98412904D01*
X138062304Y-97832333D02*
X138023600Y-97793628D01*
X137984895Y-97716219D01*
X137984895Y-97522695D01*
X138023600Y-97445285D01*
X138062304Y-97406580D01*
X138139714Y-97367876D01*
X138217123Y-97367876D01*
X138333238Y-97406580D01*
X138797695Y-97871038D01*
X138797695Y-97367876D01*
X138062304Y-97058238D02*
X138023600Y-97019533D01*
X137984895Y-96942123D01*
X137984895Y-96748600D01*
X138023600Y-96671190D01*
X138062304Y-96632485D01*
X138139714Y-96593780D01*
X138217123Y-96593780D01*
X138333238Y-96632485D01*
X138797695Y-97096942D01*
X138797695Y-96593780D01*
X137984895Y-108794247D02*
X138797695Y-108523314D01*
X137984895Y-108252380D01*
X138797695Y-107555695D02*
X138797695Y-108020152D01*
X138797695Y-107787923D02*
X137984895Y-107787923D01*
X138101009Y-107865333D01*
X138178419Y-107942742D01*
X138217123Y-108020152D01*
X138720285Y-107207352D02*
X138758990Y-107168647D01*
X138797695Y-107207352D01*
X138758990Y-107246057D01*
X138720285Y-107207352D01*
X138797695Y-107207352D01*
X137984895Y-106665485D02*
X137984895Y-106588076D01*
X138023600Y-106510666D01*
X138062304Y-106471961D01*
X138139714Y-106433257D01*
X138294533Y-106394552D01*
X138488057Y-106394552D01*
X138642876Y-106433257D01*
X138720285Y-106471961D01*
X138758990Y-106510666D01*
X138797695Y-106588076D01*
X138797695Y-106665485D01*
X138758990Y-106742895D01*
X138720285Y-106781600D01*
X138642876Y-106820304D01*
X138488057Y-106859009D01*
X138294533Y-106859009D01*
X138139714Y-106820304D01*
X138062304Y-106781600D01*
X138023600Y-106742895D01*
X137984895Y-106665485D01*
X138797695Y-105697866D02*
X138371942Y-105697866D01*
X138294533Y-105736571D01*
X138255828Y-105813980D01*
X138255828Y-105968800D01*
X138294533Y-106046209D01*
X138758990Y-105697866D02*
X138797695Y-105775276D01*
X138797695Y-105968800D01*
X138758990Y-106046209D01*
X138681580Y-106084914D01*
X138604171Y-106084914D01*
X138526761Y-106046209D01*
X138488057Y-105968800D01*
X138488057Y-105775276D01*
X138449352Y-105697866D01*
X136206895Y-108770057D02*
X137019695Y-108499123D01*
X136206895Y-108228190D01*
X137019695Y-107957257D02*
X136206895Y-107957257D01*
X136593942Y-107957257D02*
X136593942Y-107492800D01*
X137019695Y-107492800D02*
X136206895Y-107492800D01*
X136593942Y-106834819D02*
X136593942Y-107105752D01*
X137019695Y-107105752D02*
X136206895Y-107105752D01*
X136206895Y-106718704D01*
X136168190Y-105828495D02*
X137213219Y-106525180D01*
X136206895Y-105557561D02*
X136864876Y-105557561D01*
X136942285Y-105518857D01*
X136980990Y-105480152D01*
X137019695Y-105402742D01*
X137019695Y-105247923D01*
X136980990Y-105170514D01*
X136942285Y-105131809D01*
X136864876Y-105093104D01*
X136206895Y-105093104D01*
X137019695Y-104706057D02*
X136206895Y-104706057D01*
X136593942Y-104706057D02*
X136593942Y-104241600D01*
X137019695Y-104241600D02*
X136206895Y-104241600D01*
X136593942Y-103583619D02*
X136593942Y-103854552D01*
X137019695Y-103854552D02*
X136206895Y-103854552D01*
X136206895Y-103467504D01*
X136206895Y-102654704D02*
X136206895Y-102190247D01*
X137019695Y-102422476D02*
X136206895Y-102422476D01*
X137019695Y-101454857D02*
X136632647Y-101725790D01*
X137019695Y-101919314D02*
X136206895Y-101919314D01*
X136206895Y-101609676D01*
X136245600Y-101532266D01*
X136284304Y-101493561D01*
X136361714Y-101454857D01*
X136477828Y-101454857D01*
X136555238Y-101493561D01*
X136593942Y-101532266D01*
X136632647Y-101609676D01*
X136632647Y-101919314D01*
X136206895Y-101183923D02*
X137019695Y-100642057D01*
X136206895Y-100642057D02*
X137019695Y-101183923D01*
X136593942Y-99442209D02*
X136632647Y-99326095D01*
X136671352Y-99287390D01*
X136748761Y-99248685D01*
X136864876Y-99248685D01*
X136942285Y-99287390D01*
X136980990Y-99326095D01*
X137019695Y-99403504D01*
X137019695Y-99713142D01*
X136206895Y-99713142D01*
X136206895Y-99442209D01*
X136245600Y-99364800D01*
X136284304Y-99326095D01*
X136361714Y-99287390D01*
X136439123Y-99287390D01*
X136516533Y-99326095D01*
X136555238Y-99364800D01*
X136593942Y-99442209D01*
X136593942Y-99713142D01*
X137019695Y-98784228D02*
X136980990Y-98861638D01*
X136942285Y-98900342D01*
X136864876Y-98939047D01*
X136632647Y-98939047D01*
X136555238Y-98900342D01*
X136516533Y-98861638D01*
X136477828Y-98784228D01*
X136477828Y-98668114D01*
X136516533Y-98590704D01*
X136555238Y-98552000D01*
X136632647Y-98513295D01*
X136864876Y-98513295D01*
X136942285Y-98552000D01*
X136980990Y-98590704D01*
X137019695Y-98668114D01*
X137019695Y-98784228D01*
X137019695Y-97816609D02*
X136593942Y-97816609D01*
X136516533Y-97855314D01*
X136477828Y-97932723D01*
X136477828Y-98087542D01*
X136516533Y-98164952D01*
X136980990Y-97816609D02*
X137019695Y-97894019D01*
X137019695Y-98087542D01*
X136980990Y-98164952D01*
X136903580Y-98203657D01*
X136826171Y-98203657D01*
X136748761Y-98164952D01*
X136710057Y-98087542D01*
X136710057Y-97894019D01*
X136671352Y-97816609D01*
X137019695Y-97429561D02*
X136477828Y-97429561D01*
X136632647Y-97429561D02*
X136555238Y-97390857D01*
X136516533Y-97352152D01*
X136477828Y-97274742D01*
X136477828Y-97197333D01*
X137019695Y-96578057D02*
X136206895Y-96578057D01*
X136980990Y-96578057D02*
X137019695Y-96655466D01*
X137019695Y-96810285D01*
X136980990Y-96887695D01*
X136942285Y-96926400D01*
X136864876Y-96965104D01*
X136632647Y-96965104D01*
X136555238Y-96926400D01*
X136516533Y-96887695D01*
X136477828Y-96810285D01*
X136477828Y-96655466D01*
X136516533Y-96578057D01*
X129540000Y-104775000D02*
X129286000Y-104775000D01*
X129286000Y-104521000D02*
X129540000Y-104775000D01*
X129286000Y-104775000D02*
X129286000Y-104521000D01*
X129667000Y-104394000D02*
X129286000Y-104775000D01*
X129667000Y-101854000D02*
X129667000Y-104394000D01*
X130048000Y-101473000D02*
X129667000Y-101854000D01*
X130589866Y-126097695D02*
X130589866Y-125284895D01*
X130589866Y-126058990D02*
X130512457Y-126097695D01*
X130357638Y-126097695D01*
X130280228Y-126058990D01*
X130241523Y-126020285D01*
X130202819Y-125942876D01*
X130202819Y-125710647D01*
X130241523Y-125633238D01*
X130280228Y-125594533D01*
X130357638Y-125555828D01*
X130512457Y-125555828D01*
X130589866Y-125594533D01*
X130976914Y-126097695D02*
X130976914Y-125555828D01*
X130976914Y-125284895D02*
X130938209Y-125323600D01*
X130976914Y-125362304D01*
X131015619Y-125323600D01*
X130976914Y-125284895D01*
X130976914Y-125362304D01*
X131712304Y-125555828D02*
X131712304Y-126213809D01*
X131673600Y-126291219D01*
X131634895Y-126329923D01*
X131557485Y-126368628D01*
X131441371Y-126368628D01*
X131363961Y-126329923D01*
X131712304Y-126058990D02*
X131634895Y-126097695D01*
X131480076Y-126097695D01*
X131402666Y-126058990D01*
X131363961Y-126020285D01*
X131325257Y-125942876D01*
X131325257Y-125710647D01*
X131363961Y-125633238D01*
X131402666Y-125594533D01*
X131480076Y-125555828D01*
X131634895Y-125555828D01*
X131712304Y-125594533D01*
X132099352Y-126097695D02*
X132099352Y-125555828D01*
X132099352Y-125284895D02*
X132060647Y-125323600D01*
X132099352Y-125362304D01*
X132138057Y-125323600D01*
X132099352Y-125284895D01*
X132099352Y-125362304D01*
X132370285Y-125555828D02*
X132679923Y-125555828D01*
X132486400Y-125284895D02*
X132486400Y-125981580D01*
X132525104Y-126058990D01*
X132602514Y-126097695D01*
X132679923Y-126097695D01*
X133299200Y-126097695D02*
X133299200Y-125671942D01*
X133260495Y-125594533D01*
X133183085Y-125555828D01*
X133028266Y-125555828D01*
X132950857Y-125594533D01*
X133299200Y-126058990D02*
X133221790Y-126097695D01*
X133028266Y-126097695D01*
X132950857Y-126058990D01*
X132912152Y-125981580D01*
X132912152Y-125904171D01*
X132950857Y-125826761D01*
X133028266Y-125788057D01*
X133221790Y-125788057D01*
X133299200Y-125749352D01*
X133802361Y-126097695D02*
X133724952Y-126058990D01*
X133686247Y-125981580D01*
X133686247Y-125284895D01*
X134034590Y-125555828D02*
X134189409Y-126097695D01*
X134344228Y-125710647D01*
X134499047Y-126097695D01*
X134653866Y-125555828D01*
X134963504Y-126097695D02*
X134963504Y-125555828D01*
X134963504Y-125284895D02*
X134924800Y-125323600D01*
X134963504Y-125362304D01*
X135002209Y-125323600D01*
X134963504Y-125284895D01*
X134963504Y-125362304D01*
X135350552Y-126097695D02*
X135350552Y-125555828D01*
X135350552Y-125710647D02*
X135389257Y-125633238D01*
X135427961Y-125594533D01*
X135505371Y-125555828D01*
X135582780Y-125555828D01*
X136163352Y-126058990D02*
X136085942Y-126097695D01*
X135931123Y-126097695D01*
X135853714Y-126058990D01*
X135815009Y-125981580D01*
X135815009Y-125671942D01*
X135853714Y-125594533D01*
X135931123Y-125555828D01*
X136085942Y-125555828D01*
X136163352Y-125594533D01*
X136202057Y-125671942D01*
X136202057Y-125749352D01*
X135815009Y-125826761D01*
X136550400Y-126020285D02*
X136589104Y-126058990D01*
X136550400Y-126097695D01*
X136511695Y-126058990D01*
X136550400Y-126020285D01*
X136550400Y-126097695D01*
X137285790Y-126058990D02*
X137208380Y-126097695D01*
X137053561Y-126097695D01*
X136976152Y-126058990D01*
X136937447Y-126020285D01*
X136898742Y-125942876D01*
X136898742Y-125710647D01*
X136937447Y-125633238D01*
X136976152Y-125594533D01*
X137053561Y-125555828D01*
X137208380Y-125555828D01*
X137285790Y-125594533D01*
X137634133Y-126097695D02*
X137634133Y-125284895D01*
X137982476Y-126097695D02*
X137982476Y-125671942D01*
X137943771Y-125594533D01*
X137866361Y-125555828D01*
X137750247Y-125555828D01*
X137672838Y-125594533D01*
X137634133Y-125633238D01*
X120722571Y-96721990D02*
X120838685Y-96760695D01*
X121032209Y-96760695D01*
X121109619Y-96721990D01*
X121148323Y-96683285D01*
X121187028Y-96605876D01*
X121187028Y-96528466D01*
X121148323Y-96451057D01*
X121109619Y-96412352D01*
X121032209Y-96373647D01*
X120877390Y-96334942D01*
X120799980Y-96296238D01*
X120761276Y-96257533D01*
X120722571Y-96180123D01*
X120722571Y-96102714D01*
X120761276Y-96025304D01*
X120799980Y-95986600D01*
X120877390Y-95947895D01*
X121070914Y-95947895D01*
X121187028Y-95986600D01*
X121535371Y-96760695D02*
X121535371Y-95947895D01*
X121845009Y-95947895D01*
X121922419Y-95986600D01*
X121961123Y-96025304D01*
X121999828Y-96102714D01*
X121999828Y-96218828D01*
X121961123Y-96296238D01*
X121922419Y-96334942D01*
X121845009Y-96373647D01*
X121535371Y-96373647D01*
X122348171Y-96760695D02*
X122348171Y-95947895D01*
X122812628Y-96760695D02*
X122464285Y-96296238D01*
X122812628Y-95947895D02*
X122348171Y-96412352D01*
X123625428Y-96760695D02*
X123354495Y-96373647D01*
X123160971Y-96760695D02*
X123160971Y-95947895D01*
X123470609Y-95947895D01*
X123548019Y-95986600D01*
X123586723Y-96025304D01*
X123625428Y-96102714D01*
X123625428Y-96218828D01*
X123586723Y-96296238D01*
X123548019Y-96334942D01*
X123470609Y-96373647D01*
X123160971Y-96373647D01*
X108730142Y-103237695D02*
X108730142Y-102424895D01*
X109001076Y-103005466D01*
X109272009Y-102424895D01*
X109272009Y-103237695D01*
X109659057Y-103237695D02*
X109659057Y-102424895D01*
X110510561Y-103160285D02*
X110471857Y-103198990D01*
X110355742Y-103237695D01*
X110278333Y-103237695D01*
X110162219Y-103198990D01*
X110084809Y-103121580D01*
X110046104Y-103044171D01*
X110007400Y-102889352D01*
X110007400Y-102773238D01*
X110046104Y-102618419D01*
X110084809Y-102541009D01*
X110162219Y-102463600D01*
X110278333Y-102424895D01*
X110355742Y-102424895D01*
X110471857Y-102463600D01*
X110510561Y-102502304D01*
X107154133Y-90410695D02*
X106883200Y-90023647D01*
X106689676Y-90410695D02*
X106689676Y-89597895D01*
X106999314Y-89597895D01*
X107076723Y-89636600D01*
X107115428Y-89675304D01*
X107154133Y-89752714D01*
X107154133Y-89868828D01*
X107115428Y-89946238D01*
X107076723Y-89984942D01*
X106999314Y-90023647D01*
X106689676Y-90023647D01*
X107425066Y-89597895D02*
X107966933Y-90410695D01*
X107966933Y-89597895D02*
X107425066Y-90410695D01*
X108276571Y-90410695D02*
X108276571Y-89597895D01*
X108470095Y-89597895D01*
X108586209Y-89636600D01*
X108663619Y-89714009D01*
X108702323Y-89791419D01*
X108741028Y-89946238D01*
X108741028Y-90062352D01*
X108702323Y-90217171D01*
X108663619Y-90294580D01*
X108586209Y-90371990D01*
X108470095Y-90410695D01*
X108276571Y-90410695D01*
X106736847Y-99554695D02*
X106736847Y-98741895D01*
X107046485Y-98741895D01*
X107123895Y-98780600D01*
X107162600Y-98819304D01*
X107201304Y-98896714D01*
X107201304Y-99012828D01*
X107162600Y-99090238D01*
X107123895Y-99128942D01*
X107046485Y-99167647D01*
X106736847Y-99167647D01*
X107433533Y-98741895D02*
X107897990Y-98741895D01*
X107665761Y-99554695D02*
X107665761Y-98741895D01*
X108052809Y-98741895D02*
X108517266Y-98741895D01*
X108285038Y-99554695D02*
X108285038Y-98741895D01*
X106797323Y-94169895D02*
X107261780Y-94169895D01*
X107029552Y-94982695D02*
X107029552Y-94169895D01*
X107455304Y-94169895D02*
X107997171Y-94982695D01*
X107997171Y-94169895D02*
X107455304Y-94982695D01*
X108306809Y-94982695D02*
X108306809Y-94169895D01*
X108500333Y-94169895D01*
X108616447Y-94208600D01*
X108693857Y-94286009D01*
X108732561Y-94363419D01*
X108771266Y-94518238D01*
X108771266Y-94634352D01*
X108732561Y-94789171D01*
X108693857Y-94866580D01*
X108616447Y-94943990D01*
X108500333Y-94982695D01*
X108306809Y-94982695D01*
X106739266Y-86346695D02*
X106739266Y-85533895D01*
X107048904Y-85533895D01*
X107126314Y-85572600D01*
X107165019Y-85611304D01*
X107203723Y-85688714D01*
X107203723Y-85804828D01*
X107165019Y-85882238D01*
X107126314Y-85920942D01*
X107048904Y-85959647D01*
X106739266Y-85959647D01*
X107474657Y-85533895D02*
X107668180Y-86346695D01*
X107823000Y-85766123D01*
X107977819Y-86346695D01*
X108171342Y-85533895D01*
X108945438Y-86346695D02*
X108674504Y-85959647D01*
X108480980Y-86346695D02*
X108480980Y-85533895D01*
X108790619Y-85533895D01*
X108868028Y-85572600D01*
X108906733Y-85611304D01*
X108945438Y-85688714D01*
X108945438Y-85804828D01*
X108906733Y-85882238D01*
X108868028Y-85920942D01*
X108790619Y-85959647D01*
X108480980Y-85959647D01*
X106784019Y-81735990D02*
X106900133Y-81774695D01*
X107093657Y-81774695D01*
X107171066Y-81735990D01*
X107209771Y-81697285D01*
X107248476Y-81619876D01*
X107248476Y-81542466D01*
X107209771Y-81465057D01*
X107171066Y-81426352D01*
X107093657Y-81387647D01*
X106938838Y-81348942D01*
X106861428Y-81310238D01*
X106822723Y-81271533D01*
X106784019Y-81194123D01*
X106784019Y-81116714D01*
X106822723Y-81039304D01*
X106861428Y-81000600D01*
X106938838Y-80961895D01*
X107132361Y-80961895D01*
X107248476Y-81000600D01*
X108138685Y-81852104D02*
X108061276Y-81813400D01*
X107983866Y-81735990D01*
X107867752Y-81619876D01*
X107790342Y-81581171D01*
X107712933Y-81581171D01*
X107751638Y-81774695D02*
X107674228Y-81735990D01*
X107596819Y-81658580D01*
X107558114Y-81503761D01*
X107558114Y-81232828D01*
X107596819Y-81078009D01*
X107674228Y-81000600D01*
X107751638Y-80961895D01*
X107906457Y-80961895D01*
X107983866Y-81000600D01*
X108061276Y-81078009D01*
X108099980Y-81232828D01*
X108099980Y-81503761D01*
X108061276Y-81658580D01*
X107983866Y-81735990D01*
X107906457Y-81774695D01*
X107751638Y-81774695D01*
D11*
%TO.C,J2*%
X115363666Y-68540380D02*
X115363666Y-69254666D01*
X115316047Y-69397523D01*
X115220809Y-69492761D01*
X115077952Y-69540380D01*
X114982714Y-69540380D01*
X115792238Y-68635619D02*
X115839857Y-68588000D01*
X115935095Y-68540380D01*
X116173190Y-68540380D01*
X116268428Y-68588000D01*
X116316047Y-68635619D01*
X116363666Y-68730857D01*
X116363666Y-68826095D01*
X116316047Y-68968952D01*
X115744619Y-69540380D01*
X116363666Y-69540380D01*
%TO.C,J3*%
X110156666Y-112736380D02*
X110156666Y-113450666D01*
X110109047Y-113593523D01*
X110013809Y-113688761D01*
X109870952Y-113736380D01*
X109775714Y-113736380D01*
X110537619Y-112736380D02*
X111156666Y-112736380D01*
X110823333Y-113117333D01*
X110966190Y-113117333D01*
X111061428Y-113164952D01*
X111109047Y-113212571D01*
X111156666Y-113307809D01*
X111156666Y-113545904D01*
X111109047Y-113641142D01*
X111061428Y-113688761D01*
X110966190Y-113736380D01*
X110680476Y-113736380D01*
X110585238Y-113688761D01*
X110537619Y-113641142D01*
%TO.C,U1*%
X134620095Y-112482380D02*
X134620095Y-113291904D01*
X134667714Y-113387142D01*
X134715333Y-113434761D01*
X134810571Y-113482380D01*
X135001047Y-113482380D01*
X135096285Y-113434761D01*
X135143904Y-113387142D01*
X135191523Y-113291904D01*
X135191523Y-112482380D01*
X136191523Y-113482380D02*
X135620095Y-113482380D01*
X135905809Y-113482380D02*
X135905809Y-112482380D01*
X135810571Y-112625238D01*
X135715333Y-112720476D01*
X135620095Y-112768095D01*
%TO.C,U2*%
X134112095Y-84288380D02*
X134112095Y-85097904D01*
X134159714Y-85193142D01*
X134207333Y-85240761D01*
X134302571Y-85288380D01*
X134493047Y-85288380D01*
X134588285Y-85240761D01*
X134635904Y-85193142D01*
X134683523Y-85097904D01*
X134683523Y-84288380D01*
X135112095Y-84383619D02*
X135159714Y-84336000D01*
X135254952Y-84288380D01*
X135493047Y-84288380D01*
X135588285Y-84336000D01*
X135635904Y-84383619D01*
X135683523Y-84478857D01*
X135683523Y-84574095D01*
X135635904Y-84716952D01*
X135064476Y-85288380D01*
X135683523Y-85288380D01*
%TO.C,U4*%
X130175095Y-100290380D02*
X130175095Y-101099904D01*
X130222714Y-101195142D01*
X130270333Y-101242761D01*
X130365571Y-101290380D01*
X130556047Y-101290380D01*
X130651285Y-101242761D01*
X130698904Y-101195142D01*
X130746523Y-101099904D01*
X130746523Y-100290380D01*
X131651285Y-100623714D02*
X131651285Y-101290380D01*
X131413190Y-100242761D02*
X131175095Y-100957047D01*
X131794142Y-100957047D01*
%TO.C,L1*%
X123023333Y-100274380D02*
X122547142Y-100274380D01*
X122547142Y-99274380D01*
X123880476Y-100274380D02*
X123309047Y-100274380D01*
X123594761Y-100274380D02*
X123594761Y-99274380D01*
X123499523Y-99417238D01*
X123404285Y-99512476D01*
X123309047Y-99560095D01*
%TO.C,L2*%
X119324380Y-108497666D02*
X119324380Y-108973857D01*
X118324380Y-108973857D01*
X118419619Y-108211952D02*
X118372000Y-108164333D01*
X118324380Y-108069095D01*
X118324380Y-107831000D01*
X118372000Y-107735761D01*
X118419619Y-107688142D01*
X118514857Y-107640523D01*
X118610095Y-107640523D01*
X118752952Y-107688142D01*
X119324380Y-108259571D01*
X119324380Y-107640523D01*
%TO.C,J1*%
X116760666Y-119340380D02*
X116760666Y-120054666D01*
X116713047Y-120197523D01*
X116617809Y-120292761D01*
X116474952Y-120340380D01*
X116379714Y-120340380D01*
X117760666Y-120340380D02*
X117189238Y-120340380D01*
X117474952Y-120340380D02*
X117474952Y-119340380D01*
X117379714Y-119483238D01*
X117284476Y-119578476D01*
X117189238Y-119626095D01*
%TO.C,J4*%
X120316666Y-112736380D02*
X120316666Y-113450666D01*
X120269047Y-113593523D01*
X120173809Y-113688761D01*
X120030952Y-113736380D01*
X119935714Y-113736380D01*
X121221428Y-113069714D02*
X121221428Y-113736380D01*
X120983333Y-112688761D02*
X120745238Y-113403047D01*
X121364285Y-113403047D01*
D12*
%TO.C,C1*%
X127481000Y-93845748D02*
X127481000Y-94368252D01*
X126011000Y-93845748D02*
X126011000Y-94368252D01*
%TO.C,C2*%
X129867252Y-122147000D02*
X129344748Y-122147000D01*
X129867252Y-120677000D02*
X129344748Y-120677000D01*
%TO.C,C3*%
X137675252Y-110009000D02*
X137152748Y-110009000D01*
X137675252Y-111479000D02*
X137152748Y-111479000D01*
%TO.C,C4*%
X127481000Y-89334748D02*
X127481000Y-89857252D01*
X126011000Y-89334748D02*
X126011000Y-89857252D01*
%TO.C,C5*%
X137187000Y-87129252D02*
X137187000Y-86606748D01*
X138657000Y-87129252D02*
X138657000Y-86606748D01*
%TO.C,C6*%
X130228748Y-83720000D02*
X130751252Y-83720000D01*
X130228748Y-85190000D02*
X130751252Y-85190000D01*
%TO.C,C7*%
X129801252Y-114327000D02*
X129278748Y-114327000D01*
X129801252Y-115797000D02*
X129278748Y-115797000D01*
%TO.C,C8*%
X131599000Y-97782748D02*
X131599000Y-98305252D01*
X133069000Y-97782748D02*
X133069000Y-98305252D01*
%TO.C,C9*%
X129801252Y-117629000D02*
X129278748Y-117629000D01*
X129801252Y-119099000D02*
X129278748Y-119099000D01*
%TO.C,C10*%
X129059000Y-93830548D02*
X129059000Y-94353052D01*
X130529000Y-93830548D02*
X130529000Y-94353052D01*
%TO.C,C11*%
X126338000Y-110670748D02*
X126338000Y-111193252D01*
X124868000Y-110670748D02*
X124868000Y-111193252D01*
%TO.C,C12*%
X131833252Y-70385000D02*
X131310748Y-70385000D01*
X131833252Y-71855000D02*
X131310748Y-71855000D01*
%TO.C,C13*%
X131833252Y-69061000D02*
X131310748Y-69061000D01*
X131833252Y-67591000D02*
X131310748Y-67591000D01*
%TO.C,C14*%
X137675252Y-94715000D02*
X137152748Y-94715000D01*
X137675252Y-93245000D02*
X137152748Y-93245000D01*
%TO.C,C15*%
X128878000Y-110670748D02*
X128878000Y-111193252D01*
X127408000Y-110670748D02*
X127408000Y-111193252D01*
%TO.C,C16*%
X124995000Y-102288748D02*
X124995000Y-102811252D01*
X126465000Y-102288748D02*
X126465000Y-102811252D01*
%TO.C,C17*%
X132275252Y-106707000D02*
X131752748Y-106707000D01*
X132275252Y-108177000D02*
X131752748Y-108177000D01*
%TO.C,C18*%
X122628252Y-105183000D02*
X122105748Y-105183000D01*
X122628252Y-106653000D02*
X122105748Y-106653000D01*
%TO.C,C19*%
X122435252Y-111479000D02*
X121912748Y-111479000D01*
X122435252Y-110009000D02*
X121912748Y-110009000D01*
%TO.C,J2*%
X108436000Y-65408000D02*
X112036000Y-65408000D01*
X113916000Y-67288000D02*
X113916000Y-70888000D01*
X106556000Y-67288000D02*
X106556000Y-70888000D01*
X108436000Y-72768000D02*
X112036000Y-72768000D01*
%TO.C,J3*%
X114360000Y-116900000D02*
X114360000Y-114240000D01*
X107950000Y-116900000D02*
X106620000Y-116900000D01*
X106620000Y-116900000D02*
X106620000Y-115570000D01*
X109220000Y-116900000D02*
X114360000Y-116900000D01*
X109220000Y-114240000D02*
X114360000Y-114240000D01*
X109220000Y-116900000D02*
X109220000Y-114240000D01*
%TO.C,Q1*%
X123696000Y-72461000D02*
X123696000Y-73391000D01*
X123696000Y-75621000D02*
X122236000Y-75621000D01*
X123696000Y-72461000D02*
X121536000Y-72461000D01*
X123696000Y-75621000D02*
X123696000Y-74691000D01*
%TO.C,Q2*%
X123680000Y-77033000D02*
X123680000Y-77963000D01*
X123680000Y-80193000D02*
X122220000Y-80193000D01*
X123680000Y-77033000D02*
X121520000Y-77033000D01*
X123680000Y-80193000D02*
X123680000Y-79263000D01*
%TO.C,Q3*%
X123680000Y-81605000D02*
X121520000Y-81605000D01*
X123680000Y-84765000D02*
X123680000Y-83835000D01*
X123680000Y-81605000D02*
X123680000Y-82535000D01*
X123680000Y-84765000D02*
X122220000Y-84765000D01*
%TO.C,R1*%
X130225436Y-81307000D02*
X130679564Y-81307000D01*
X130225436Y-82777000D02*
X130679564Y-82777000D01*
%TO.C,R2*%
X119122564Y-81307000D02*
X118668436Y-81307000D01*
X119122564Y-82777000D02*
X118668436Y-82777000D01*
%TO.C,R3*%
X119099064Y-74449000D02*
X118644936Y-74449000D01*
X119099064Y-75919000D02*
X118644936Y-75919000D01*
%TO.C,R4*%
X130783064Y-80491000D02*
X130328936Y-80491000D01*
X130783064Y-79021000D02*
X130328936Y-79021000D01*
%TO.C,R5*%
X119122564Y-79021000D02*
X118668436Y-79021000D01*
X119122564Y-80491000D02*
X118668436Y-80491000D01*
%TO.C,R6*%
X119099064Y-72163000D02*
X118644936Y-72163000D01*
X119099064Y-73633000D02*
X118644936Y-73633000D01*
%TO.C,R7*%
X119099064Y-78205000D02*
X118644936Y-78205000D01*
X119099064Y-76735000D02*
X118644936Y-76735000D01*
%TO.C,R8*%
X119122564Y-83593000D02*
X118668436Y-83593000D01*
X119122564Y-85063000D02*
X118668436Y-85063000D01*
%TO.C,R9*%
X117247936Y-90016000D02*
X117702064Y-90016000D01*
X117247936Y-88546000D02*
X117702064Y-88546000D01*
%TO.C,R10*%
X133069000Y-93854536D02*
X133069000Y-94308664D01*
X131599000Y-93854536D02*
X131599000Y-94308664D01*
%TO.C,R11*%
X117725564Y-94207000D02*
X117271436Y-94207000D01*
X117725564Y-92737000D02*
X117271436Y-92737000D01*
%TO.C,R12*%
X127535000Y-102739564D02*
X127535000Y-102285436D01*
X129005000Y-102739564D02*
X129005000Y-102285436D01*
%TO.C,R14*%
X131749436Y-105891000D02*
X132203564Y-105891000D01*
X131749436Y-104421000D02*
X132203564Y-104421000D01*
%TO.C,R15*%
X131749436Y-110463000D02*
X132203564Y-110463000D01*
X131749436Y-108993000D02*
X132203564Y-108993000D01*
%TO.C,U1*%
X138919000Y-116302000D02*
X137659000Y-116302000D01*
X132099000Y-122312000D02*
X132099000Y-116302000D01*
X132099000Y-116302000D02*
X133359000Y-116302000D01*
X138919000Y-120062000D02*
X138919000Y-116302000D01*
%TO.C,U2*%
X132523000Y-85959000D02*
X134473000Y-85959000D01*
X132523000Y-85959000D02*
X129073000Y-85959000D01*
X132523000Y-91079000D02*
X130573000Y-91079000D01*
X132523000Y-91079000D02*
X134473000Y-91079000D01*
D11*
%TO.C,U4*%
X127000000Y-105055000D02*
X128500000Y-105055000D01*
X125500000Y-108305000D02*
X128500000Y-108305000D01*
D12*
%TO.C,RV1*%
X119554000Y-89284000D02*
X119554000Y-94524000D01*
X122434000Y-94524000D02*
X121914000Y-94524000D01*
X121284000Y-89284000D02*
X119554000Y-89284000D01*
X124794000Y-89284000D02*
X124794000Y-94524000D01*
X124794000Y-94524000D02*
X124213000Y-94524000D01*
X124794000Y-89284000D02*
X123064000Y-89284000D01*
X120134000Y-94524000D02*
X119554000Y-94524000D01*
%TO.C,RV2*%
X111768000Y-104612000D02*
X112348000Y-104612000D01*
X107108000Y-104612000D02*
X107689000Y-104612000D01*
X107108000Y-109852000D02*
X108838000Y-109852000D01*
X112348000Y-109852000D02*
X112348000Y-104612000D01*
X110618000Y-109852000D02*
X112348000Y-109852000D01*
X107108000Y-109852000D02*
X107108000Y-104612000D01*
X109468000Y-104612000D02*
X109988000Y-104612000D01*
%TO.C,L1*%
X123798000Y-102404936D02*
X123798000Y-102859064D01*
X122328000Y-102404936D02*
X122328000Y-102859064D01*
%TO.C,L2*%
X121962936Y-107596000D02*
X122417064Y-107596000D01*
X121962936Y-109066000D02*
X122417064Y-109066000D01*
%TO.C,D1*%
X106719000Y-92175000D02*
X109004000Y-92175000D01*
X109004000Y-90705000D02*
X106719000Y-90705000D01*
X106719000Y-90705000D02*
X106719000Y-92175000D01*
%TO.C,D3*%
X106719000Y-101319000D02*
X109004000Y-101319000D01*
X109004000Y-99849000D02*
X106719000Y-99849000D01*
X106719000Y-99849000D02*
X106719000Y-101319000D01*
%TO.C,D4*%
X106744500Y-83539000D02*
X109029500Y-83539000D01*
X106744500Y-82069000D02*
X106744500Y-83539000D01*
X109029500Y-82069000D02*
X106744500Y-82069000D01*
%TO.C,D5*%
X106719000Y-88111000D02*
X109004000Y-88111000D01*
X109004000Y-86641000D02*
X106719000Y-86641000D01*
X106719000Y-86641000D02*
X106719000Y-88111000D01*
%TO.C,R16*%
X112826436Y-90705000D02*
X113280564Y-90705000D01*
X112826436Y-92175000D02*
X113280564Y-92175000D01*
%TO.C,R17*%
X112779436Y-95277000D02*
X113233564Y-95277000D01*
X112779436Y-96747000D02*
X113233564Y-96747000D01*
%TO.C,R19*%
X112802936Y-82069000D02*
X113257064Y-82069000D01*
X112802936Y-83539000D02*
X113257064Y-83539000D01*
%TO.C,R20*%
X112826436Y-88111000D02*
X113280564Y-88111000D01*
X112826436Y-86641000D02*
X113280564Y-86641000D01*
%TO.C,J1*%
X109220000Y-126044000D02*
X109220000Y-123444000D01*
X106620000Y-120844000D02*
X127060000Y-120844000D01*
X109220000Y-126044000D02*
X127060000Y-126044000D01*
X106620000Y-126044000D02*
X106620000Y-124714000D01*
X109220000Y-123444000D02*
X106620000Y-123444000D01*
X127060000Y-126044000D02*
X127060000Y-120844000D01*
X106620000Y-123444000D02*
X106620000Y-120844000D01*
X107950000Y-126044000D02*
X106620000Y-126044000D01*
%TO.C,J4*%
X118110000Y-116900000D02*
X116780000Y-116900000D01*
X124520000Y-116900000D02*
X124520000Y-114240000D01*
X116780000Y-116900000D02*
X116780000Y-115570000D01*
X119380000Y-114240000D02*
X124520000Y-114240000D01*
X119380000Y-116900000D02*
X124520000Y-116900000D01*
X119380000Y-116900000D02*
X119380000Y-114240000D01*
%TO.C,D2*%
X106719000Y-95277000D02*
X106719000Y-96747000D01*
X106719000Y-96747000D02*
X109004000Y-96747000D01*
X109004000Y-95277000D02*
X106719000Y-95277000D01*
%TO.C,R13*%
X132156564Y-103605000D02*
X131702436Y-103605000D01*
X132156564Y-102135000D02*
X131702436Y-102135000D01*
%TO.C,R18*%
X112802936Y-99849000D02*
X113257064Y-99849000D01*
X112802936Y-101319000D02*
X113257064Y-101319000D01*
%TD*%
M02*
