%TF.GenerationSoftware,KiCad,Pcbnew,(6.0.0)*%
%TF.CreationDate,2021-12-26T21:14:17+01:00*%
%TF.ProjectId,TRX_Board,5452585f-426f-4617-9264-2e6b69636164,V 1.0*%
%TF.SameCoordinates,Original*%
%TF.FileFunction,Copper,L3,Inr*%
%TF.FilePolarity,Positive*%
%FSLAX46Y46*%
G04 Gerber Fmt 4.6, Leading zero omitted, Abs format (unit mm)*
G04 Created by KiCad (PCBNEW (6.0.0)) date 2021-12-26 21:14:17*
%MOMM*%
%LPD*%
G01*
G04 APERTURE LIST*
%TA.AperFunction,ComponentPad*%
%ADD10C,2.050000*%
%TD*%
%TA.AperFunction,ComponentPad*%
%ADD11C,2.250000*%
%TD*%
%TA.AperFunction,ComponentPad*%
%ADD12R,1.700000X1.700000*%
%TD*%
%TA.AperFunction,ComponentPad*%
%ADD13O,1.700000X1.700000*%
%TD*%
%TA.AperFunction,ComponentPad*%
%ADD14C,0.610000*%
%TD*%
%TA.AperFunction,ViaPad*%
%ADD15C,0.685800*%
%TD*%
%TA.AperFunction,ViaPad*%
%ADD16C,0.889000*%
%TD*%
%TA.AperFunction,Conductor*%
%ADD17C,0.508000*%
%TD*%
G04 APERTURE END LIST*
D10*
%TO.N,Net-(FL1-Pad3)*%
%TO.C,J2*%
X110236000Y-69088000D03*
D11*
%TO.N,GND*%
X107696000Y-66548000D03*
X112776000Y-71628000D03*
X112776000Y-66548000D03*
X107696000Y-71628000D03*
%TD*%
D12*
%TO.N,GND*%
%TO.C,J3*%
X107950000Y-115570000D03*
D13*
%TO.N,/MIC_GAIN*%
X110490000Y-115570000D03*
%TO.N,+3V3*%
X113030000Y-115570000D03*
%TD*%
D12*
%TO.N,GND*%
%TO.C,J1*%
X107950000Y-124714000D03*
D13*
%TO.N,/MIC*%
X107950000Y-122174000D03*
%TO.N,/SPKR*%
X110490000Y-124714000D03*
%TO.N,/-PTT*%
X110490000Y-122174000D03*
%TO.N,/MIC_AR*%
X113030000Y-124714000D03*
%TO.N,/MIC_TRX*%
X113030000Y-122174000D03*
%TO.N,/MIC_GAIN*%
X115570000Y-124714000D03*
%TO.N,+3V3*%
X115570000Y-122174000D03*
%TO.N,/\u002APTT*%
X118110000Y-124714000D03*
%TO.N,/\u002ATXD*%
X118110000Y-122174000D03*
%TO.N,/\u002ARFPWR*%
X120650000Y-124714000D03*
%TO.N,/\u002ARXD*%
X120650000Y-122174000D03*
%TO.N,/SQ*%
X123190000Y-124714000D03*
%TO.N,/\u002ASLEEP*%
X123190000Y-122174000D03*
%TO.N,GND*%
X125730000Y-124714000D03*
%TO.N,VCC*%
X125730000Y-122174000D03*
%TD*%
D12*
%TO.N,GND*%
%TO.C,J4*%
X118110000Y-115570000D03*
D13*
%TO.N,/MIC_AR*%
X120650000Y-115570000D03*
%TO.N,+3V3*%
X123190000Y-115570000D03*
%TD*%
D14*
%TO.N,GND*%
%TO.C,FL1*%
X109131000Y-77115000D03*
X111341000Y-77115000D03*
%TD*%
D15*
%TO.N,+3V3*%
X115062000Y-96012000D03*
%TO.N,/\u002ATXD*%
X116586000Y-98552000D03*
%TO.N,/RXD*%
X115874303Y-91440000D03*
%TO.N,/\u002ARXD*%
X121920000Y-92964000D03*
%TO.N,+3V3*%
X115062000Y-100584000D03*
X115062000Y-91440000D03*
X115062000Y-87376000D03*
%TO.N,/AF_TRX*%
X128270000Y-91948000D03*
D16*
%TO.N,GND*%
X124714000Y-69723000D03*
D15*
X131216400Y-119888000D03*
D16*
X124714000Y-68326000D03*
D15*
X128587500Y-116776500D03*
X128651000Y-119888000D03*
X133197600Y-119532400D03*
D16*
X124714000Y-71120000D03*
X129286000Y-71120000D03*
X129286000Y-68326000D03*
X129286000Y-69723000D03*
D15*
%TO.N,+3V3*%
X132842000Y-115062000D03*
D16*
X133858000Y-69723000D03*
X133858000Y-68326000D03*
D15*
X135509000Y-119507000D03*
X115062000Y-82804000D03*
X131826000Y-115062000D03*
D16*
X133858000Y-71120000D03*
D15*
X133223000Y-118364000D03*
X119888000Y-108331000D03*
X128016000Y-81026000D03*
X131648200Y-118364000D03*
%TO.N,/SPKR*%
X115062000Y-97536000D03*
%TO.N,/MIC_TRX*%
X115316000Y-110744000D03*
%TO.N,/-PTT*%
X132842000Y-82804000D03*
%TO.N,/MIC_AR*%
X129794000Y-111506000D03*
%TO.N,/MIC_GAIN*%
X132889000Y-111459000D03*
%TO.N,/\u002APTT*%
X116840000Y-80899000D03*
%TO.N,/\u002ARFPWR*%
X115570000Y-81026000D03*
%TO.N,/\u002ASLEEP*%
X116459000Y-80137000D03*
%TO.N,Net-(Q1-Pad3)*%
X131826000Y-73914000D03*
%TO.N,/-SLEEP*%
X131468500Y-78335500D03*
X124714000Y-104648000D03*
%TO.N,/SQ*%
X107442000Y-84836000D03*
X135636000Y-102362000D03*
%TD*%
D17*
%TO.N,/\u002APTT*%
X116967000Y-80899000D02*
X116840000Y-80899000D01*
X119380000Y-111506000D02*
X120904000Y-109982000D01*
X120904000Y-109982000D02*
X120904000Y-84836000D01*
X119380000Y-123444000D02*
X119380000Y-111506000D01*
X118110000Y-124714000D02*
X119380000Y-123444000D01*
X120904000Y-84836000D02*
X116967000Y-80899000D01*
%TO.N,/MIC_AR*%
X120650000Y-115570000D02*
X120650000Y-114046000D01*
X123190000Y-111506000D02*
X129794000Y-111506000D01*
X120650000Y-114046000D02*
X123190000Y-111506000D01*
%TD*%
%TA.AperFunction,Conductor*%
%TO.N,GND*%
G36*
X140189694Y-64534306D02*
G01*
X140208000Y-64578500D01*
X140208000Y-126683500D01*
X140189694Y-126727694D01*
X140145500Y-126746000D01*
X105726500Y-126746000D01*
X105682306Y-126727694D01*
X105664000Y-126683500D01*
X105664000Y-125597831D01*
X106719000Y-125597831D01*
X106719332Y-125602362D01*
X106729317Y-125670192D01*
X106732165Y-125679359D01*
X106783650Y-125784220D01*
X106789578Y-125792502D01*
X106872038Y-125874819D01*
X106880333Y-125880735D01*
X106985288Y-125932038D01*
X106994452Y-125934870D01*
X107061644Y-125944672D01*
X107066157Y-125945000D01*
X107683569Y-125945000D01*
X107692359Y-125941359D01*
X107696000Y-125932569D01*
X108204000Y-125932569D01*
X108207641Y-125941359D01*
X108216431Y-125945000D01*
X108833831Y-125945000D01*
X108838362Y-125944668D01*
X108906192Y-125934683D01*
X108915359Y-125931835D01*
X109020220Y-125880350D01*
X109028502Y-125874422D01*
X109110819Y-125791962D01*
X109116735Y-125783667D01*
X109168038Y-125678712D01*
X109170870Y-125669548D01*
X109180672Y-125602356D01*
X109181000Y-125597843D01*
X109181000Y-124980431D01*
X109177359Y-124971641D01*
X109168569Y-124968000D01*
X108216431Y-124968000D01*
X108207641Y-124971641D01*
X108204000Y-124980431D01*
X108204000Y-125932569D01*
X107696000Y-125932569D01*
X107696000Y-124980431D01*
X107692359Y-124971641D01*
X107683569Y-124968000D01*
X106731431Y-124968000D01*
X106722641Y-124971641D01*
X106719000Y-124980431D01*
X106719000Y-125597831D01*
X105664000Y-125597831D01*
X105664000Y-124684964D01*
X109381148Y-124684964D01*
X109394424Y-124887522D01*
X109444392Y-125084269D01*
X109529377Y-125268616D01*
X109646533Y-125434389D01*
X109791938Y-125576035D01*
X109960720Y-125688812D01*
X110047124Y-125725934D01*
X110144588Y-125767808D01*
X110144590Y-125767809D01*
X110147228Y-125768942D01*
X110247641Y-125791663D01*
X110342426Y-125813111D01*
X110342429Y-125813111D01*
X110345216Y-125813742D01*
X110435164Y-125817276D01*
X110545193Y-125821600D01*
X110545197Y-125821600D01*
X110548053Y-125821712D01*
X110748945Y-125792584D01*
X110941165Y-125727334D01*
X111118276Y-125628147D01*
X111274345Y-125498345D01*
X111404147Y-125342276D01*
X111503334Y-125165165D01*
X111568584Y-124972945D01*
X111597712Y-124772053D01*
X111599232Y-124714000D01*
X111596565Y-124684964D01*
X111921148Y-124684964D01*
X111934424Y-124887522D01*
X111984392Y-125084269D01*
X112069377Y-125268616D01*
X112186533Y-125434389D01*
X112331938Y-125576035D01*
X112500720Y-125688812D01*
X112587124Y-125725934D01*
X112684588Y-125767808D01*
X112684590Y-125767809D01*
X112687228Y-125768942D01*
X112787641Y-125791663D01*
X112882426Y-125813111D01*
X112882429Y-125813111D01*
X112885216Y-125813742D01*
X112975164Y-125817276D01*
X113085193Y-125821600D01*
X113085197Y-125821600D01*
X113088053Y-125821712D01*
X113288945Y-125792584D01*
X113481165Y-125727334D01*
X113658276Y-125628147D01*
X113814345Y-125498345D01*
X113944147Y-125342276D01*
X114043334Y-125165165D01*
X114108584Y-124972945D01*
X114137712Y-124772053D01*
X114139232Y-124714000D01*
X114136565Y-124684964D01*
X114461148Y-124684964D01*
X114474424Y-124887522D01*
X114524392Y-125084269D01*
X114609377Y-125268616D01*
X114726533Y-125434389D01*
X114871938Y-125576035D01*
X115040720Y-125688812D01*
X115127124Y-125725934D01*
X115224588Y-125767808D01*
X115224590Y-125767809D01*
X115227228Y-125768942D01*
X115327641Y-125791663D01*
X115422426Y-125813111D01*
X115422429Y-125813111D01*
X115425216Y-125813742D01*
X115515164Y-125817276D01*
X115625193Y-125821600D01*
X115625197Y-125821600D01*
X115628053Y-125821712D01*
X115828945Y-125792584D01*
X116021165Y-125727334D01*
X116198276Y-125628147D01*
X116354345Y-125498345D01*
X116484147Y-125342276D01*
X116583334Y-125165165D01*
X116648584Y-124972945D01*
X116677712Y-124772053D01*
X116679232Y-124714000D01*
X116676303Y-124682116D01*
X116660920Y-124514714D01*
X116660658Y-124511859D01*
X116659879Y-124509096D01*
X116606335Y-124319244D01*
X116606333Y-124319240D01*
X116605557Y-124316487D01*
X116515776Y-124134428D01*
X116497437Y-124109869D01*
X116396037Y-123974078D01*
X116396036Y-123974076D01*
X116394320Y-123971779D01*
X116245258Y-123833987D01*
X116073581Y-123725667D01*
X115885039Y-123650446D01*
X115882233Y-123649888D01*
X115882230Y-123649887D01*
X115688752Y-123611402D01*
X115688750Y-123611402D01*
X115685946Y-123610844D01*
X115590353Y-123609593D01*
X115485833Y-123608224D01*
X115485828Y-123608224D01*
X115482971Y-123608187D01*
X115480151Y-123608672D01*
X115480146Y-123608672D01*
X115363751Y-123628673D01*
X115282910Y-123642564D01*
X115280222Y-123643556D01*
X115280217Y-123643557D01*
X115095151Y-123711832D01*
X115095148Y-123711833D01*
X115092463Y-123712824D01*
X114918010Y-123816612D01*
X114765392Y-123950455D01*
X114639720Y-124109869D01*
X114545203Y-124289515D01*
X114544356Y-124292242D01*
X114544355Y-124292245D01*
X114506242Y-124414989D01*
X114485007Y-124483378D01*
X114461148Y-124684964D01*
X114136565Y-124684964D01*
X114136303Y-124682116D01*
X114120920Y-124514714D01*
X114120658Y-124511859D01*
X114119879Y-124509096D01*
X114066335Y-124319244D01*
X114066333Y-124319240D01*
X114065557Y-124316487D01*
X113975776Y-124134428D01*
X113957437Y-124109869D01*
X113856037Y-123974078D01*
X113856036Y-123974076D01*
X113854320Y-123971779D01*
X113705258Y-123833987D01*
X113533581Y-123725667D01*
X113345039Y-123650446D01*
X113342233Y-123649888D01*
X113342230Y-123649887D01*
X113148752Y-123611402D01*
X113148750Y-123611402D01*
X113145946Y-123610844D01*
X113050353Y-123609593D01*
X112945833Y-123608224D01*
X112945828Y-123608224D01*
X112942971Y-123608187D01*
X112940151Y-123608672D01*
X112940146Y-123608672D01*
X112823751Y-123628673D01*
X112742910Y-123642564D01*
X112740222Y-123643556D01*
X112740217Y-123643557D01*
X112555151Y-123711832D01*
X112555148Y-123711833D01*
X112552463Y-123712824D01*
X112378010Y-123816612D01*
X112225392Y-123950455D01*
X112099720Y-124109869D01*
X112005203Y-124289515D01*
X112004356Y-124292242D01*
X112004355Y-124292245D01*
X111966242Y-124414989D01*
X111945007Y-124483378D01*
X111921148Y-124684964D01*
X111596565Y-124684964D01*
X111596303Y-124682116D01*
X111580920Y-124514714D01*
X111580658Y-124511859D01*
X111579879Y-124509096D01*
X111526335Y-124319244D01*
X111526333Y-124319240D01*
X111525557Y-124316487D01*
X111435776Y-124134428D01*
X111417437Y-124109869D01*
X111316037Y-123974078D01*
X111316036Y-123974076D01*
X111314320Y-123971779D01*
X111165258Y-123833987D01*
X110993581Y-123725667D01*
X110805039Y-123650446D01*
X110802233Y-123649888D01*
X110802230Y-123649887D01*
X110608752Y-123611402D01*
X110608750Y-123611402D01*
X110605946Y-123610844D01*
X110510353Y-123609593D01*
X110405833Y-123608224D01*
X110405828Y-123608224D01*
X110402971Y-123608187D01*
X110400151Y-123608672D01*
X110400146Y-123608672D01*
X110283751Y-123628673D01*
X110202910Y-123642564D01*
X110200222Y-123643556D01*
X110200217Y-123643557D01*
X110015151Y-123711832D01*
X110015148Y-123711833D01*
X110012463Y-123712824D01*
X109838010Y-123816612D01*
X109685392Y-123950455D01*
X109559720Y-124109869D01*
X109465203Y-124289515D01*
X109464356Y-124292242D01*
X109464355Y-124292245D01*
X109426242Y-124414989D01*
X109405007Y-124483378D01*
X109381148Y-124684964D01*
X105664000Y-124684964D01*
X105664000Y-124447569D01*
X106719000Y-124447569D01*
X106722641Y-124456359D01*
X106731431Y-124460000D01*
X107683569Y-124460000D01*
X107692359Y-124456359D01*
X107696000Y-124447569D01*
X108204000Y-124447569D01*
X108207641Y-124456359D01*
X108216431Y-124460000D01*
X109168569Y-124460000D01*
X109177359Y-124456359D01*
X109181000Y-124447569D01*
X109181000Y-123830169D01*
X109180668Y-123825638D01*
X109170683Y-123757808D01*
X109167835Y-123748641D01*
X109116350Y-123643780D01*
X109110422Y-123635498D01*
X109027962Y-123553181D01*
X109019667Y-123547265D01*
X108914712Y-123495962D01*
X108905548Y-123493130D01*
X108838356Y-123483328D01*
X108833843Y-123483000D01*
X108216431Y-123483000D01*
X108207641Y-123486641D01*
X108204000Y-123495431D01*
X108204000Y-124447569D01*
X107696000Y-124447569D01*
X107696000Y-123495431D01*
X107692359Y-123486641D01*
X107683569Y-123483000D01*
X107066169Y-123483000D01*
X107061638Y-123483332D01*
X106993808Y-123493317D01*
X106984641Y-123496165D01*
X106879780Y-123547650D01*
X106871498Y-123553578D01*
X106789181Y-123636038D01*
X106783265Y-123644333D01*
X106731962Y-123749288D01*
X106729130Y-123758452D01*
X106719328Y-123825644D01*
X106719000Y-123830157D01*
X106719000Y-124447569D01*
X105664000Y-124447569D01*
X105664000Y-122144964D01*
X106841148Y-122144964D01*
X106854424Y-122347522D01*
X106904392Y-122544269D01*
X106989377Y-122728616D01*
X107106533Y-122894389D01*
X107251938Y-123036035D01*
X107420720Y-123148812D01*
X107507124Y-123185934D01*
X107604588Y-123227808D01*
X107604590Y-123227809D01*
X107607228Y-123228942D01*
X107707641Y-123251663D01*
X107802426Y-123273111D01*
X107802429Y-123273111D01*
X107805216Y-123273742D01*
X107895164Y-123277276D01*
X108005193Y-123281600D01*
X108005197Y-123281600D01*
X108008053Y-123281712D01*
X108208945Y-123252584D01*
X108401165Y-123187334D01*
X108578276Y-123088147D01*
X108734345Y-122958345D01*
X108864147Y-122802276D01*
X108963334Y-122625165D01*
X109028584Y-122432945D01*
X109057712Y-122232053D01*
X109059232Y-122174000D01*
X109056565Y-122144964D01*
X109381148Y-122144964D01*
X109394424Y-122347522D01*
X109444392Y-122544269D01*
X109529377Y-122728616D01*
X109646533Y-122894389D01*
X109791938Y-123036035D01*
X109960720Y-123148812D01*
X110047124Y-123185934D01*
X110144588Y-123227808D01*
X110144590Y-123227809D01*
X110147228Y-123228942D01*
X110247641Y-123251663D01*
X110342426Y-123273111D01*
X110342429Y-123273111D01*
X110345216Y-123273742D01*
X110435164Y-123277276D01*
X110545193Y-123281600D01*
X110545197Y-123281600D01*
X110548053Y-123281712D01*
X110748945Y-123252584D01*
X110941165Y-123187334D01*
X111118276Y-123088147D01*
X111274345Y-122958345D01*
X111404147Y-122802276D01*
X111503334Y-122625165D01*
X111568584Y-122432945D01*
X111597712Y-122232053D01*
X111599232Y-122174000D01*
X111596565Y-122144964D01*
X111921148Y-122144964D01*
X111934424Y-122347522D01*
X111984392Y-122544269D01*
X112069377Y-122728616D01*
X112186533Y-122894389D01*
X112331938Y-123036035D01*
X112500720Y-123148812D01*
X112587124Y-123185934D01*
X112684588Y-123227808D01*
X112684590Y-123227809D01*
X112687228Y-123228942D01*
X112787641Y-123251663D01*
X112882426Y-123273111D01*
X112882429Y-123273111D01*
X112885216Y-123273742D01*
X112975164Y-123277276D01*
X113085193Y-123281600D01*
X113085197Y-123281600D01*
X113088053Y-123281712D01*
X113288945Y-123252584D01*
X113481165Y-123187334D01*
X113658276Y-123088147D01*
X113814345Y-122958345D01*
X113944147Y-122802276D01*
X114043334Y-122625165D01*
X114108584Y-122432945D01*
X114137712Y-122232053D01*
X114139232Y-122174000D01*
X114136565Y-122144964D01*
X114461148Y-122144964D01*
X114474424Y-122347522D01*
X114524392Y-122544269D01*
X114609377Y-122728616D01*
X114726533Y-122894389D01*
X114871938Y-123036035D01*
X115040720Y-123148812D01*
X115127124Y-123185934D01*
X115224588Y-123227808D01*
X115224590Y-123227809D01*
X115227228Y-123228942D01*
X115327641Y-123251663D01*
X115422426Y-123273111D01*
X115422429Y-123273111D01*
X115425216Y-123273742D01*
X115515164Y-123277276D01*
X115625193Y-123281600D01*
X115625197Y-123281600D01*
X115628053Y-123281712D01*
X115828945Y-123252584D01*
X116021165Y-123187334D01*
X116198276Y-123088147D01*
X116354345Y-122958345D01*
X116484147Y-122802276D01*
X116583334Y-122625165D01*
X116648584Y-122432945D01*
X116677712Y-122232053D01*
X116679232Y-122174000D01*
X116676303Y-122142116D01*
X116660920Y-121974714D01*
X116660658Y-121971859D01*
X116659879Y-121969096D01*
X116606335Y-121779244D01*
X116606333Y-121779240D01*
X116605557Y-121776487D01*
X116515776Y-121594428D01*
X116497437Y-121569869D01*
X116396037Y-121434078D01*
X116396036Y-121434076D01*
X116394320Y-121431779D01*
X116245258Y-121293987D01*
X116073581Y-121185667D01*
X115885039Y-121110446D01*
X115882233Y-121109888D01*
X115882230Y-121109887D01*
X115688752Y-121071402D01*
X115688750Y-121071402D01*
X115685946Y-121070844D01*
X115590353Y-121069593D01*
X115485833Y-121068224D01*
X115485828Y-121068224D01*
X115482971Y-121068187D01*
X115480151Y-121068672D01*
X115480146Y-121068672D01*
X115363751Y-121088673D01*
X115282910Y-121102564D01*
X115280222Y-121103556D01*
X115280217Y-121103557D01*
X115095151Y-121171832D01*
X115095148Y-121171833D01*
X115092463Y-121172824D01*
X114918010Y-121276612D01*
X114765392Y-121410455D01*
X114639720Y-121569869D01*
X114545203Y-121749515D01*
X114485007Y-121943378D01*
X114461148Y-122144964D01*
X114136565Y-122144964D01*
X114136303Y-122142116D01*
X114120920Y-121974714D01*
X114120658Y-121971859D01*
X114119879Y-121969096D01*
X114066335Y-121779244D01*
X114066333Y-121779240D01*
X114065557Y-121776487D01*
X113975776Y-121594428D01*
X113957437Y-121569869D01*
X113856037Y-121434078D01*
X113856036Y-121434076D01*
X113854320Y-121431779D01*
X113705258Y-121293987D01*
X113533581Y-121185667D01*
X113345039Y-121110446D01*
X113342233Y-121109888D01*
X113342230Y-121109887D01*
X113148752Y-121071402D01*
X113148750Y-121071402D01*
X113145946Y-121070844D01*
X113050353Y-121069593D01*
X112945833Y-121068224D01*
X112945828Y-121068224D01*
X112942971Y-121068187D01*
X112940151Y-121068672D01*
X112940146Y-121068672D01*
X112823751Y-121088673D01*
X112742910Y-121102564D01*
X112740222Y-121103556D01*
X112740217Y-121103557D01*
X112555151Y-121171832D01*
X112555148Y-121171833D01*
X112552463Y-121172824D01*
X112378010Y-121276612D01*
X112225392Y-121410455D01*
X112099720Y-121569869D01*
X112005203Y-121749515D01*
X111945007Y-121943378D01*
X111921148Y-122144964D01*
X111596565Y-122144964D01*
X111596303Y-122142116D01*
X111580920Y-121974714D01*
X111580658Y-121971859D01*
X111579879Y-121969096D01*
X111526335Y-121779244D01*
X111526333Y-121779240D01*
X111525557Y-121776487D01*
X111435776Y-121594428D01*
X111417437Y-121569869D01*
X111316037Y-121434078D01*
X111316036Y-121434076D01*
X111314320Y-121431779D01*
X111165258Y-121293987D01*
X110993581Y-121185667D01*
X110805039Y-121110446D01*
X110802233Y-121109888D01*
X110802230Y-121109887D01*
X110608752Y-121071402D01*
X110608750Y-121071402D01*
X110605946Y-121070844D01*
X110510353Y-121069593D01*
X110405833Y-121068224D01*
X110405828Y-121068224D01*
X110402971Y-121068187D01*
X110400151Y-121068672D01*
X110400146Y-121068672D01*
X110283751Y-121088673D01*
X110202910Y-121102564D01*
X110200222Y-121103556D01*
X110200217Y-121103557D01*
X110015151Y-121171832D01*
X110015148Y-121171833D01*
X110012463Y-121172824D01*
X109838010Y-121276612D01*
X109685392Y-121410455D01*
X109559720Y-121569869D01*
X109465203Y-121749515D01*
X109405007Y-121943378D01*
X109381148Y-122144964D01*
X109056565Y-122144964D01*
X109056303Y-122142116D01*
X109040920Y-121974714D01*
X109040658Y-121971859D01*
X109039879Y-121969096D01*
X108986335Y-121779244D01*
X108986333Y-121779240D01*
X108985557Y-121776487D01*
X108895776Y-121594428D01*
X108877437Y-121569869D01*
X108776037Y-121434078D01*
X108776036Y-121434076D01*
X108774320Y-121431779D01*
X108625258Y-121293987D01*
X108453581Y-121185667D01*
X108265039Y-121110446D01*
X108262233Y-121109888D01*
X108262230Y-121109887D01*
X108068752Y-121071402D01*
X108068750Y-121071402D01*
X108065946Y-121070844D01*
X107970353Y-121069593D01*
X107865833Y-121068224D01*
X107865828Y-121068224D01*
X107862971Y-121068187D01*
X107860151Y-121068672D01*
X107860146Y-121068672D01*
X107743751Y-121088673D01*
X107662910Y-121102564D01*
X107660222Y-121103556D01*
X107660217Y-121103557D01*
X107475151Y-121171832D01*
X107475148Y-121171833D01*
X107472463Y-121172824D01*
X107298010Y-121276612D01*
X107145392Y-121410455D01*
X107019720Y-121569869D01*
X106925203Y-121749515D01*
X106865007Y-121943378D01*
X106841148Y-122144964D01*
X105664000Y-122144964D01*
X105664000Y-116453831D01*
X106719000Y-116453831D01*
X106719332Y-116458362D01*
X106729317Y-116526192D01*
X106732165Y-116535359D01*
X106783650Y-116640220D01*
X106789578Y-116648502D01*
X106872038Y-116730819D01*
X106880333Y-116736735D01*
X106985288Y-116788038D01*
X106994452Y-116790870D01*
X107061644Y-116800672D01*
X107066157Y-116801000D01*
X107683569Y-116801000D01*
X107692359Y-116797359D01*
X107696000Y-116788569D01*
X108204000Y-116788569D01*
X108207641Y-116797359D01*
X108216431Y-116801000D01*
X108833831Y-116801000D01*
X108838362Y-116800668D01*
X108906192Y-116790683D01*
X108915359Y-116787835D01*
X109020220Y-116736350D01*
X109028502Y-116730422D01*
X109110819Y-116647962D01*
X109116735Y-116639667D01*
X109168038Y-116534712D01*
X109170870Y-116525548D01*
X109180672Y-116458356D01*
X109181000Y-116453843D01*
X109181000Y-115836431D01*
X109177359Y-115827641D01*
X109168569Y-115824000D01*
X108216431Y-115824000D01*
X108207641Y-115827641D01*
X108204000Y-115836431D01*
X108204000Y-116788569D01*
X107696000Y-116788569D01*
X107696000Y-115836431D01*
X107692359Y-115827641D01*
X107683569Y-115824000D01*
X106731431Y-115824000D01*
X106722641Y-115827641D01*
X106719000Y-115836431D01*
X106719000Y-116453831D01*
X105664000Y-116453831D01*
X105664000Y-115540964D01*
X109381148Y-115540964D01*
X109394424Y-115743522D01*
X109444392Y-115940269D01*
X109529377Y-116124616D01*
X109646533Y-116290389D01*
X109791938Y-116432035D01*
X109960720Y-116544812D01*
X110047124Y-116581934D01*
X110144588Y-116623808D01*
X110144590Y-116623809D01*
X110147228Y-116624942D01*
X110247641Y-116647663D01*
X110342426Y-116669111D01*
X110342429Y-116669111D01*
X110345216Y-116669742D01*
X110435164Y-116673276D01*
X110545193Y-116677600D01*
X110545197Y-116677600D01*
X110548053Y-116677712D01*
X110748945Y-116648584D01*
X110941165Y-116583334D01*
X111118276Y-116484147D01*
X111274345Y-116354345D01*
X111404147Y-116198276D01*
X111503334Y-116021165D01*
X111568584Y-115828945D01*
X111581385Y-115740659D01*
X111597449Y-115629869D01*
X111597449Y-115629864D01*
X111597712Y-115628053D01*
X111599232Y-115570000D01*
X111596565Y-115540964D01*
X111921148Y-115540964D01*
X111934424Y-115743522D01*
X111984392Y-115940269D01*
X112069377Y-116124616D01*
X112186533Y-116290389D01*
X112331938Y-116432035D01*
X112500720Y-116544812D01*
X112587124Y-116581934D01*
X112684588Y-116623808D01*
X112684590Y-116623809D01*
X112687228Y-116624942D01*
X112787641Y-116647663D01*
X112882426Y-116669111D01*
X112882429Y-116669111D01*
X112885216Y-116669742D01*
X112975164Y-116673276D01*
X113085193Y-116677600D01*
X113085197Y-116677600D01*
X113088053Y-116677712D01*
X113288945Y-116648584D01*
X113481165Y-116583334D01*
X113658276Y-116484147D01*
X113694727Y-116453831D01*
X116879000Y-116453831D01*
X116879332Y-116458362D01*
X116889317Y-116526192D01*
X116892165Y-116535359D01*
X116943650Y-116640220D01*
X116949578Y-116648502D01*
X117032038Y-116730819D01*
X117040333Y-116736735D01*
X117145288Y-116788038D01*
X117154452Y-116790870D01*
X117221644Y-116800672D01*
X117226157Y-116801000D01*
X117843569Y-116801000D01*
X117852359Y-116797359D01*
X117856000Y-116788569D01*
X117856000Y-115836431D01*
X117852359Y-115827641D01*
X117843569Y-115824000D01*
X116891431Y-115824000D01*
X116882641Y-115827641D01*
X116879000Y-115836431D01*
X116879000Y-116453831D01*
X113694727Y-116453831D01*
X113814345Y-116354345D01*
X113944147Y-116198276D01*
X114043334Y-116021165D01*
X114108584Y-115828945D01*
X114121385Y-115740659D01*
X114137449Y-115629869D01*
X114137449Y-115629864D01*
X114137712Y-115628053D01*
X114139232Y-115570000D01*
X114136303Y-115538116D01*
X114120920Y-115370714D01*
X114120658Y-115367859D01*
X114119366Y-115363277D01*
X114102527Y-115303569D01*
X116879000Y-115303569D01*
X116882641Y-115312359D01*
X116891431Y-115316000D01*
X117843569Y-115316000D01*
X117852359Y-115312359D01*
X117856000Y-115303569D01*
X117856000Y-114351431D01*
X117852359Y-114342641D01*
X117843569Y-114339000D01*
X117226169Y-114339000D01*
X117221638Y-114339332D01*
X117153808Y-114349317D01*
X117144641Y-114352165D01*
X117039780Y-114403650D01*
X117031498Y-114409578D01*
X116949181Y-114492038D01*
X116943265Y-114500333D01*
X116891962Y-114605288D01*
X116889130Y-114614452D01*
X116879328Y-114681644D01*
X116879000Y-114686157D01*
X116879000Y-115303569D01*
X114102527Y-115303569D01*
X114066335Y-115175244D01*
X114066333Y-115175240D01*
X114065557Y-115172487D01*
X113975776Y-114990428D01*
X113957437Y-114965869D01*
X113856037Y-114830078D01*
X113856036Y-114830076D01*
X113854320Y-114827779D01*
X113705258Y-114689987D01*
X113533581Y-114581667D01*
X113345039Y-114506446D01*
X113342233Y-114505888D01*
X113342230Y-114505887D01*
X113148752Y-114467402D01*
X113148750Y-114467402D01*
X113145946Y-114466844D01*
X113050353Y-114465593D01*
X112945833Y-114464224D01*
X112945828Y-114464224D01*
X112942971Y-114464187D01*
X112940151Y-114464672D01*
X112940146Y-114464672D01*
X112841954Y-114481545D01*
X112742910Y-114498564D01*
X112740222Y-114499556D01*
X112740217Y-114499557D01*
X112555151Y-114567832D01*
X112555148Y-114567833D01*
X112552463Y-114568824D01*
X112378010Y-114672612D01*
X112225392Y-114806455D01*
X112223616Y-114808708D01*
X112223615Y-114808709D01*
X112149865Y-114902261D01*
X112099720Y-114965869D01*
X112005203Y-115145515D01*
X111945007Y-115339378D01*
X111921148Y-115540964D01*
X111596565Y-115540964D01*
X111596303Y-115538116D01*
X111580920Y-115370714D01*
X111580658Y-115367859D01*
X111579366Y-115363277D01*
X111526335Y-115175244D01*
X111526333Y-115175240D01*
X111525557Y-115172487D01*
X111435776Y-114990428D01*
X111417437Y-114965869D01*
X111316037Y-114830078D01*
X111316036Y-114830076D01*
X111314320Y-114827779D01*
X111165258Y-114689987D01*
X110993581Y-114581667D01*
X110805039Y-114506446D01*
X110802233Y-114505888D01*
X110802230Y-114505887D01*
X110608752Y-114467402D01*
X110608750Y-114467402D01*
X110605946Y-114466844D01*
X110510353Y-114465593D01*
X110405833Y-114464224D01*
X110405828Y-114464224D01*
X110402971Y-114464187D01*
X110400151Y-114464672D01*
X110400146Y-114464672D01*
X110301954Y-114481545D01*
X110202910Y-114498564D01*
X110200222Y-114499556D01*
X110200217Y-114499557D01*
X110015151Y-114567832D01*
X110015148Y-114567833D01*
X110012463Y-114568824D01*
X109838010Y-114672612D01*
X109685392Y-114806455D01*
X109683616Y-114808708D01*
X109683615Y-114808709D01*
X109609865Y-114902261D01*
X109559720Y-114965869D01*
X109465203Y-115145515D01*
X109405007Y-115339378D01*
X109381148Y-115540964D01*
X105664000Y-115540964D01*
X105664000Y-115303569D01*
X106719000Y-115303569D01*
X106722641Y-115312359D01*
X106731431Y-115316000D01*
X107683569Y-115316000D01*
X107692359Y-115312359D01*
X107696000Y-115303569D01*
X108204000Y-115303569D01*
X108207641Y-115312359D01*
X108216431Y-115316000D01*
X109168569Y-115316000D01*
X109177359Y-115312359D01*
X109181000Y-115303569D01*
X109181000Y-114686169D01*
X109180668Y-114681638D01*
X109170683Y-114613808D01*
X109167835Y-114604641D01*
X109116350Y-114499780D01*
X109110422Y-114491498D01*
X109027962Y-114409181D01*
X109019667Y-114403265D01*
X108914712Y-114351962D01*
X108905548Y-114349130D01*
X108838356Y-114339328D01*
X108833843Y-114339000D01*
X108216431Y-114339000D01*
X108207641Y-114342641D01*
X108204000Y-114351431D01*
X108204000Y-115303569D01*
X107696000Y-115303569D01*
X107696000Y-114351431D01*
X107692359Y-114342641D01*
X107683569Y-114339000D01*
X107066169Y-114339000D01*
X107061638Y-114339332D01*
X106993808Y-114349317D01*
X106984641Y-114352165D01*
X106879780Y-114403650D01*
X106871498Y-114409578D01*
X106789181Y-114492038D01*
X106783265Y-114500333D01*
X106731962Y-114605288D01*
X106729130Y-114614452D01*
X106719328Y-114681644D01*
X106719000Y-114686157D01*
X106719000Y-115303569D01*
X105664000Y-115303569D01*
X105664000Y-110744000D01*
X114713445Y-110744000D01*
X114713980Y-110748064D01*
X114731159Y-110878545D01*
X114733977Y-110899953D01*
X114735545Y-110903738D01*
X114735545Y-110903739D01*
X114790403Y-111036178D01*
X114794172Y-111045277D01*
X114889929Y-111170071D01*
X114893174Y-111172561D01*
X114893175Y-111172562D01*
X114984591Y-111242708D01*
X115014722Y-111265828D01*
X115018505Y-111267395D01*
X115114387Y-111307110D01*
X115160047Y-111326023D01*
X115164103Y-111326557D01*
X115164107Y-111326558D01*
X115311936Y-111346020D01*
X115316000Y-111346555D01*
X115320064Y-111346020D01*
X115467893Y-111326558D01*
X115467897Y-111326557D01*
X115471953Y-111326023D01*
X115517614Y-111307110D01*
X115613495Y-111267395D01*
X115617278Y-111265828D01*
X115647409Y-111242708D01*
X115738825Y-111172562D01*
X115738826Y-111172561D01*
X115742071Y-111170071D01*
X115837828Y-111045277D01*
X115841597Y-111036178D01*
X115896455Y-110903739D01*
X115896455Y-110903738D01*
X115898023Y-110899953D01*
X115900842Y-110878545D01*
X115918020Y-110748064D01*
X115918555Y-110744000D01*
X115898023Y-110588047D01*
X115837828Y-110442723D01*
X115742071Y-110317929D01*
X115617278Y-110222172D01*
X115613495Y-110220605D01*
X115475734Y-110163543D01*
X115475733Y-110163543D01*
X115471953Y-110161977D01*
X115467897Y-110161443D01*
X115467893Y-110161442D01*
X115320064Y-110141980D01*
X115316000Y-110141445D01*
X115311936Y-110141980D01*
X115164110Y-110161442D01*
X115164109Y-110161442D01*
X115160047Y-110161977D01*
X115156262Y-110163545D01*
X115156261Y-110163545D01*
X115117414Y-110179636D01*
X115014723Y-110222172D01*
X114889929Y-110317929D01*
X114794172Y-110442723D01*
X114733977Y-110588047D01*
X114713445Y-110744000D01*
X105664000Y-110744000D01*
X105664000Y-100584000D01*
X114459445Y-100584000D01*
X114479977Y-100739953D01*
X114540172Y-100885277D01*
X114635929Y-101010071D01*
X114760722Y-101105828D01*
X114906047Y-101166023D01*
X114910103Y-101166557D01*
X114910107Y-101166558D01*
X115057936Y-101186020D01*
X115062000Y-101186555D01*
X115066064Y-101186020D01*
X115213893Y-101166558D01*
X115213897Y-101166557D01*
X115217953Y-101166023D01*
X115363278Y-101105828D01*
X115488071Y-101010071D01*
X115583828Y-100885277D01*
X115644023Y-100739953D01*
X115664555Y-100584000D01*
X115644023Y-100428047D01*
X115583828Y-100282723D01*
X115488071Y-100157929D01*
X115363278Y-100062172D01*
X115359495Y-100060605D01*
X115221734Y-100003543D01*
X115221733Y-100003543D01*
X115217953Y-100001977D01*
X115213897Y-100001443D01*
X115213893Y-100001442D01*
X115066064Y-99981980D01*
X115062000Y-99981445D01*
X115057936Y-99981980D01*
X114910110Y-100001442D01*
X114910109Y-100001442D01*
X114906047Y-100001977D01*
X114902262Y-100003545D01*
X114902261Y-100003545D01*
X114764508Y-100060604D01*
X114760723Y-100062172D01*
X114635929Y-100157929D01*
X114540172Y-100282723D01*
X114479977Y-100428047D01*
X114459445Y-100584000D01*
X105664000Y-100584000D01*
X105664000Y-98552000D01*
X115983445Y-98552000D01*
X116003977Y-98707953D01*
X116064172Y-98853277D01*
X116159929Y-98978071D01*
X116284722Y-99073828D01*
X116430047Y-99134023D01*
X116434103Y-99134557D01*
X116434107Y-99134558D01*
X116581936Y-99154020D01*
X116586000Y-99154555D01*
X116590064Y-99154020D01*
X116737893Y-99134558D01*
X116737897Y-99134557D01*
X116741953Y-99134023D01*
X116887278Y-99073828D01*
X117012071Y-98978071D01*
X117107828Y-98853277D01*
X117168023Y-98707953D01*
X117188555Y-98552000D01*
X117168023Y-98396047D01*
X117107828Y-98250723D01*
X117012071Y-98125929D01*
X116887278Y-98030172D01*
X116883495Y-98028605D01*
X116745734Y-97971543D01*
X116745733Y-97971543D01*
X116741953Y-97969977D01*
X116737897Y-97969443D01*
X116737893Y-97969442D01*
X116590064Y-97949980D01*
X116586000Y-97949445D01*
X116581936Y-97949980D01*
X116434110Y-97969442D01*
X116434109Y-97969442D01*
X116430047Y-97969977D01*
X116426262Y-97971545D01*
X116426261Y-97971545D01*
X116288508Y-98028604D01*
X116284723Y-98030172D01*
X116159929Y-98125929D01*
X116064172Y-98250723D01*
X116003977Y-98396047D01*
X115983445Y-98552000D01*
X105664000Y-98552000D01*
X105664000Y-97536000D01*
X114459445Y-97536000D01*
X114479977Y-97691953D01*
X114540172Y-97837277D01*
X114635929Y-97962071D01*
X114639174Y-97964561D01*
X114639175Y-97964562D01*
X114722638Y-98028605D01*
X114760722Y-98057828D01*
X114906047Y-98118023D01*
X114910103Y-98118557D01*
X114910107Y-98118558D01*
X115057936Y-98138020D01*
X115062000Y-98138555D01*
X115066064Y-98138020D01*
X115213893Y-98118558D01*
X115213897Y-98118557D01*
X115217953Y-98118023D01*
X115363278Y-98057828D01*
X115401362Y-98028605D01*
X115484825Y-97964562D01*
X115484826Y-97964561D01*
X115488071Y-97962071D01*
X115583828Y-97837277D01*
X115644023Y-97691953D01*
X115664555Y-97536000D01*
X115644023Y-97380047D01*
X115583828Y-97234723D01*
X115488071Y-97109929D01*
X115363278Y-97014172D01*
X115359495Y-97012605D01*
X115221734Y-96955543D01*
X115221733Y-96955543D01*
X115217953Y-96953977D01*
X115213897Y-96953443D01*
X115213893Y-96953442D01*
X115066064Y-96933980D01*
X115062000Y-96933445D01*
X115057936Y-96933980D01*
X114910110Y-96953442D01*
X114910109Y-96953442D01*
X114906047Y-96953977D01*
X114902262Y-96955545D01*
X114902261Y-96955545D01*
X114764508Y-97012604D01*
X114760723Y-97014172D01*
X114635929Y-97109929D01*
X114540172Y-97234723D01*
X114479977Y-97380047D01*
X114459445Y-97536000D01*
X105664000Y-97536000D01*
X105664000Y-96012000D01*
X114459445Y-96012000D01*
X114479977Y-96167953D01*
X114540172Y-96313277D01*
X114635929Y-96438071D01*
X114760722Y-96533828D01*
X114906047Y-96594023D01*
X114910103Y-96594557D01*
X114910107Y-96594558D01*
X115057936Y-96614020D01*
X115062000Y-96614555D01*
X115066064Y-96614020D01*
X115213893Y-96594558D01*
X115213897Y-96594557D01*
X115217953Y-96594023D01*
X115363278Y-96533828D01*
X115488071Y-96438071D01*
X115583828Y-96313277D01*
X115644023Y-96167953D01*
X115664555Y-96012000D01*
X115644023Y-95856047D01*
X115583828Y-95710723D01*
X115488071Y-95585929D01*
X115363278Y-95490172D01*
X115359495Y-95488605D01*
X115221734Y-95431543D01*
X115221733Y-95431543D01*
X115217953Y-95429977D01*
X115213897Y-95429443D01*
X115213893Y-95429442D01*
X115066064Y-95409980D01*
X115062000Y-95409445D01*
X115057936Y-95409980D01*
X114910110Y-95429442D01*
X114910109Y-95429442D01*
X114906047Y-95429977D01*
X114902262Y-95431545D01*
X114902261Y-95431545D01*
X114764508Y-95488604D01*
X114760723Y-95490172D01*
X114635929Y-95585929D01*
X114540172Y-95710723D01*
X114479977Y-95856047D01*
X114459445Y-96012000D01*
X105664000Y-96012000D01*
X105664000Y-91440000D01*
X114459445Y-91440000D01*
X114479977Y-91595953D01*
X114481545Y-91599738D01*
X114481545Y-91599739D01*
X114502574Y-91650508D01*
X114540172Y-91741277D01*
X114635929Y-91866071D01*
X114639174Y-91868561D01*
X114639175Y-91868562D01*
X114693896Y-91910551D01*
X114760722Y-91961828D01*
X114764505Y-91963395D01*
X114764508Y-91963396D01*
X114906047Y-92022023D01*
X114910103Y-92022557D01*
X114910107Y-92022558D01*
X115057936Y-92042020D01*
X115062000Y-92042555D01*
X115066064Y-92042020D01*
X115213893Y-92022558D01*
X115213897Y-92022557D01*
X115217953Y-92022023D01*
X115359493Y-91963396D01*
X115359495Y-91963395D01*
X115363278Y-91961828D01*
X115366525Y-91959336D01*
X115366531Y-91959333D01*
X115430105Y-91910551D01*
X115476310Y-91898171D01*
X115506199Y-91910551D01*
X115549708Y-91943936D01*
X115573025Y-91961828D01*
X115576809Y-91963395D01*
X115576810Y-91963396D01*
X115714569Y-92020457D01*
X115718350Y-92022023D01*
X115722406Y-92022557D01*
X115722410Y-92022558D01*
X115870239Y-92042020D01*
X115874303Y-92042555D01*
X115878367Y-92042020D01*
X116026196Y-92022558D01*
X116026200Y-92022557D01*
X116030256Y-92022023D01*
X116171796Y-91963396D01*
X116171798Y-91963395D01*
X116175581Y-91961828D01*
X116242407Y-91910551D01*
X116297128Y-91868562D01*
X116297129Y-91868561D01*
X116300374Y-91866071D01*
X116396131Y-91741277D01*
X116433729Y-91650508D01*
X116454758Y-91599739D01*
X116454758Y-91599738D01*
X116456326Y-91595953D01*
X116476858Y-91440000D01*
X116475366Y-91428665D01*
X116456861Y-91288110D01*
X116456861Y-91288109D01*
X116456326Y-91284047D01*
X116396131Y-91138723D01*
X116300374Y-91013929D01*
X116175581Y-90918172D01*
X116171798Y-90916605D01*
X116034037Y-90859543D01*
X116034036Y-90859543D01*
X116030256Y-90857977D01*
X116026200Y-90857443D01*
X116026196Y-90857442D01*
X115878367Y-90837980D01*
X115874303Y-90837445D01*
X115870239Y-90837980D01*
X115722413Y-90857442D01*
X115722412Y-90857442D01*
X115718350Y-90857977D01*
X115714565Y-90859545D01*
X115714564Y-90859545D01*
X115576811Y-90916604D01*
X115573026Y-90918172D01*
X115506198Y-90969451D01*
X115459994Y-90981830D01*
X115430107Y-90969451D01*
X115363278Y-90918172D01*
X115359494Y-90916605D01*
X115359493Y-90916604D01*
X115221734Y-90859543D01*
X115221733Y-90859543D01*
X115217953Y-90857977D01*
X115213897Y-90857443D01*
X115213893Y-90857442D01*
X115066064Y-90837980D01*
X115062000Y-90837445D01*
X115057936Y-90837980D01*
X114910110Y-90857442D01*
X114910109Y-90857442D01*
X114906047Y-90857977D01*
X114902262Y-90859545D01*
X114902261Y-90859545D01*
X114764508Y-90916604D01*
X114760723Y-90918172D01*
X114635929Y-91013929D01*
X114540172Y-91138723D01*
X114479977Y-91284047D01*
X114479442Y-91288109D01*
X114479442Y-91288110D01*
X114460937Y-91428665D01*
X114459445Y-91440000D01*
X105664000Y-91440000D01*
X105664000Y-87376000D01*
X114459445Y-87376000D01*
X114479977Y-87531953D01*
X114540172Y-87677277D01*
X114635929Y-87802071D01*
X114760722Y-87897828D01*
X114906047Y-87958023D01*
X114910103Y-87958557D01*
X114910107Y-87958558D01*
X115057936Y-87978020D01*
X115062000Y-87978555D01*
X115066064Y-87978020D01*
X115213893Y-87958558D01*
X115213897Y-87958557D01*
X115217953Y-87958023D01*
X115363278Y-87897828D01*
X115488071Y-87802071D01*
X115583828Y-87677277D01*
X115644023Y-87531953D01*
X115664555Y-87376000D01*
X115644023Y-87220047D01*
X115583828Y-87074723D01*
X115488071Y-86949929D01*
X115363278Y-86854172D01*
X115359495Y-86852605D01*
X115221734Y-86795543D01*
X115221733Y-86795543D01*
X115217953Y-86793977D01*
X115213897Y-86793443D01*
X115213893Y-86793442D01*
X115066064Y-86773980D01*
X115062000Y-86773445D01*
X115057936Y-86773980D01*
X114910110Y-86793442D01*
X114910109Y-86793442D01*
X114906047Y-86793977D01*
X114902262Y-86795545D01*
X114902261Y-86795545D01*
X114764508Y-86852604D01*
X114760723Y-86854172D01*
X114635929Y-86949929D01*
X114540172Y-87074723D01*
X114479977Y-87220047D01*
X114459445Y-87376000D01*
X105664000Y-87376000D01*
X105664000Y-84836000D01*
X106839445Y-84836000D01*
X106859977Y-84991953D01*
X106920172Y-85137277D01*
X107015929Y-85262071D01*
X107140722Y-85357828D01*
X107286047Y-85418023D01*
X107290103Y-85418557D01*
X107290107Y-85418558D01*
X107437936Y-85438020D01*
X107442000Y-85438555D01*
X107446064Y-85438020D01*
X107593893Y-85418558D01*
X107593897Y-85418557D01*
X107597953Y-85418023D01*
X107743278Y-85357828D01*
X107868071Y-85262071D01*
X107963828Y-85137277D01*
X108024023Y-84991953D01*
X108044555Y-84836000D01*
X108039748Y-84799487D01*
X108024558Y-84684110D01*
X108024558Y-84684109D01*
X108024023Y-84680047D01*
X108010085Y-84646396D01*
X107965396Y-84538508D01*
X107965395Y-84538507D01*
X107963828Y-84534723D01*
X107868071Y-84409929D01*
X107743278Y-84314172D01*
X107739495Y-84312605D01*
X107601734Y-84255543D01*
X107601733Y-84255543D01*
X107597953Y-84253977D01*
X107593897Y-84253443D01*
X107593893Y-84253442D01*
X107446064Y-84233980D01*
X107442000Y-84233445D01*
X107437936Y-84233980D01*
X107290110Y-84253442D01*
X107290109Y-84253442D01*
X107286047Y-84253977D01*
X107282262Y-84255545D01*
X107282261Y-84255545D01*
X107144508Y-84312604D01*
X107140723Y-84314172D01*
X107015929Y-84409929D01*
X106920172Y-84534723D01*
X106918605Y-84538507D01*
X106918604Y-84538508D01*
X106873916Y-84646396D01*
X106859977Y-84680047D01*
X106859442Y-84684109D01*
X106859442Y-84684110D01*
X106844252Y-84799487D01*
X106839445Y-84836000D01*
X105664000Y-84836000D01*
X105664000Y-82804000D01*
X114459445Y-82804000D01*
X114479977Y-82959953D01*
X114540172Y-83105277D01*
X114635929Y-83230071D01*
X114760722Y-83325828D01*
X114906047Y-83386023D01*
X114910103Y-83386557D01*
X114910107Y-83386558D01*
X115057936Y-83406020D01*
X115062000Y-83406555D01*
X115066064Y-83406020D01*
X115213893Y-83386558D01*
X115213897Y-83386557D01*
X115217953Y-83386023D01*
X115363278Y-83325828D01*
X115488071Y-83230071D01*
X115583828Y-83105277D01*
X115644023Y-82959953D01*
X115664555Y-82804000D01*
X115644023Y-82648047D01*
X115583828Y-82502723D01*
X115488071Y-82377929D01*
X115363278Y-82282172D01*
X115359495Y-82280605D01*
X115221734Y-82223543D01*
X115221733Y-82223543D01*
X115217953Y-82221977D01*
X115213897Y-82221443D01*
X115213893Y-82221442D01*
X115066064Y-82201980D01*
X115062000Y-82201445D01*
X115057936Y-82201980D01*
X114910110Y-82221442D01*
X114910109Y-82221442D01*
X114906047Y-82221977D01*
X114902262Y-82223545D01*
X114902261Y-82223545D01*
X114764508Y-82280604D01*
X114760723Y-82282172D01*
X114635929Y-82377929D01*
X114540172Y-82502723D01*
X114479977Y-82648047D01*
X114459445Y-82804000D01*
X105664000Y-82804000D01*
X105664000Y-81026000D01*
X114967445Y-81026000D01*
X114987977Y-81181953D01*
X115048172Y-81327277D01*
X115143929Y-81452071D01*
X115147174Y-81454561D01*
X115147175Y-81454562D01*
X115208418Y-81501555D01*
X115268722Y-81547828D01*
X115414047Y-81608023D01*
X115418103Y-81608557D01*
X115418107Y-81608558D01*
X115565936Y-81628020D01*
X115570000Y-81628555D01*
X115574064Y-81628020D01*
X115721893Y-81608558D01*
X115721897Y-81608557D01*
X115725953Y-81608023D01*
X115871278Y-81547828D01*
X115931582Y-81501555D01*
X115992825Y-81454562D01*
X115992826Y-81454561D01*
X115996071Y-81452071D01*
X116091828Y-81327277D01*
X116152023Y-81181953D01*
X116159819Y-81122737D01*
X116183736Y-81081310D01*
X116229942Y-81068930D01*
X116271369Y-81092847D01*
X116279526Y-81106977D01*
X116318172Y-81200277D01*
X116413929Y-81325071D01*
X116538722Y-81420828D01*
X116542505Y-81422395D01*
X116606309Y-81448823D01*
X116684047Y-81481023D01*
X116688103Y-81481557D01*
X116688107Y-81481558D01*
X116830975Y-81500367D01*
X116867011Y-81518138D01*
X120377194Y-85028322D01*
X120395500Y-85072516D01*
X120395500Y-107840673D01*
X120377194Y-107884867D01*
X120333000Y-107903173D01*
X120294953Y-107890258D01*
X120192531Y-107811667D01*
X120192525Y-107811664D01*
X120189278Y-107809172D01*
X120185495Y-107807605D01*
X120047734Y-107750543D01*
X120047733Y-107750543D01*
X120043953Y-107748977D01*
X120039897Y-107748443D01*
X120039893Y-107748442D01*
X119892064Y-107728980D01*
X119888000Y-107728445D01*
X119883936Y-107728980D01*
X119736110Y-107748442D01*
X119736109Y-107748442D01*
X119732047Y-107748977D01*
X119728262Y-107750545D01*
X119728261Y-107750545D01*
X119590508Y-107807604D01*
X119586723Y-107809172D01*
X119461929Y-107904929D01*
X119366172Y-108029723D01*
X119305977Y-108175047D01*
X119285445Y-108331000D01*
X119305977Y-108486953D01*
X119366172Y-108632277D01*
X119461929Y-108757071D01*
X119465174Y-108759561D01*
X119465175Y-108759562D01*
X119496085Y-108783280D01*
X119586722Y-108852828D01*
X119732047Y-108913023D01*
X119736103Y-108913557D01*
X119736107Y-108913558D01*
X119883936Y-108933020D01*
X119888000Y-108933555D01*
X119892064Y-108933020D01*
X120039893Y-108913558D01*
X120039897Y-108913557D01*
X120043953Y-108913023D01*
X120189278Y-108852828D01*
X120192525Y-108850336D01*
X120192531Y-108850333D01*
X120294953Y-108771742D01*
X120341158Y-108759362D01*
X120382585Y-108783280D01*
X120395500Y-108821327D01*
X120395500Y-109745484D01*
X120377194Y-109789678D01*
X119065676Y-111101197D01*
X119054832Y-111109861D01*
X119047042Y-111114776D01*
X119044098Y-111118109D01*
X119044095Y-111118112D01*
X119010107Y-111156597D01*
X119007455Y-111159418D01*
X118994618Y-111172255D01*
X118993285Y-111174033D01*
X118993282Y-111174037D01*
X118986814Y-111182666D01*
X118983649Y-111186553D01*
X118953571Y-111220611D01*
X118953569Y-111220614D01*
X118950622Y-111223951D01*
X118948729Y-111227983D01*
X118944537Y-111236911D01*
X118937976Y-111247831D01*
X118929384Y-111259295D01*
X118911860Y-111306039D01*
X118909926Y-111310630D01*
X118888719Y-111355800D01*
X118888034Y-111360202D01*
X118886516Y-111369948D01*
X118883283Y-111382270D01*
X118879818Y-111391513D01*
X118879817Y-111391517D01*
X118878255Y-111395684D01*
X118877925Y-111400123D01*
X118877925Y-111400124D01*
X118874559Y-111445433D01*
X118873986Y-111450421D01*
X118871872Y-111463992D01*
X118871871Y-111464002D01*
X118871500Y-111466386D01*
X118871500Y-111484270D01*
X118871328Y-111488901D01*
X118867461Y-111540941D01*
X118868390Y-111545293D01*
X118870123Y-111553412D01*
X118871500Y-111566459D01*
X118871500Y-114276500D01*
X118853194Y-114320694D01*
X118809000Y-114339000D01*
X118376431Y-114339000D01*
X118367641Y-114342641D01*
X118364000Y-114351431D01*
X118364000Y-116788569D01*
X118367641Y-116797359D01*
X118376431Y-116801000D01*
X118809000Y-116801000D01*
X118853194Y-116819306D01*
X118871500Y-116863500D01*
X118871500Y-121235066D01*
X118853194Y-121279260D01*
X118809000Y-121297566D01*
X118775649Y-121287924D01*
X118691308Y-121234709D01*
X118613581Y-121185667D01*
X118425039Y-121110446D01*
X118422233Y-121109888D01*
X118422230Y-121109887D01*
X118228752Y-121071402D01*
X118228750Y-121071402D01*
X118225946Y-121070844D01*
X118130353Y-121069593D01*
X118025833Y-121068224D01*
X118025828Y-121068224D01*
X118022971Y-121068187D01*
X118020151Y-121068672D01*
X118020146Y-121068672D01*
X117903751Y-121088673D01*
X117822910Y-121102564D01*
X117820222Y-121103556D01*
X117820217Y-121103557D01*
X117635151Y-121171832D01*
X117635148Y-121171833D01*
X117632463Y-121172824D01*
X117458010Y-121276612D01*
X117305392Y-121410455D01*
X117179720Y-121569869D01*
X117085203Y-121749515D01*
X117025007Y-121943378D01*
X117001148Y-122144964D01*
X117014424Y-122347522D01*
X117064392Y-122544269D01*
X117149377Y-122728616D01*
X117266533Y-122894389D01*
X117411938Y-123036035D01*
X117580720Y-123148812D01*
X117667124Y-123185934D01*
X117764588Y-123227808D01*
X117764590Y-123227809D01*
X117767228Y-123228942D01*
X117867641Y-123251663D01*
X117962426Y-123273111D01*
X117962429Y-123273111D01*
X117965216Y-123273742D01*
X118055164Y-123277276D01*
X118165193Y-123281600D01*
X118165197Y-123281600D01*
X118168053Y-123281712D01*
X118368945Y-123252584D01*
X118561165Y-123187334D01*
X118738276Y-123088147D01*
X118769037Y-123062564D01*
X118814719Y-123048379D01*
X118857053Y-123070652D01*
X118871500Y-123110617D01*
X118871500Y-123207484D01*
X118853194Y-123251678D01*
X118473173Y-123631699D01*
X118428979Y-123650005D01*
X118416786Y-123648804D01*
X118228752Y-123611402D01*
X118228750Y-123611402D01*
X118225946Y-123610844D01*
X118130353Y-123609593D01*
X118025833Y-123608224D01*
X118025828Y-123608224D01*
X118022971Y-123608187D01*
X118020151Y-123608672D01*
X118020146Y-123608672D01*
X117903751Y-123628673D01*
X117822910Y-123642564D01*
X117820222Y-123643556D01*
X117820217Y-123643557D01*
X117635151Y-123711832D01*
X117635148Y-123711833D01*
X117632463Y-123712824D01*
X117458010Y-123816612D01*
X117305392Y-123950455D01*
X117179720Y-124109869D01*
X117085203Y-124289515D01*
X117084356Y-124292242D01*
X117084355Y-124292245D01*
X117046242Y-124414989D01*
X117025007Y-124483378D01*
X117001148Y-124684964D01*
X117014424Y-124887522D01*
X117064392Y-125084269D01*
X117149377Y-125268616D01*
X117266533Y-125434389D01*
X117411938Y-125576035D01*
X117580720Y-125688812D01*
X117667124Y-125725934D01*
X117764588Y-125767808D01*
X117764590Y-125767809D01*
X117767228Y-125768942D01*
X117867641Y-125791663D01*
X117962426Y-125813111D01*
X117962429Y-125813111D01*
X117965216Y-125813742D01*
X118055164Y-125817276D01*
X118165193Y-125821600D01*
X118165197Y-125821600D01*
X118168053Y-125821712D01*
X118368945Y-125792584D01*
X118561165Y-125727334D01*
X118738276Y-125628147D01*
X118894345Y-125498345D01*
X119024147Y-125342276D01*
X119123334Y-125165165D01*
X119188584Y-124972945D01*
X119217712Y-124772053D01*
X119219232Y-124714000D01*
X119216565Y-124684964D01*
X119541148Y-124684964D01*
X119554424Y-124887522D01*
X119604392Y-125084269D01*
X119689377Y-125268616D01*
X119806533Y-125434389D01*
X119951938Y-125576035D01*
X120120720Y-125688812D01*
X120207124Y-125725934D01*
X120304588Y-125767808D01*
X120304590Y-125767809D01*
X120307228Y-125768942D01*
X120407641Y-125791663D01*
X120502426Y-125813111D01*
X120502429Y-125813111D01*
X120505216Y-125813742D01*
X120595164Y-125817276D01*
X120705193Y-125821600D01*
X120705197Y-125821600D01*
X120708053Y-125821712D01*
X120908945Y-125792584D01*
X121101165Y-125727334D01*
X121278276Y-125628147D01*
X121434345Y-125498345D01*
X121564147Y-125342276D01*
X121663334Y-125165165D01*
X121728584Y-124972945D01*
X121757712Y-124772053D01*
X121759232Y-124714000D01*
X121756565Y-124684964D01*
X122081148Y-124684964D01*
X122094424Y-124887522D01*
X122144392Y-125084269D01*
X122229377Y-125268616D01*
X122346533Y-125434389D01*
X122491938Y-125576035D01*
X122660720Y-125688812D01*
X122747124Y-125725934D01*
X122844588Y-125767808D01*
X122844590Y-125767809D01*
X122847228Y-125768942D01*
X122947641Y-125791663D01*
X123042426Y-125813111D01*
X123042429Y-125813111D01*
X123045216Y-125813742D01*
X123135164Y-125817276D01*
X123245193Y-125821600D01*
X123245197Y-125821600D01*
X123248053Y-125821712D01*
X123448945Y-125792584D01*
X123641165Y-125727334D01*
X123818276Y-125628147D01*
X123974345Y-125498345D01*
X124104147Y-125342276D01*
X124203334Y-125165165D01*
X124267700Y-124975548D01*
X124525657Y-124975548D01*
X124568113Y-125133998D01*
X124569973Y-125139108D01*
X124658697Y-125329377D01*
X124661418Y-125334088D01*
X124781830Y-125506056D01*
X124785329Y-125510226D01*
X124933774Y-125658671D01*
X124937944Y-125662170D01*
X125109912Y-125782582D01*
X125114623Y-125785303D01*
X125304892Y-125874027D01*
X125310002Y-125875887D01*
X125463992Y-125917149D01*
X125473425Y-125915907D01*
X125476000Y-125912551D01*
X125476000Y-125907935D01*
X125984000Y-125907935D01*
X125987641Y-125916725D01*
X125991548Y-125918343D01*
X126149998Y-125875887D01*
X126155108Y-125874027D01*
X126345377Y-125785303D01*
X126350088Y-125782582D01*
X126522056Y-125662170D01*
X126526226Y-125658671D01*
X126674671Y-125510226D01*
X126678170Y-125506056D01*
X126798582Y-125334088D01*
X126801303Y-125329377D01*
X126890027Y-125139108D01*
X126891887Y-125133998D01*
X126933149Y-124980008D01*
X126931907Y-124970575D01*
X126928551Y-124968000D01*
X125996431Y-124968000D01*
X125987641Y-124971641D01*
X125984000Y-124980431D01*
X125984000Y-125907935D01*
X125476000Y-125907935D01*
X125476000Y-124980431D01*
X125472359Y-124971641D01*
X125463569Y-124968000D01*
X124536065Y-124968000D01*
X124527275Y-124971641D01*
X124525657Y-124975548D01*
X124267700Y-124975548D01*
X124268584Y-124972945D01*
X124297712Y-124772053D01*
X124299232Y-124714000D01*
X124296303Y-124682116D01*
X124280920Y-124514714D01*
X124280658Y-124511859D01*
X124279879Y-124509096D01*
X124262646Y-124447992D01*
X124526851Y-124447992D01*
X124528093Y-124457425D01*
X124531449Y-124460000D01*
X125463569Y-124460000D01*
X125472359Y-124456359D01*
X125476000Y-124447569D01*
X125984000Y-124447569D01*
X125987641Y-124456359D01*
X125996431Y-124460000D01*
X126923935Y-124460000D01*
X126932725Y-124456359D01*
X126934343Y-124452452D01*
X126891887Y-124294002D01*
X126890027Y-124288892D01*
X126801303Y-124098623D01*
X126798582Y-124093912D01*
X126678170Y-123921944D01*
X126674671Y-123917774D01*
X126526226Y-123769329D01*
X126522056Y-123765830D01*
X126350088Y-123645418D01*
X126345377Y-123642697D01*
X126155108Y-123553973D01*
X126149998Y-123552113D01*
X125996008Y-123510851D01*
X125986575Y-123512093D01*
X125984000Y-123515449D01*
X125984000Y-124447569D01*
X125476000Y-124447569D01*
X125476000Y-123520065D01*
X125472359Y-123511275D01*
X125468452Y-123509657D01*
X125310002Y-123552113D01*
X125304892Y-123553973D01*
X125114623Y-123642697D01*
X125109912Y-123645418D01*
X124937944Y-123765830D01*
X124933774Y-123769329D01*
X124785329Y-123917774D01*
X124781830Y-123921944D01*
X124661418Y-124093912D01*
X124658697Y-124098623D01*
X124569973Y-124288892D01*
X124568113Y-124294002D01*
X124526851Y-124447992D01*
X124262646Y-124447992D01*
X124226335Y-124319244D01*
X124226333Y-124319240D01*
X124225557Y-124316487D01*
X124135776Y-124134428D01*
X124117437Y-124109869D01*
X124016037Y-123974078D01*
X124016036Y-123974076D01*
X124014320Y-123971779D01*
X123865258Y-123833987D01*
X123693581Y-123725667D01*
X123505039Y-123650446D01*
X123502233Y-123649888D01*
X123502230Y-123649887D01*
X123308752Y-123611402D01*
X123308750Y-123611402D01*
X123305946Y-123610844D01*
X123210353Y-123609593D01*
X123105833Y-123608224D01*
X123105828Y-123608224D01*
X123102971Y-123608187D01*
X123100151Y-123608672D01*
X123100146Y-123608672D01*
X122983751Y-123628673D01*
X122902910Y-123642564D01*
X122900222Y-123643556D01*
X122900217Y-123643557D01*
X122715151Y-123711832D01*
X122715148Y-123711833D01*
X122712463Y-123712824D01*
X122538010Y-123816612D01*
X122385392Y-123950455D01*
X122259720Y-124109869D01*
X122165203Y-124289515D01*
X122164356Y-124292242D01*
X122164355Y-124292245D01*
X122126242Y-124414989D01*
X122105007Y-124483378D01*
X122081148Y-124684964D01*
X121756565Y-124684964D01*
X121756303Y-124682116D01*
X121740920Y-124514714D01*
X121740658Y-124511859D01*
X121739879Y-124509096D01*
X121686335Y-124319244D01*
X121686333Y-124319240D01*
X121685557Y-124316487D01*
X121595776Y-124134428D01*
X121577437Y-124109869D01*
X121476037Y-123974078D01*
X121476036Y-123974076D01*
X121474320Y-123971779D01*
X121325258Y-123833987D01*
X121153581Y-123725667D01*
X120965039Y-123650446D01*
X120962233Y-123649888D01*
X120962230Y-123649887D01*
X120768752Y-123611402D01*
X120768750Y-123611402D01*
X120765946Y-123610844D01*
X120670353Y-123609593D01*
X120565833Y-123608224D01*
X120565828Y-123608224D01*
X120562971Y-123608187D01*
X120560151Y-123608672D01*
X120560146Y-123608672D01*
X120443751Y-123628673D01*
X120362910Y-123642564D01*
X120360222Y-123643556D01*
X120360217Y-123643557D01*
X120175151Y-123711832D01*
X120175148Y-123711833D01*
X120172463Y-123712824D01*
X119998010Y-123816612D01*
X119845392Y-123950455D01*
X119719720Y-124109869D01*
X119625203Y-124289515D01*
X119624356Y-124292242D01*
X119624355Y-124292245D01*
X119586242Y-124414989D01*
X119565007Y-124483378D01*
X119541148Y-124684964D01*
X119216565Y-124684964D01*
X119216303Y-124682116D01*
X119200920Y-124514714D01*
X119200658Y-124511859D01*
X119199879Y-124509096D01*
X119173338Y-124414989D01*
X119178960Y-124367485D01*
X119189297Y-124353830D01*
X119694324Y-123848803D01*
X119705168Y-123840139D01*
X119712958Y-123835224D01*
X119715902Y-123831891D01*
X119715905Y-123831888D01*
X119749893Y-123793403D01*
X119752545Y-123790582D01*
X119765382Y-123777745D01*
X119766718Y-123775963D01*
X119773186Y-123767334D01*
X119776351Y-123763447D01*
X119806429Y-123729389D01*
X119806431Y-123729386D01*
X119809378Y-123726049D01*
X119814900Y-123714288D01*
X119815463Y-123713089D01*
X119822024Y-123702169D01*
X119827946Y-123694267D01*
X119830616Y-123690705D01*
X119832179Y-123686536D01*
X119848132Y-123643981D01*
X119850080Y-123639359D01*
X119869387Y-123598235D01*
X119869388Y-123598233D01*
X119871281Y-123594200D01*
X119871966Y-123589801D01*
X119871967Y-123589798D01*
X119873485Y-123580046D01*
X119876716Y-123567729D01*
X119881744Y-123554316D01*
X119884289Y-123520065D01*
X119885441Y-123504571D01*
X119886013Y-123499588D01*
X119888128Y-123486003D01*
X119888500Y-123483614D01*
X119888500Y-123465726D01*
X119888672Y-123461094D01*
X119892209Y-123413498D01*
X119892539Y-123409059D01*
X119889877Y-123396588D01*
X119888500Y-123383541D01*
X119888500Y-123110577D01*
X119906806Y-123066383D01*
X119951000Y-123048077D01*
X119985723Y-123058610D01*
X120063557Y-123110617D01*
X120120720Y-123148812D01*
X120207124Y-123185934D01*
X120304588Y-123227808D01*
X120304590Y-123227809D01*
X120307228Y-123228942D01*
X120407641Y-123251663D01*
X120502426Y-123273111D01*
X120502429Y-123273111D01*
X120505216Y-123273742D01*
X120595164Y-123277276D01*
X120705193Y-123281600D01*
X120705197Y-123281600D01*
X120708053Y-123281712D01*
X120908945Y-123252584D01*
X121101165Y-123187334D01*
X121278276Y-123088147D01*
X121434345Y-122958345D01*
X121564147Y-122802276D01*
X121663334Y-122625165D01*
X121728584Y-122432945D01*
X121757712Y-122232053D01*
X121759232Y-122174000D01*
X121756565Y-122144964D01*
X122081148Y-122144964D01*
X122094424Y-122347522D01*
X122144392Y-122544269D01*
X122229377Y-122728616D01*
X122346533Y-122894389D01*
X122491938Y-123036035D01*
X122660720Y-123148812D01*
X122747124Y-123185934D01*
X122844588Y-123227808D01*
X122844590Y-123227809D01*
X122847228Y-123228942D01*
X122947641Y-123251663D01*
X123042426Y-123273111D01*
X123042429Y-123273111D01*
X123045216Y-123273742D01*
X123135164Y-123277276D01*
X123245193Y-123281600D01*
X123245197Y-123281600D01*
X123248053Y-123281712D01*
X123448945Y-123252584D01*
X123641165Y-123187334D01*
X123818276Y-123088147D01*
X123974345Y-122958345D01*
X124104147Y-122802276D01*
X124203334Y-122625165D01*
X124268584Y-122432945D01*
X124297712Y-122232053D01*
X124299232Y-122174000D01*
X124296565Y-122144964D01*
X124621148Y-122144964D01*
X124634424Y-122347522D01*
X124684392Y-122544269D01*
X124769377Y-122728616D01*
X124886533Y-122894389D01*
X125031938Y-123036035D01*
X125200720Y-123148812D01*
X125287124Y-123185934D01*
X125384588Y-123227808D01*
X125384590Y-123227809D01*
X125387228Y-123228942D01*
X125487641Y-123251663D01*
X125582426Y-123273111D01*
X125582429Y-123273111D01*
X125585216Y-123273742D01*
X125675164Y-123277276D01*
X125785193Y-123281600D01*
X125785197Y-123281600D01*
X125788053Y-123281712D01*
X125988945Y-123252584D01*
X126181165Y-123187334D01*
X126358276Y-123088147D01*
X126514345Y-122958345D01*
X126644147Y-122802276D01*
X126743334Y-122625165D01*
X126808584Y-122432945D01*
X126837712Y-122232053D01*
X126839232Y-122174000D01*
X126836303Y-122142116D01*
X126820920Y-121974714D01*
X126820658Y-121971859D01*
X126819879Y-121969096D01*
X126766335Y-121779244D01*
X126766333Y-121779240D01*
X126765557Y-121776487D01*
X126675776Y-121594428D01*
X126657437Y-121569869D01*
X126556037Y-121434078D01*
X126556036Y-121434076D01*
X126554320Y-121431779D01*
X126405258Y-121293987D01*
X126233581Y-121185667D01*
X126045039Y-121110446D01*
X126042233Y-121109888D01*
X126042230Y-121109887D01*
X125848752Y-121071402D01*
X125848750Y-121071402D01*
X125845946Y-121070844D01*
X125750353Y-121069593D01*
X125645833Y-121068224D01*
X125645828Y-121068224D01*
X125642971Y-121068187D01*
X125640151Y-121068672D01*
X125640146Y-121068672D01*
X125523751Y-121088673D01*
X125442910Y-121102564D01*
X125440222Y-121103556D01*
X125440217Y-121103557D01*
X125255151Y-121171832D01*
X125255148Y-121171833D01*
X125252463Y-121172824D01*
X125078010Y-121276612D01*
X124925392Y-121410455D01*
X124799720Y-121569869D01*
X124705203Y-121749515D01*
X124645007Y-121943378D01*
X124621148Y-122144964D01*
X124296565Y-122144964D01*
X124296303Y-122142116D01*
X124280920Y-121974714D01*
X124280658Y-121971859D01*
X124279879Y-121969096D01*
X124226335Y-121779244D01*
X124226333Y-121779240D01*
X124225557Y-121776487D01*
X124135776Y-121594428D01*
X124117437Y-121569869D01*
X124016037Y-121434078D01*
X124016036Y-121434076D01*
X124014320Y-121431779D01*
X123865258Y-121293987D01*
X123693581Y-121185667D01*
X123505039Y-121110446D01*
X123502233Y-121109888D01*
X123502230Y-121109887D01*
X123308752Y-121071402D01*
X123308750Y-121071402D01*
X123305946Y-121070844D01*
X123210353Y-121069593D01*
X123105833Y-121068224D01*
X123105828Y-121068224D01*
X123102971Y-121068187D01*
X123100151Y-121068672D01*
X123100146Y-121068672D01*
X122983751Y-121088673D01*
X122902910Y-121102564D01*
X122900222Y-121103556D01*
X122900217Y-121103557D01*
X122715151Y-121171832D01*
X122715148Y-121171833D01*
X122712463Y-121172824D01*
X122538010Y-121276612D01*
X122385392Y-121410455D01*
X122259720Y-121569869D01*
X122165203Y-121749515D01*
X122105007Y-121943378D01*
X122081148Y-122144964D01*
X121756565Y-122144964D01*
X121756303Y-122142116D01*
X121740920Y-121974714D01*
X121740658Y-121971859D01*
X121739879Y-121969096D01*
X121686335Y-121779244D01*
X121686333Y-121779240D01*
X121685557Y-121776487D01*
X121595776Y-121594428D01*
X121577437Y-121569869D01*
X121476037Y-121434078D01*
X121476036Y-121434076D01*
X121474320Y-121431779D01*
X121325258Y-121293987D01*
X121153581Y-121185667D01*
X120965039Y-121110446D01*
X120962233Y-121109888D01*
X120962230Y-121109887D01*
X120768752Y-121071402D01*
X120768750Y-121071402D01*
X120765946Y-121070844D01*
X120670353Y-121069593D01*
X120565833Y-121068224D01*
X120565828Y-121068224D01*
X120562971Y-121068187D01*
X120560151Y-121068672D01*
X120560146Y-121068672D01*
X120443751Y-121088673D01*
X120362910Y-121102564D01*
X120360222Y-121103556D01*
X120360217Y-121103557D01*
X120175151Y-121171832D01*
X120175148Y-121171833D01*
X120172463Y-121172824D01*
X119998010Y-121276612D01*
X119995853Y-121278504D01*
X119992208Y-121281700D01*
X119946910Y-121297075D01*
X119904009Y-121275917D01*
X119888500Y-121234709D01*
X119888500Y-119507000D01*
X134906445Y-119507000D01*
X134926977Y-119662953D01*
X134987172Y-119808277D01*
X135082929Y-119933071D01*
X135207722Y-120028828D01*
X135353047Y-120089023D01*
X135357103Y-120089557D01*
X135357107Y-120089558D01*
X135504936Y-120109020D01*
X135509000Y-120109555D01*
X135513064Y-120109020D01*
X135660893Y-120089558D01*
X135660897Y-120089557D01*
X135664953Y-120089023D01*
X135810278Y-120028828D01*
X135935071Y-119933071D01*
X136030828Y-119808277D01*
X136091023Y-119662953D01*
X136111555Y-119507000D01*
X136091023Y-119351047D01*
X136030828Y-119205723D01*
X135935071Y-119080929D01*
X135810278Y-118985172D01*
X135806495Y-118983605D01*
X135668734Y-118926543D01*
X135668733Y-118926543D01*
X135664953Y-118924977D01*
X135660897Y-118924443D01*
X135660893Y-118924442D01*
X135513064Y-118904980D01*
X135509000Y-118904445D01*
X135504936Y-118904980D01*
X135357110Y-118924442D01*
X135357109Y-118924442D01*
X135353047Y-118924977D01*
X135349262Y-118926545D01*
X135349261Y-118926545D01*
X135211508Y-118983604D01*
X135207723Y-118985172D01*
X135082929Y-119080929D01*
X134987172Y-119205723D01*
X134926977Y-119351047D01*
X134906445Y-119507000D01*
X119888500Y-119507000D01*
X119888500Y-118364000D01*
X131045645Y-118364000D01*
X131066177Y-118519953D01*
X131126372Y-118665277D01*
X131222129Y-118790071D01*
X131346922Y-118885828D01*
X131350705Y-118887395D01*
X131445218Y-118926543D01*
X131492247Y-118946023D01*
X131496303Y-118946557D01*
X131496307Y-118946558D01*
X131644136Y-118966020D01*
X131648200Y-118966555D01*
X131652264Y-118966020D01*
X131800093Y-118946558D01*
X131800097Y-118946557D01*
X131804153Y-118946023D01*
X131851183Y-118926543D01*
X131945695Y-118887395D01*
X131949478Y-118885828D01*
X132074271Y-118790071D01*
X132170028Y-118665277D01*
X132230223Y-118519953D01*
X132250755Y-118364000D01*
X132620445Y-118364000D01*
X132640977Y-118519953D01*
X132701172Y-118665277D01*
X132796929Y-118790071D01*
X132921722Y-118885828D01*
X132925505Y-118887395D01*
X133020018Y-118926543D01*
X133067047Y-118946023D01*
X133071103Y-118946557D01*
X133071107Y-118946558D01*
X133218936Y-118966020D01*
X133223000Y-118966555D01*
X133227064Y-118966020D01*
X133374893Y-118946558D01*
X133374897Y-118946557D01*
X133378953Y-118946023D01*
X133425983Y-118926543D01*
X133520495Y-118887395D01*
X133524278Y-118885828D01*
X133649071Y-118790071D01*
X133744828Y-118665277D01*
X133805023Y-118519953D01*
X133825555Y-118364000D01*
X133805023Y-118208047D01*
X133744828Y-118062723D01*
X133649071Y-117937929D01*
X133524278Y-117842172D01*
X133520495Y-117840605D01*
X133382734Y-117783543D01*
X133382733Y-117783543D01*
X133378953Y-117781977D01*
X133374897Y-117781443D01*
X133374893Y-117781442D01*
X133227064Y-117761980D01*
X133223000Y-117761445D01*
X133218936Y-117761980D01*
X133071110Y-117781442D01*
X133071109Y-117781442D01*
X133067047Y-117781977D01*
X133063262Y-117783545D01*
X133063261Y-117783545D01*
X132925508Y-117840604D01*
X132921723Y-117842172D01*
X132796929Y-117937929D01*
X132701172Y-118062723D01*
X132640977Y-118208047D01*
X132620445Y-118364000D01*
X132250755Y-118364000D01*
X132230223Y-118208047D01*
X132170028Y-118062723D01*
X132074271Y-117937929D01*
X131949478Y-117842172D01*
X131945695Y-117840605D01*
X131807934Y-117783543D01*
X131807933Y-117783543D01*
X131804153Y-117781977D01*
X131800097Y-117781443D01*
X131800093Y-117781442D01*
X131652264Y-117761980D01*
X131648200Y-117761445D01*
X131644136Y-117761980D01*
X131496310Y-117781442D01*
X131496309Y-117781442D01*
X131492247Y-117781977D01*
X131488462Y-117783545D01*
X131488461Y-117783545D01*
X131350708Y-117840604D01*
X131346923Y-117842172D01*
X131222129Y-117937929D01*
X131126372Y-118062723D01*
X131066177Y-118208047D01*
X131045645Y-118364000D01*
X119888500Y-118364000D01*
X119888500Y-116506577D01*
X119906806Y-116462383D01*
X119951000Y-116444077D01*
X119985723Y-116454610D01*
X120092853Y-116526192D01*
X120120720Y-116544812D01*
X120207124Y-116581934D01*
X120304588Y-116623808D01*
X120304590Y-116623809D01*
X120307228Y-116624942D01*
X120407641Y-116647663D01*
X120502426Y-116669111D01*
X120502429Y-116669111D01*
X120505216Y-116669742D01*
X120595164Y-116673276D01*
X120705193Y-116677600D01*
X120705197Y-116677600D01*
X120708053Y-116677712D01*
X120908945Y-116648584D01*
X121101165Y-116583334D01*
X121278276Y-116484147D01*
X121434345Y-116354345D01*
X121564147Y-116198276D01*
X121663334Y-116021165D01*
X121728584Y-115828945D01*
X121741385Y-115740659D01*
X121757449Y-115629869D01*
X121757449Y-115629864D01*
X121757712Y-115628053D01*
X121759232Y-115570000D01*
X121756565Y-115540964D01*
X122081148Y-115540964D01*
X122094424Y-115743522D01*
X122144392Y-115940269D01*
X122229377Y-116124616D01*
X122346533Y-116290389D01*
X122491938Y-116432035D01*
X122660720Y-116544812D01*
X122747124Y-116581934D01*
X122844588Y-116623808D01*
X122844590Y-116623809D01*
X122847228Y-116624942D01*
X122947641Y-116647663D01*
X123042426Y-116669111D01*
X123042429Y-116669111D01*
X123045216Y-116669742D01*
X123135164Y-116673276D01*
X123245193Y-116677600D01*
X123245197Y-116677600D01*
X123248053Y-116677712D01*
X123448945Y-116648584D01*
X123641165Y-116583334D01*
X123818276Y-116484147D01*
X123974345Y-116354345D01*
X124104147Y-116198276D01*
X124203334Y-116021165D01*
X124268584Y-115828945D01*
X124281385Y-115740659D01*
X124297449Y-115629869D01*
X124297449Y-115629864D01*
X124297712Y-115628053D01*
X124299232Y-115570000D01*
X124296303Y-115538116D01*
X124280920Y-115370714D01*
X124280658Y-115367859D01*
X124279366Y-115363277D01*
X124226335Y-115175244D01*
X124226333Y-115175240D01*
X124225557Y-115172487D01*
X124171071Y-115062000D01*
X131223445Y-115062000D01*
X131243977Y-115217953D01*
X131245545Y-115221738D01*
X131245545Y-115221739D01*
X131294273Y-115339378D01*
X131304172Y-115363277D01*
X131399929Y-115488071D01*
X131403174Y-115490561D01*
X131403175Y-115490562D01*
X131472593Y-115543828D01*
X131524722Y-115583828D01*
X131528505Y-115585395D01*
X131631492Y-115628053D01*
X131670047Y-115644023D01*
X131674103Y-115644557D01*
X131674107Y-115644558D01*
X131821936Y-115664020D01*
X131826000Y-115664555D01*
X131830064Y-115664020D01*
X131977893Y-115644558D01*
X131977897Y-115644557D01*
X131981953Y-115644023D01*
X132020509Y-115628053D01*
X132123495Y-115585395D01*
X132127278Y-115583828D01*
X132179407Y-115543828D01*
X132248825Y-115490562D01*
X132248826Y-115490561D01*
X132252071Y-115488071D01*
X132284415Y-115445919D01*
X132325842Y-115422001D01*
X132372047Y-115434381D01*
X132383585Y-115445919D01*
X132415929Y-115488071D01*
X132419174Y-115490561D01*
X132419175Y-115490562D01*
X132488593Y-115543828D01*
X132540722Y-115583828D01*
X132544505Y-115585395D01*
X132647492Y-115628053D01*
X132686047Y-115644023D01*
X132690103Y-115644557D01*
X132690107Y-115644558D01*
X132837936Y-115664020D01*
X132842000Y-115664555D01*
X132846064Y-115664020D01*
X132993893Y-115644558D01*
X132993897Y-115644557D01*
X132997953Y-115644023D01*
X133036509Y-115628053D01*
X133139495Y-115585395D01*
X133143278Y-115583828D01*
X133195407Y-115543828D01*
X133264825Y-115490562D01*
X133264826Y-115490561D01*
X133268071Y-115488071D01*
X133363828Y-115363277D01*
X133373727Y-115339378D01*
X133422455Y-115221739D01*
X133422455Y-115221738D01*
X133424023Y-115217953D01*
X133444555Y-115062000D01*
X133424023Y-114906047D01*
X133391604Y-114827779D01*
X133365396Y-114764508D01*
X133365395Y-114764507D01*
X133363828Y-114760723D01*
X133268071Y-114635929D01*
X133239243Y-114613808D01*
X133146527Y-114542665D01*
X133143278Y-114540172D01*
X133139495Y-114538605D01*
X133001734Y-114481543D01*
X133001733Y-114481543D01*
X132997953Y-114479977D01*
X132993897Y-114479443D01*
X132993893Y-114479442D01*
X132846064Y-114459980D01*
X132842000Y-114459445D01*
X132837936Y-114459980D01*
X132690110Y-114479442D01*
X132690109Y-114479442D01*
X132686047Y-114479977D01*
X132682262Y-114481545D01*
X132682261Y-114481545D01*
X132544508Y-114538604D01*
X132540723Y-114540172D01*
X132415929Y-114635929D01*
X132413437Y-114639177D01*
X132413436Y-114639178D01*
X132383585Y-114678081D01*
X132342158Y-114701999D01*
X132295953Y-114689619D01*
X132284415Y-114678081D01*
X132254563Y-114639177D01*
X132252071Y-114635929D01*
X132223243Y-114613808D01*
X132130527Y-114542665D01*
X132127278Y-114540172D01*
X132123495Y-114538605D01*
X131985734Y-114481543D01*
X131985733Y-114481543D01*
X131981953Y-114479977D01*
X131977897Y-114479443D01*
X131977893Y-114479442D01*
X131830064Y-114459980D01*
X131826000Y-114459445D01*
X131821936Y-114459980D01*
X131674110Y-114479442D01*
X131674109Y-114479442D01*
X131670047Y-114479977D01*
X131666262Y-114481545D01*
X131666261Y-114481545D01*
X131528508Y-114538604D01*
X131524723Y-114540172D01*
X131399929Y-114635929D01*
X131304172Y-114760723D01*
X131302605Y-114764507D01*
X131302604Y-114764508D01*
X131276397Y-114827779D01*
X131243977Y-114906047D01*
X131223445Y-115062000D01*
X124171071Y-115062000D01*
X124135776Y-114990428D01*
X124117437Y-114965869D01*
X124016037Y-114830078D01*
X124016036Y-114830076D01*
X124014320Y-114827779D01*
X123865258Y-114689987D01*
X123693581Y-114581667D01*
X123505039Y-114506446D01*
X123502233Y-114505888D01*
X123502230Y-114505887D01*
X123308752Y-114467402D01*
X123308750Y-114467402D01*
X123305946Y-114466844D01*
X123210353Y-114465593D01*
X123105833Y-114464224D01*
X123105828Y-114464224D01*
X123102971Y-114464187D01*
X123100151Y-114464672D01*
X123100146Y-114464672D01*
X123001954Y-114481545D01*
X122902910Y-114498564D01*
X122900222Y-114499556D01*
X122900217Y-114499557D01*
X122715151Y-114567832D01*
X122715148Y-114567833D01*
X122712463Y-114568824D01*
X122538010Y-114672612D01*
X122385392Y-114806455D01*
X122383616Y-114808708D01*
X122383615Y-114808709D01*
X122309865Y-114902261D01*
X122259720Y-114965869D01*
X122165203Y-115145515D01*
X122105007Y-115339378D01*
X122081148Y-115540964D01*
X121756565Y-115540964D01*
X121756303Y-115538116D01*
X121740920Y-115370714D01*
X121740658Y-115367859D01*
X121739366Y-115363277D01*
X121686335Y-115175244D01*
X121686333Y-115175240D01*
X121685557Y-115172487D01*
X121595776Y-114990428D01*
X121577437Y-114965869D01*
X121476037Y-114830078D01*
X121476036Y-114830076D01*
X121474320Y-114827779D01*
X121325258Y-114689987D01*
X121187648Y-114603162D01*
X121160041Y-114564099D01*
X121158500Y-114550305D01*
X121158500Y-114282515D01*
X121176806Y-114238321D01*
X123382322Y-112032806D01*
X123426516Y-112014500D01*
X129454137Y-112014500D01*
X129484960Y-112024962D01*
X129485927Y-112023287D01*
X129489471Y-112025333D01*
X129492722Y-112027828D01*
X129638047Y-112088023D01*
X129642103Y-112088557D01*
X129642107Y-112088558D01*
X129789936Y-112108020D01*
X129794000Y-112108555D01*
X129798064Y-112108020D01*
X129945893Y-112088558D01*
X129945897Y-112088557D01*
X129949953Y-112088023D01*
X130095278Y-112027828D01*
X130112647Y-112014500D01*
X130216825Y-111934562D01*
X130216826Y-111934561D01*
X130220071Y-111932071D01*
X130315828Y-111807277D01*
X130342653Y-111742515D01*
X130374455Y-111665739D01*
X130374455Y-111665738D01*
X130376023Y-111661953D01*
X130396555Y-111506000D01*
X130390367Y-111459000D01*
X132286445Y-111459000D01*
X132286980Y-111463064D01*
X132300593Y-111566459D01*
X132306977Y-111614953D01*
X132308545Y-111618738D01*
X132308545Y-111618739D01*
X132359815Y-111742515D01*
X132367172Y-111760277D01*
X132462929Y-111885071D01*
X132466174Y-111887561D01*
X132466175Y-111887562D01*
X132527427Y-111934562D01*
X132587722Y-111980828D01*
X132733047Y-112041023D01*
X132737103Y-112041557D01*
X132737107Y-112041558D01*
X132884936Y-112061020D01*
X132889000Y-112061555D01*
X132893064Y-112061020D01*
X133040893Y-112041558D01*
X133040897Y-112041557D01*
X133044953Y-112041023D01*
X133190278Y-111980828D01*
X133250573Y-111934562D01*
X133311825Y-111887562D01*
X133311826Y-111887561D01*
X133315071Y-111885071D01*
X133410828Y-111760277D01*
X133418185Y-111742515D01*
X133469455Y-111618739D01*
X133469455Y-111618738D01*
X133471023Y-111614953D01*
X133477408Y-111566459D01*
X133491020Y-111463064D01*
X133491555Y-111459000D01*
X133477746Y-111354110D01*
X133471558Y-111307110D01*
X133471558Y-111307109D01*
X133471023Y-111303047D01*
X133455607Y-111265828D01*
X133412396Y-111161508D01*
X133412395Y-111161507D01*
X133410828Y-111157723D01*
X133315071Y-111032929D01*
X133288173Y-111012289D01*
X133193527Y-110939665D01*
X133190278Y-110937172D01*
X133186495Y-110935605D01*
X133048734Y-110878543D01*
X133048733Y-110878543D01*
X133044953Y-110876977D01*
X133040897Y-110876443D01*
X133040893Y-110876442D01*
X132893064Y-110856980D01*
X132889000Y-110856445D01*
X132884936Y-110856980D01*
X132737110Y-110876442D01*
X132737109Y-110876442D01*
X132733047Y-110876977D01*
X132729262Y-110878545D01*
X132729261Y-110878545D01*
X132615793Y-110925545D01*
X132587723Y-110937172D01*
X132462929Y-111032929D01*
X132367172Y-111157723D01*
X132365605Y-111161507D01*
X132365604Y-111161508D01*
X132322394Y-111265828D01*
X132306977Y-111303047D01*
X132306442Y-111307109D01*
X132306442Y-111307110D01*
X132300254Y-111354110D01*
X132286445Y-111459000D01*
X130390367Y-111459000D01*
X130376023Y-111350047D01*
X130365424Y-111324457D01*
X130317396Y-111208508D01*
X130317395Y-111208507D01*
X130315828Y-111204723D01*
X130220071Y-111079929D01*
X130203587Y-111067280D01*
X130098527Y-110986665D01*
X130095278Y-110984172D01*
X130091495Y-110982605D01*
X129953734Y-110925543D01*
X129953733Y-110925543D01*
X129949953Y-110923977D01*
X129945897Y-110923443D01*
X129945893Y-110923442D01*
X129798064Y-110903980D01*
X129794000Y-110903445D01*
X129789936Y-110903980D01*
X129642110Y-110923442D01*
X129642109Y-110923442D01*
X129638047Y-110923977D01*
X129634262Y-110925545D01*
X129634261Y-110925545D01*
X129496508Y-110982604D01*
X129492723Y-110984172D01*
X129489474Y-110986665D01*
X129485925Y-110988714D01*
X129484956Y-110987035D01*
X129454138Y-110997500D01*
X123253978Y-110997500D01*
X123240184Y-110995959D01*
X123235544Y-110994909D01*
X123231200Y-110993926D01*
X123180378Y-110997079D01*
X123175524Y-110997380D01*
X123171654Y-110997500D01*
X123153487Y-110997500D01*
X123151293Y-110997814D01*
X123151281Y-110997815D01*
X123140602Y-110999344D01*
X123135617Y-110999855D01*
X123090265Y-111002669D01*
X123090263Y-111002669D01*
X123085822Y-111002945D01*
X123072351Y-111007808D01*
X123059990Y-111010890D01*
X123045813Y-111012920D01*
X123041760Y-111014763D01*
X123041756Y-111014764D01*
X123000383Y-111033575D01*
X122995738Y-111035466D01*
X122953007Y-111050893D01*
X122948819Y-111052405D01*
X122945225Y-111055030D01*
X122945224Y-111055031D01*
X122937256Y-111060852D01*
X122926256Y-111067280D01*
X122917273Y-111071364D01*
X122917272Y-111071365D01*
X122913218Y-111073208D01*
X122909843Y-111076116D01*
X122875424Y-111105773D01*
X122871496Y-111108892D01*
X122860397Y-111117000D01*
X122860394Y-111117003D01*
X122858447Y-111118425D01*
X122845801Y-111131071D01*
X122842404Y-111134225D01*
X122802873Y-111168287D01*
X122800451Y-111172024D01*
X122795937Y-111178988D01*
X122787684Y-111189188D01*
X120335676Y-113641197D01*
X120324832Y-113649861D01*
X120317042Y-113654776D01*
X120314098Y-113658109D01*
X120314095Y-113658112D01*
X120280107Y-113696597D01*
X120277455Y-113699418D01*
X120264618Y-113712255D01*
X120263285Y-113714033D01*
X120263282Y-113714037D01*
X120256814Y-113722666D01*
X120253649Y-113726553D01*
X120223571Y-113760611D01*
X120223569Y-113760614D01*
X120220622Y-113763951D01*
X120218729Y-113767983D01*
X120214537Y-113776911D01*
X120207976Y-113787831D01*
X120199384Y-113799295D01*
X120181860Y-113846039D01*
X120179926Y-113850630D01*
X120158719Y-113895800D01*
X120158034Y-113900202D01*
X120156516Y-113909948D01*
X120153283Y-113922270D01*
X120149818Y-113931513D01*
X120149817Y-113931517D01*
X120148255Y-113935684D01*
X120147925Y-113940123D01*
X120147925Y-113940124D01*
X120144559Y-113985433D01*
X120143986Y-113990421D01*
X120141872Y-114003992D01*
X120141871Y-114004002D01*
X120141500Y-114006386D01*
X120141500Y-114024270D01*
X120141328Y-114028901D01*
X120137461Y-114080941D01*
X120138390Y-114085293D01*
X120140123Y-114093412D01*
X120141500Y-114106459D01*
X120141500Y-114551704D01*
X120123194Y-114595898D01*
X120110958Y-114605415D01*
X119998010Y-114672612D01*
X119995853Y-114674504D01*
X119992208Y-114677700D01*
X119946910Y-114693075D01*
X119904009Y-114671917D01*
X119888500Y-114630709D01*
X119888500Y-111742515D01*
X119906806Y-111698321D01*
X120556602Y-111048526D01*
X121218325Y-110386803D01*
X121229169Y-110378139D01*
X121233193Y-110375600D01*
X121233195Y-110375598D01*
X121236958Y-110373224D01*
X121239901Y-110369892D01*
X121239903Y-110369890D01*
X121273885Y-110331412D01*
X121276537Y-110328591D01*
X121289382Y-110315746D01*
X121297198Y-110305317D01*
X121300358Y-110301438D01*
X121330428Y-110267389D01*
X121333378Y-110264049D01*
X121339463Y-110251087D01*
X121346021Y-110240172D01*
X121354615Y-110228705D01*
X121372129Y-110181987D01*
X121374077Y-110177365D01*
X121393388Y-110136234D01*
X121393390Y-110136228D01*
X121395281Y-110132200D01*
X121397485Y-110118046D01*
X121400718Y-110105725D01*
X121404181Y-110096487D01*
X121404182Y-110096483D01*
X121405744Y-110092316D01*
X121409441Y-110042571D01*
X121410013Y-110037588D01*
X121412128Y-110024003D01*
X121412500Y-110021614D01*
X121412500Y-110003726D01*
X121412672Y-109999094D01*
X121416209Y-109951498D01*
X121416539Y-109947059D01*
X121413877Y-109934588D01*
X121412500Y-109921541D01*
X121412500Y-104648000D01*
X124111445Y-104648000D01*
X124131977Y-104803953D01*
X124192172Y-104949277D01*
X124287929Y-105074071D01*
X124412722Y-105169828D01*
X124558047Y-105230023D01*
X124562103Y-105230557D01*
X124562107Y-105230558D01*
X124709936Y-105250020D01*
X124714000Y-105250555D01*
X124718064Y-105250020D01*
X124865893Y-105230558D01*
X124865897Y-105230557D01*
X124869953Y-105230023D01*
X125015278Y-105169828D01*
X125140071Y-105074071D01*
X125235828Y-104949277D01*
X125296023Y-104803953D01*
X125316555Y-104648000D01*
X125296023Y-104492047D01*
X125235828Y-104346723D01*
X125140071Y-104221929D01*
X125015278Y-104126172D01*
X125011495Y-104124605D01*
X124873734Y-104067543D01*
X124873733Y-104067543D01*
X124869953Y-104065977D01*
X124865897Y-104065443D01*
X124865893Y-104065442D01*
X124718064Y-104045980D01*
X124714000Y-104045445D01*
X124709936Y-104045980D01*
X124562110Y-104065442D01*
X124562109Y-104065442D01*
X124558047Y-104065977D01*
X124554262Y-104067545D01*
X124554261Y-104067545D01*
X124416508Y-104124604D01*
X124412723Y-104126172D01*
X124287929Y-104221929D01*
X124192172Y-104346723D01*
X124131977Y-104492047D01*
X124111445Y-104648000D01*
X121412500Y-104648000D01*
X121412500Y-102362000D01*
X135033445Y-102362000D01*
X135053977Y-102517953D01*
X135114172Y-102663277D01*
X135209929Y-102788071D01*
X135334722Y-102883828D01*
X135480047Y-102944023D01*
X135484103Y-102944557D01*
X135484107Y-102944558D01*
X135631936Y-102964020D01*
X135636000Y-102964555D01*
X135640064Y-102964020D01*
X135787893Y-102944558D01*
X135787897Y-102944557D01*
X135791953Y-102944023D01*
X135937278Y-102883828D01*
X136062071Y-102788071D01*
X136157828Y-102663277D01*
X136218023Y-102517953D01*
X136238555Y-102362000D01*
X136218023Y-102206047D01*
X136157828Y-102060723D01*
X136062071Y-101935929D01*
X135937278Y-101840172D01*
X135933495Y-101838605D01*
X135795734Y-101781543D01*
X135795733Y-101781543D01*
X135791953Y-101779977D01*
X135787897Y-101779443D01*
X135787893Y-101779442D01*
X135640064Y-101759980D01*
X135636000Y-101759445D01*
X135631936Y-101759980D01*
X135484110Y-101779442D01*
X135484109Y-101779442D01*
X135480047Y-101779977D01*
X135476262Y-101781545D01*
X135476261Y-101781545D01*
X135338508Y-101838604D01*
X135334723Y-101840172D01*
X135209929Y-101935929D01*
X135114172Y-102060723D01*
X135053977Y-102206047D01*
X135033445Y-102362000D01*
X121412500Y-102362000D01*
X121412500Y-93454327D01*
X121430806Y-93410133D01*
X121475000Y-93391827D01*
X121513047Y-93404742D01*
X121615469Y-93483333D01*
X121615475Y-93483336D01*
X121618722Y-93485828D01*
X121764047Y-93546023D01*
X121768103Y-93546557D01*
X121768107Y-93546558D01*
X121915936Y-93566020D01*
X121920000Y-93566555D01*
X121924064Y-93566020D01*
X122071893Y-93546558D01*
X122071897Y-93546557D01*
X122075953Y-93546023D01*
X122221278Y-93485828D01*
X122319926Y-93410133D01*
X122342825Y-93392562D01*
X122342826Y-93392561D01*
X122346071Y-93390071D01*
X122441828Y-93265277D01*
X122502023Y-93119953D01*
X122522555Y-92964000D01*
X122502023Y-92808047D01*
X122441828Y-92662723D01*
X122346071Y-92537929D01*
X122221278Y-92442172D01*
X122217495Y-92440605D01*
X122079734Y-92383543D01*
X122079733Y-92383543D01*
X122075953Y-92381977D01*
X122071897Y-92381443D01*
X122071893Y-92381442D01*
X121924064Y-92361980D01*
X121920000Y-92361445D01*
X121915936Y-92361980D01*
X121768110Y-92381442D01*
X121768109Y-92381442D01*
X121764047Y-92381977D01*
X121760262Y-92383545D01*
X121760261Y-92383545D01*
X121622508Y-92440604D01*
X121618723Y-92442172D01*
X121615474Y-92444665D01*
X121513047Y-92523259D01*
X121466842Y-92535639D01*
X121425415Y-92511721D01*
X121412500Y-92473674D01*
X121412500Y-91948000D01*
X127667445Y-91948000D01*
X127667980Y-91952064D01*
X127677191Y-92022023D01*
X127687977Y-92103953D01*
X127748172Y-92249277D01*
X127843929Y-92374071D01*
X127847174Y-92376561D01*
X127847175Y-92376562D01*
X127930638Y-92440605D01*
X127968722Y-92469828D01*
X127972505Y-92471395D01*
X128069862Y-92511721D01*
X128114047Y-92530023D01*
X128118103Y-92530557D01*
X128118107Y-92530558D01*
X128265936Y-92550020D01*
X128270000Y-92550555D01*
X128274064Y-92550020D01*
X128421893Y-92530558D01*
X128421897Y-92530557D01*
X128425953Y-92530023D01*
X128470139Y-92511721D01*
X128567495Y-92471395D01*
X128571278Y-92469828D01*
X128609362Y-92440605D01*
X128692825Y-92376562D01*
X128692826Y-92376561D01*
X128696071Y-92374071D01*
X128791828Y-92249277D01*
X128852023Y-92103953D01*
X128862810Y-92022023D01*
X128872020Y-91952064D01*
X128872555Y-91948000D01*
X128852023Y-91792047D01*
X128830994Y-91741277D01*
X128793396Y-91650508D01*
X128793395Y-91650507D01*
X128791828Y-91646723D01*
X128696071Y-91521929D01*
X128571278Y-91426172D01*
X128567495Y-91424605D01*
X128429734Y-91367543D01*
X128429733Y-91367543D01*
X128425953Y-91365977D01*
X128421897Y-91365443D01*
X128421893Y-91365442D01*
X128274064Y-91345980D01*
X128270000Y-91345445D01*
X128265936Y-91345980D01*
X128118110Y-91365442D01*
X128118109Y-91365442D01*
X128114047Y-91365977D01*
X128110262Y-91367545D01*
X128110261Y-91367545D01*
X127972508Y-91424604D01*
X127968723Y-91426172D01*
X127843929Y-91521929D01*
X127748172Y-91646723D01*
X127746605Y-91650507D01*
X127746604Y-91650508D01*
X127709007Y-91741277D01*
X127687977Y-91792047D01*
X127667445Y-91948000D01*
X121412500Y-91948000D01*
X121412500Y-84899978D01*
X121414041Y-84886185D01*
X121415091Y-84881545D01*
X121415091Y-84881544D01*
X121416074Y-84877200D01*
X121412620Y-84821525D01*
X121412500Y-84817655D01*
X121412500Y-84799487D01*
X121412186Y-84797293D01*
X121412185Y-84797281D01*
X121410656Y-84786602D01*
X121410145Y-84781617D01*
X121407331Y-84736267D01*
X121407331Y-84736265D01*
X121407055Y-84731823D01*
X121402190Y-84718348D01*
X121399110Y-84705991D01*
X121397711Y-84696222D01*
X121397080Y-84691813D01*
X121376430Y-84646396D01*
X121374538Y-84641749D01*
X121359107Y-84599004D01*
X121359106Y-84599003D01*
X121357596Y-84594819D01*
X121349144Y-84583249D01*
X121342721Y-84572258D01*
X121336792Y-84559218D01*
X121304221Y-84521416D01*
X121301104Y-84517491D01*
X121293002Y-84506401D01*
X121293001Y-84506400D01*
X121291575Y-84504448D01*
X121278935Y-84491808D01*
X121275781Y-84488411D01*
X121244621Y-84452248D01*
X121241713Y-84448873D01*
X121231009Y-84441935D01*
X121220809Y-84433682D01*
X119591127Y-82804000D01*
X132239445Y-82804000D01*
X132259977Y-82959953D01*
X132320172Y-83105277D01*
X132415929Y-83230071D01*
X132540722Y-83325828D01*
X132686047Y-83386023D01*
X132690103Y-83386557D01*
X132690107Y-83386558D01*
X132837936Y-83406020D01*
X132842000Y-83406555D01*
X132846064Y-83406020D01*
X132993893Y-83386558D01*
X132993897Y-83386557D01*
X132997953Y-83386023D01*
X133143278Y-83325828D01*
X133268071Y-83230071D01*
X133363828Y-83105277D01*
X133424023Y-82959953D01*
X133444555Y-82804000D01*
X133424023Y-82648047D01*
X133363828Y-82502723D01*
X133268071Y-82377929D01*
X133143278Y-82282172D01*
X133139495Y-82280605D01*
X133001734Y-82223543D01*
X133001733Y-82223543D01*
X132997953Y-82221977D01*
X132993897Y-82221443D01*
X132993893Y-82221442D01*
X132846064Y-82201980D01*
X132842000Y-82201445D01*
X132837936Y-82201980D01*
X132690110Y-82221442D01*
X132690109Y-82221442D01*
X132686047Y-82221977D01*
X132682262Y-82223545D01*
X132682261Y-82223545D01*
X132544508Y-82280604D01*
X132540723Y-82282172D01*
X132415929Y-82377929D01*
X132320172Y-82502723D01*
X132259977Y-82648047D01*
X132239445Y-82804000D01*
X119591127Y-82804000D01*
X117813127Y-81026000D01*
X127413445Y-81026000D01*
X127433977Y-81181953D01*
X127494172Y-81327277D01*
X127589929Y-81452071D01*
X127593174Y-81454561D01*
X127593175Y-81454562D01*
X127654418Y-81501555D01*
X127714722Y-81547828D01*
X127860047Y-81608023D01*
X127864103Y-81608557D01*
X127864107Y-81608558D01*
X128011936Y-81628020D01*
X128016000Y-81628555D01*
X128020064Y-81628020D01*
X128167893Y-81608558D01*
X128167897Y-81608557D01*
X128171953Y-81608023D01*
X128317278Y-81547828D01*
X128377582Y-81501555D01*
X128438825Y-81454562D01*
X128438826Y-81454561D01*
X128442071Y-81452071D01*
X128537828Y-81327277D01*
X128598023Y-81181953D01*
X128618555Y-81026000D01*
X128598023Y-80870047D01*
X128537828Y-80724723D01*
X128442071Y-80599929D01*
X128348109Y-80527829D01*
X128320527Y-80506665D01*
X128317278Y-80504172D01*
X128313495Y-80502605D01*
X128175734Y-80445543D01*
X128175733Y-80445543D01*
X128171953Y-80443977D01*
X128167897Y-80443443D01*
X128167893Y-80443442D01*
X128020064Y-80423980D01*
X128016000Y-80423445D01*
X128011936Y-80423980D01*
X127864110Y-80443442D01*
X127864109Y-80443442D01*
X127860047Y-80443977D01*
X127856262Y-80445545D01*
X127856261Y-80445545D01*
X127718508Y-80502604D01*
X127714723Y-80504172D01*
X127589929Y-80599929D01*
X127494172Y-80724723D01*
X127433977Y-80870047D01*
X127413445Y-81026000D01*
X117813127Y-81026000D01*
X117371803Y-80584676D01*
X117363139Y-80573832D01*
X117358224Y-80566042D01*
X117354891Y-80563098D01*
X117354888Y-80563095D01*
X117316403Y-80529107D01*
X117313582Y-80526455D01*
X117300745Y-80513618D01*
X117298964Y-80512283D01*
X117297287Y-80510829D01*
X117297441Y-80510652D01*
X117287396Y-80500720D01*
X117266071Y-80472929D01*
X117230384Y-80445545D01*
X117201582Y-80423445D01*
X117141278Y-80377172D01*
X117079998Y-80351789D01*
X117046176Y-80317966D01*
X117041953Y-80285890D01*
X117061020Y-80141064D01*
X117061555Y-80137000D01*
X117041023Y-79981047D01*
X116980828Y-79835723D01*
X116885071Y-79710929D01*
X116760278Y-79615172D01*
X116756495Y-79613605D01*
X116618734Y-79556543D01*
X116618733Y-79556543D01*
X116614953Y-79554977D01*
X116610897Y-79554443D01*
X116610893Y-79554442D01*
X116463064Y-79534980D01*
X116459000Y-79534445D01*
X116454936Y-79534980D01*
X116307110Y-79554442D01*
X116307109Y-79554442D01*
X116303047Y-79554977D01*
X116299262Y-79556545D01*
X116299261Y-79556545D01*
X116161508Y-79613604D01*
X116157723Y-79615172D01*
X116032929Y-79710929D01*
X115937172Y-79835723D01*
X115876977Y-79981047D01*
X115856445Y-80137000D01*
X115876977Y-80292953D01*
X115878545Y-80296738D01*
X115878545Y-80296739D01*
X115926024Y-80411363D01*
X115926024Y-80459199D01*
X115892200Y-80493023D01*
X115844364Y-80493024D01*
X115729734Y-80445543D01*
X115729733Y-80445543D01*
X115725953Y-80443977D01*
X115721897Y-80443443D01*
X115721893Y-80443442D01*
X115574064Y-80423980D01*
X115570000Y-80423445D01*
X115565936Y-80423980D01*
X115418110Y-80443442D01*
X115418109Y-80443442D01*
X115414047Y-80443977D01*
X115410262Y-80445545D01*
X115410261Y-80445545D01*
X115272508Y-80502604D01*
X115268723Y-80504172D01*
X115143929Y-80599929D01*
X115048172Y-80724723D01*
X114987977Y-80870047D01*
X114967445Y-81026000D01*
X105664000Y-81026000D01*
X105664000Y-78335500D01*
X130865945Y-78335500D01*
X130886477Y-78491453D01*
X130946672Y-78636777D01*
X131042429Y-78761571D01*
X131167222Y-78857328D01*
X131312547Y-78917523D01*
X131316603Y-78918057D01*
X131316607Y-78918058D01*
X131464436Y-78937520D01*
X131468500Y-78938055D01*
X131472564Y-78937520D01*
X131620393Y-78918058D01*
X131620397Y-78918057D01*
X131624453Y-78917523D01*
X131769778Y-78857328D01*
X131894571Y-78761571D01*
X131990328Y-78636777D01*
X132050523Y-78491453D01*
X132071055Y-78335500D01*
X132050523Y-78179547D01*
X131990328Y-78034223D01*
X131894571Y-77909429D01*
X131769778Y-77813672D01*
X131765995Y-77812105D01*
X131628234Y-77755043D01*
X131628233Y-77755043D01*
X131624453Y-77753477D01*
X131620397Y-77752943D01*
X131620393Y-77752942D01*
X131472564Y-77733480D01*
X131468500Y-77732945D01*
X131464436Y-77733480D01*
X131316610Y-77752942D01*
X131316609Y-77752942D01*
X131312547Y-77753477D01*
X131308762Y-77755045D01*
X131308761Y-77755045D01*
X131171008Y-77812104D01*
X131167223Y-77813672D01*
X131042429Y-77909429D01*
X130946672Y-78034223D01*
X130886477Y-78179547D01*
X130865945Y-78335500D01*
X105664000Y-78335500D01*
X105664000Y-77747337D01*
X108863023Y-77747337D01*
X108864517Y-77750944D01*
X108873297Y-77755711D01*
X108880262Y-77758469D01*
X109033567Y-77798687D01*
X109040986Y-77799703D01*
X109199464Y-77802193D01*
X109206905Y-77801411D01*
X109361409Y-77766025D01*
X109368448Y-77763491D01*
X109391829Y-77751732D01*
X109395622Y-77747337D01*
X111073023Y-77747337D01*
X111074517Y-77750944D01*
X111083297Y-77755711D01*
X111090262Y-77758469D01*
X111243567Y-77798687D01*
X111250986Y-77799703D01*
X111409464Y-77802193D01*
X111416905Y-77801411D01*
X111571409Y-77766025D01*
X111578448Y-77763491D01*
X111601829Y-77751732D01*
X111608046Y-77744529D01*
X111607787Y-77740998D01*
X111349790Y-77483001D01*
X111341000Y-77479360D01*
X111332210Y-77483001D01*
X111076664Y-77738547D01*
X111073023Y-77747337D01*
X109395622Y-77747337D01*
X109398046Y-77744529D01*
X109397787Y-77740998D01*
X109139790Y-77483001D01*
X109131000Y-77479360D01*
X109122210Y-77483001D01*
X108866664Y-77738547D01*
X108863023Y-77747337D01*
X105664000Y-77747337D01*
X105664000Y-77111511D01*
X108440414Y-77111511D01*
X108457807Y-77269055D01*
X108459515Y-77276339D01*
X108495679Y-77375162D01*
X108502120Y-77382166D01*
X108504389Y-77382261D01*
X108504774Y-77382015D01*
X108762999Y-77123790D01*
X108766640Y-77115000D01*
X109495360Y-77115000D01*
X109499001Y-77123791D01*
X109752590Y-77377380D01*
X109761380Y-77381021D01*
X109763864Y-77379992D01*
X109797087Y-77297348D01*
X109799022Y-77290123D01*
X109821598Y-77131497D01*
X109821907Y-77127434D01*
X109822017Y-77117038D01*
X109821792Y-77112970D01*
X109821615Y-77111511D01*
X110650414Y-77111511D01*
X110667807Y-77269055D01*
X110669515Y-77276339D01*
X110705679Y-77375162D01*
X110712120Y-77382166D01*
X110714389Y-77382261D01*
X110714774Y-77382015D01*
X110972999Y-77123790D01*
X110976640Y-77115000D01*
X111705360Y-77115000D01*
X111709001Y-77123791D01*
X111962590Y-77377380D01*
X111971380Y-77381021D01*
X111973864Y-77379992D01*
X112007087Y-77297348D01*
X112009022Y-77290123D01*
X112031598Y-77131497D01*
X112031907Y-77127434D01*
X112032017Y-77117038D01*
X112031792Y-77112970D01*
X112012544Y-76953908D01*
X112010758Y-76946637D01*
X111976160Y-76855077D01*
X111969645Y-76848139D01*
X111967197Y-76848062D01*
X111967061Y-76848150D01*
X111709001Y-77106210D01*
X111705360Y-77115000D01*
X110976640Y-77115000D01*
X110972999Y-77106210D01*
X110719247Y-76852458D01*
X110710457Y-76848817D01*
X110708063Y-76849809D01*
X110673040Y-76939636D01*
X110671180Y-76946883D01*
X110650492Y-77104023D01*
X110650414Y-77111511D01*
X109821615Y-77111511D01*
X109802544Y-76953908D01*
X109800758Y-76946637D01*
X109766160Y-76855077D01*
X109759645Y-76848139D01*
X109757197Y-76848062D01*
X109757061Y-76848150D01*
X109499001Y-77106210D01*
X109495360Y-77115000D01*
X108766640Y-77115000D01*
X108762999Y-77106210D01*
X108509247Y-76852458D01*
X108500457Y-76848817D01*
X108498063Y-76849809D01*
X108463040Y-76939636D01*
X108461180Y-76946883D01*
X108440492Y-77104023D01*
X108440414Y-77111511D01*
X105664000Y-77111511D01*
X105664000Y-76485076D01*
X108863627Y-76485076D01*
X108863934Y-76488724D01*
X109122209Y-76746999D01*
X109131000Y-76750640D01*
X109139790Y-76746999D01*
X109394886Y-76491903D01*
X109397714Y-76485076D01*
X111073627Y-76485076D01*
X111073934Y-76488724D01*
X111332209Y-76746999D01*
X111341000Y-76750640D01*
X111349790Y-76746999D01*
X111604886Y-76491903D01*
X111608527Y-76483113D01*
X111607080Y-76479621D01*
X111591974Y-76471622D01*
X111584994Y-76468943D01*
X111431263Y-76430329D01*
X111423843Y-76429391D01*
X111265345Y-76428562D01*
X111257907Y-76429422D01*
X111103789Y-76466423D01*
X111096773Y-76469032D01*
X111079768Y-76477809D01*
X111073627Y-76485076D01*
X109397714Y-76485076D01*
X109398527Y-76483113D01*
X109397080Y-76479621D01*
X109381974Y-76471622D01*
X109374994Y-76468943D01*
X109221263Y-76430329D01*
X109213843Y-76429391D01*
X109055345Y-76428562D01*
X109047907Y-76429422D01*
X108893789Y-76466423D01*
X108886773Y-76469032D01*
X108869768Y-76477809D01*
X108863627Y-76485076D01*
X105664000Y-76485076D01*
X105664000Y-73914000D01*
X131223445Y-73914000D01*
X131243977Y-74069953D01*
X131304172Y-74215277D01*
X131399929Y-74340071D01*
X131524722Y-74435828D01*
X131670047Y-74496023D01*
X131674103Y-74496557D01*
X131674107Y-74496558D01*
X131821936Y-74516020D01*
X131826000Y-74516555D01*
X131830064Y-74516020D01*
X131977893Y-74496558D01*
X131977897Y-74496557D01*
X131981953Y-74496023D01*
X132127278Y-74435828D01*
X132252071Y-74340071D01*
X132347828Y-74215277D01*
X132408023Y-74069953D01*
X132428555Y-73914000D01*
X132408023Y-73758047D01*
X132347828Y-73612723D01*
X132252071Y-73487929D01*
X132127278Y-73392172D01*
X132123495Y-73390605D01*
X131985734Y-73333543D01*
X131985733Y-73333543D01*
X131981953Y-73331977D01*
X131977897Y-73331443D01*
X131977893Y-73331442D01*
X131830064Y-73311980D01*
X131826000Y-73311445D01*
X131821936Y-73311980D01*
X131674110Y-73331442D01*
X131674109Y-73331442D01*
X131670047Y-73331977D01*
X131666262Y-73333545D01*
X131666261Y-73333545D01*
X131528508Y-73390604D01*
X131524723Y-73392172D01*
X131399929Y-73487929D01*
X131304172Y-73612723D01*
X131243977Y-73758047D01*
X131223445Y-73914000D01*
X105664000Y-73914000D01*
X105664000Y-72859648D01*
X106828711Y-72859648D01*
X106830463Y-72863877D01*
X107008077Y-72972719D01*
X107012451Y-72974948D01*
X107226907Y-73063778D01*
X107231573Y-73065294D01*
X107457287Y-73119483D01*
X107462136Y-73120251D01*
X107693548Y-73138464D01*
X107698452Y-73138464D01*
X107929864Y-73120251D01*
X107934713Y-73119483D01*
X108160427Y-73065294D01*
X108165093Y-73063778D01*
X108379549Y-72974948D01*
X108383923Y-72972719D01*
X108557838Y-72866144D01*
X108562557Y-72859648D01*
X111908711Y-72859648D01*
X111910463Y-72863877D01*
X112088077Y-72972719D01*
X112092451Y-72974948D01*
X112306907Y-73063778D01*
X112311573Y-73065294D01*
X112537287Y-73119483D01*
X112542136Y-73120251D01*
X112773548Y-73138464D01*
X112778452Y-73138464D01*
X113009864Y-73120251D01*
X113014713Y-73119483D01*
X113240427Y-73065294D01*
X113245093Y-73063778D01*
X113459549Y-72974948D01*
X113463923Y-72972719D01*
X113637838Y-72866144D01*
X113643430Y-72858446D01*
X113642714Y-72853924D01*
X112784790Y-71996000D01*
X112776000Y-71992359D01*
X112767210Y-71996000D01*
X111912352Y-72850858D01*
X111908711Y-72859648D01*
X108562557Y-72859648D01*
X108563430Y-72858446D01*
X108562714Y-72853924D01*
X107704790Y-71996000D01*
X107696000Y-71992359D01*
X107687210Y-71996000D01*
X106832352Y-72850858D01*
X106828711Y-72859648D01*
X105664000Y-72859648D01*
X105664000Y-71630452D01*
X106185536Y-71630452D01*
X106203749Y-71861864D01*
X106204517Y-71866713D01*
X106258706Y-72092427D01*
X106260222Y-72097093D01*
X106349052Y-72311549D01*
X106351281Y-72315923D01*
X106457856Y-72489838D01*
X106465554Y-72495430D01*
X106470076Y-72494714D01*
X107328000Y-71636790D01*
X107331641Y-71628000D01*
X108060359Y-71628000D01*
X108064000Y-71636790D01*
X108918858Y-72491648D01*
X108927648Y-72495289D01*
X108931877Y-72493537D01*
X109040719Y-72315923D01*
X109042948Y-72311549D01*
X109131778Y-72097093D01*
X109133294Y-72092427D01*
X109187483Y-71866713D01*
X109188251Y-71861864D01*
X109206464Y-71630452D01*
X111265536Y-71630452D01*
X111283749Y-71861864D01*
X111284517Y-71866713D01*
X111338706Y-72092427D01*
X111340222Y-72097093D01*
X111429052Y-72311549D01*
X111431281Y-72315923D01*
X111537856Y-72489838D01*
X111545554Y-72495430D01*
X111550076Y-72494714D01*
X112408000Y-71636790D01*
X112411641Y-71628000D01*
X113140359Y-71628000D01*
X113144000Y-71636790D01*
X113998858Y-72491648D01*
X114007648Y-72495289D01*
X114011877Y-72493537D01*
X114120719Y-72315923D01*
X114122948Y-72311549D01*
X114211778Y-72097093D01*
X114213294Y-72092427D01*
X114267483Y-71866713D01*
X114268251Y-71861864D01*
X114286464Y-71630452D01*
X114286464Y-71625548D01*
X114268251Y-71394136D01*
X114267483Y-71389287D01*
X114213294Y-71163573D01*
X114211778Y-71158907D01*
X114192608Y-71112626D01*
X133153905Y-71112626D01*
X133172470Y-71280790D01*
X133173764Y-71284327D01*
X133173765Y-71284330D01*
X133212174Y-71389287D01*
X133230612Y-71439670D01*
X133324974Y-71580096D01*
X133450108Y-71693959D01*
X133598791Y-71774687D01*
X133602433Y-71775643D01*
X133602437Y-71775644D01*
X133758790Y-71816662D01*
X133762438Y-71817619D01*
X133852393Y-71819032D01*
X133927833Y-71820218D01*
X133927835Y-71820218D01*
X133931602Y-71820277D01*
X134096517Y-71782506D01*
X134099881Y-71780814D01*
X134099884Y-71780813D01*
X134171590Y-71744748D01*
X134247662Y-71706488D01*
X134250527Y-71704041D01*
X134250530Y-71704039D01*
X134373449Y-71599055D01*
X134376311Y-71596611D01*
X134378506Y-71593556D01*
X134378509Y-71593553D01*
X134472837Y-71462281D01*
X134472838Y-71462279D01*
X134475037Y-71459219D01*
X134538141Y-71302243D01*
X134561980Y-71134746D01*
X134562134Y-71120000D01*
X134541809Y-70952040D01*
X134482006Y-70793778D01*
X134386179Y-70654348D01*
X134259859Y-70541801D01*
X134138762Y-70477683D01*
X134135916Y-70476176D01*
X134105425Y-70439318D01*
X134109927Y-70391695D01*
X134137080Y-70365105D01*
X134160925Y-70353112D01*
X134247662Y-70309488D01*
X134250527Y-70307041D01*
X134250530Y-70307039D01*
X134373449Y-70202055D01*
X134376311Y-70199611D01*
X134378506Y-70196556D01*
X134378509Y-70196553D01*
X134472837Y-70065281D01*
X134472838Y-70065279D01*
X134475037Y-70062219D01*
X134538141Y-69905243D01*
X134561980Y-69737746D01*
X134562134Y-69723000D01*
X134541809Y-69555040D01*
X134482006Y-69396778D01*
X134386179Y-69257348D01*
X134259859Y-69144801D01*
X134138762Y-69080683D01*
X134135916Y-69079176D01*
X134105425Y-69042318D01*
X134109927Y-68994695D01*
X134137080Y-68968105D01*
X134150103Y-68961555D01*
X134247662Y-68912488D01*
X134250527Y-68910041D01*
X134250530Y-68910039D01*
X134373449Y-68805055D01*
X134376311Y-68802611D01*
X134378506Y-68799556D01*
X134378509Y-68799553D01*
X134472837Y-68668281D01*
X134472838Y-68668279D01*
X134475037Y-68665219D01*
X134538141Y-68508243D01*
X134561980Y-68340746D01*
X134562134Y-68326000D01*
X134541809Y-68158040D01*
X134482006Y-67999778D01*
X134386179Y-67860348D01*
X134259859Y-67747801D01*
X134110339Y-67668634D01*
X133946251Y-67627418D01*
X133942486Y-67627398D01*
X133942484Y-67627398D01*
X133859261Y-67626962D01*
X133777069Y-67626532D01*
X133773403Y-67627412D01*
X133773404Y-67627412D01*
X133616219Y-67665149D01*
X133616217Y-67665150D01*
X133612559Y-67666028D01*
X133609215Y-67667754D01*
X133465563Y-67741897D01*
X133465560Y-67741899D01*
X133462218Y-67743624D01*
X133459382Y-67746098D01*
X133370274Y-67823832D01*
X133334726Y-67854842D01*
X133332560Y-67857924D01*
X133332559Y-67857925D01*
X133316789Y-67880364D01*
X133237444Y-67993261D01*
X133175988Y-68150889D01*
X133175496Y-68154626D01*
X133161306Y-68262412D01*
X133153905Y-68318626D01*
X133172470Y-68486790D01*
X133173764Y-68490327D01*
X133173765Y-68490330D01*
X133212965Y-68597446D01*
X133230612Y-68645670D01*
X133324974Y-68786096D01*
X133450108Y-68899959D01*
X133579510Y-68970219D01*
X133609614Y-69007393D01*
X133604614Y-69054966D01*
X133578353Y-69080683D01*
X133465563Y-69138897D01*
X133465560Y-69138899D01*
X133462218Y-69140624D01*
X133334726Y-69251842D01*
X133332560Y-69254924D01*
X133332559Y-69254925D01*
X133295038Y-69308313D01*
X133237444Y-69390261D01*
X133233529Y-69400303D01*
X133183057Y-69529759D01*
X133175988Y-69547889D01*
X133153905Y-69715626D01*
X133172470Y-69883790D01*
X133173764Y-69887327D01*
X133173765Y-69887330D01*
X133212965Y-69994446D01*
X133230612Y-70042670D01*
X133324974Y-70183096D01*
X133450108Y-70296959D01*
X133579510Y-70367219D01*
X133609614Y-70404393D01*
X133604614Y-70451966D01*
X133578353Y-70477683D01*
X133465563Y-70535897D01*
X133465560Y-70535899D01*
X133462218Y-70537624D01*
X133334726Y-70648842D01*
X133332560Y-70651924D01*
X133332559Y-70651925D01*
X133272706Y-70737089D01*
X133237444Y-70787261D01*
X133175988Y-70944889D01*
X133153905Y-71112626D01*
X114192608Y-71112626D01*
X114122948Y-70944451D01*
X114120719Y-70940077D01*
X114014144Y-70766162D01*
X114006446Y-70760570D01*
X114001924Y-70761286D01*
X113144000Y-71619210D01*
X113140359Y-71628000D01*
X112411641Y-71628000D01*
X112408000Y-71619210D01*
X111553142Y-70764352D01*
X111544352Y-70760711D01*
X111540123Y-70762463D01*
X111431281Y-70940077D01*
X111429052Y-70944451D01*
X111340222Y-71158907D01*
X111338706Y-71163573D01*
X111284517Y-71389287D01*
X111283749Y-71394136D01*
X111265536Y-71625548D01*
X111265536Y-71630452D01*
X109206464Y-71630452D01*
X109206464Y-71625548D01*
X109188251Y-71394136D01*
X109187483Y-71389287D01*
X109133294Y-71163573D01*
X109131778Y-71158907D01*
X109042948Y-70944451D01*
X109040719Y-70940077D01*
X108934144Y-70766162D01*
X108926446Y-70760570D01*
X108921924Y-70761286D01*
X108064000Y-71619210D01*
X108060359Y-71628000D01*
X107331641Y-71628000D01*
X107328000Y-71619210D01*
X106473142Y-70764352D01*
X106464352Y-70760711D01*
X106460123Y-70762463D01*
X106351281Y-70940077D01*
X106349052Y-70944451D01*
X106260222Y-71158907D01*
X106258706Y-71163573D01*
X106204517Y-71389287D01*
X106203749Y-71394136D01*
X106185536Y-71625548D01*
X106185536Y-71630452D01*
X105664000Y-71630452D01*
X105664000Y-70397554D01*
X106828570Y-70397554D01*
X106829286Y-70402076D01*
X107687210Y-71260000D01*
X107696000Y-71263641D01*
X107704790Y-71260000D01*
X108559648Y-70405142D01*
X108562791Y-70397554D01*
X111908570Y-70397554D01*
X111909286Y-70402076D01*
X112767210Y-71260000D01*
X112776000Y-71263641D01*
X112784790Y-71260000D01*
X113639648Y-70405142D01*
X113643289Y-70396352D01*
X113641537Y-70392123D01*
X113463923Y-70283281D01*
X113459549Y-70281052D01*
X113245093Y-70192222D01*
X113240427Y-70190706D01*
X113014713Y-70136517D01*
X113009864Y-70135749D01*
X112778452Y-70117536D01*
X112773548Y-70117536D01*
X112542136Y-70135749D01*
X112537287Y-70136517D01*
X112311573Y-70190706D01*
X112306907Y-70192222D01*
X112092451Y-70281052D01*
X112088077Y-70283281D01*
X111914162Y-70389856D01*
X111908570Y-70397554D01*
X108562791Y-70397554D01*
X108563289Y-70396352D01*
X108561537Y-70392123D01*
X108383923Y-70283281D01*
X108379549Y-70281052D01*
X108165093Y-70192222D01*
X108160427Y-70190706D01*
X107934713Y-70136517D01*
X107929864Y-70135749D01*
X107698452Y-70117536D01*
X107693548Y-70117536D01*
X107462136Y-70135749D01*
X107457287Y-70136517D01*
X107231573Y-70190706D01*
X107226907Y-70192222D01*
X107012451Y-70281052D01*
X107008077Y-70283281D01*
X106834162Y-70389856D01*
X106828570Y-70397554D01*
X105664000Y-70397554D01*
X105664000Y-69088000D01*
X108951613Y-69088000D01*
X108951851Y-69090720D01*
X108965948Y-69251842D01*
X108971126Y-69311031D01*
X108971831Y-69313664D01*
X108971832Y-69313667D01*
X108994102Y-69396778D01*
X109029071Y-69527286D01*
X109030223Y-69529757D01*
X109030224Y-69529759D01*
X109121285Y-69725039D01*
X109123688Y-69730193D01*
X109252102Y-69913588D01*
X109410412Y-70071898D01*
X109593806Y-70200312D01*
X109597544Y-70202055D01*
X109771735Y-70283281D01*
X109796714Y-70294929D01*
X109799347Y-70295634D01*
X109799351Y-70295636D01*
X110010333Y-70352168D01*
X110010336Y-70352169D01*
X110012969Y-70352874D01*
X110015685Y-70353112D01*
X110015687Y-70353112D01*
X110233280Y-70372149D01*
X110236000Y-70372387D01*
X110238720Y-70372149D01*
X110456313Y-70353112D01*
X110456315Y-70353112D01*
X110459031Y-70352874D01*
X110461664Y-70352169D01*
X110461667Y-70352168D01*
X110672649Y-70295636D01*
X110672653Y-70295634D01*
X110675286Y-70294929D01*
X110700266Y-70283281D01*
X110874456Y-70202055D01*
X110878194Y-70200312D01*
X111061588Y-70071898D01*
X111219898Y-69913588D01*
X111348312Y-69730193D01*
X111350716Y-69725039D01*
X111441776Y-69529759D01*
X111441777Y-69529757D01*
X111442929Y-69527286D01*
X111477899Y-69396778D01*
X111500168Y-69313667D01*
X111500169Y-69313664D01*
X111500874Y-69311031D01*
X111506053Y-69251842D01*
X111520149Y-69090720D01*
X111520387Y-69088000D01*
X111505180Y-68914182D01*
X111501112Y-68867687D01*
X111501112Y-68867685D01*
X111500874Y-68864969D01*
X111500168Y-68862333D01*
X111443636Y-68651351D01*
X111443634Y-68651347D01*
X111442929Y-68648714D01*
X111379056Y-68511738D01*
X111349466Y-68448281D01*
X111349464Y-68448278D01*
X111348312Y-68445807D01*
X111219898Y-68262412D01*
X111061588Y-68104102D01*
X110878194Y-67975688D01*
X110760533Y-67920822D01*
X110677759Y-67882224D01*
X110677757Y-67882223D01*
X110675286Y-67881071D01*
X110672653Y-67880366D01*
X110672649Y-67880364D01*
X110461667Y-67823832D01*
X110461664Y-67823831D01*
X110459031Y-67823126D01*
X110456315Y-67822888D01*
X110456313Y-67822888D01*
X110238720Y-67803851D01*
X110236000Y-67803613D01*
X110233280Y-67803851D01*
X110015687Y-67822888D01*
X110015685Y-67822888D01*
X110012969Y-67823126D01*
X110010336Y-67823831D01*
X110010333Y-67823832D01*
X109799351Y-67880364D01*
X109799347Y-67880366D01*
X109796714Y-67881071D01*
X109794243Y-67882223D01*
X109794241Y-67882224D01*
X109596281Y-67974534D01*
X109596278Y-67974536D01*
X109593807Y-67975688D01*
X109410412Y-68104102D01*
X109252102Y-68262412D01*
X109123688Y-68445807D01*
X109122536Y-68448278D01*
X109122534Y-68448281D01*
X109092944Y-68511738D01*
X109029071Y-68648714D01*
X109028366Y-68651347D01*
X109028364Y-68651351D01*
X108971832Y-68862333D01*
X108971126Y-68864969D01*
X108970888Y-68867685D01*
X108970888Y-68867687D01*
X108966820Y-68914182D01*
X108951613Y-69088000D01*
X105664000Y-69088000D01*
X105664000Y-67779648D01*
X106828711Y-67779648D01*
X106830463Y-67783877D01*
X107008077Y-67892719D01*
X107012451Y-67894948D01*
X107226907Y-67983778D01*
X107231573Y-67985294D01*
X107457287Y-68039483D01*
X107462136Y-68040251D01*
X107693548Y-68058464D01*
X107698452Y-68058464D01*
X107929864Y-68040251D01*
X107934713Y-68039483D01*
X108160427Y-67985294D01*
X108165093Y-67983778D01*
X108379549Y-67894948D01*
X108383923Y-67892719D01*
X108557838Y-67786144D01*
X108562557Y-67779648D01*
X111908711Y-67779648D01*
X111910463Y-67783877D01*
X112088077Y-67892719D01*
X112092451Y-67894948D01*
X112306907Y-67983778D01*
X112311573Y-67985294D01*
X112537287Y-68039483D01*
X112542136Y-68040251D01*
X112773548Y-68058464D01*
X112778452Y-68058464D01*
X113009864Y-68040251D01*
X113014713Y-68039483D01*
X113240427Y-67985294D01*
X113245093Y-67983778D01*
X113459549Y-67894948D01*
X113463923Y-67892719D01*
X113637838Y-67786144D01*
X113643430Y-67778446D01*
X113642714Y-67773924D01*
X112784790Y-66916000D01*
X112776000Y-66912359D01*
X112767210Y-66916000D01*
X111912352Y-67770858D01*
X111908711Y-67779648D01*
X108562557Y-67779648D01*
X108563430Y-67778446D01*
X108562714Y-67773924D01*
X107704790Y-66916000D01*
X107696000Y-66912359D01*
X107687210Y-66916000D01*
X106832352Y-67770858D01*
X106828711Y-67779648D01*
X105664000Y-67779648D01*
X105664000Y-66550452D01*
X106185536Y-66550452D01*
X106203749Y-66781864D01*
X106204517Y-66786713D01*
X106258706Y-67012427D01*
X106260222Y-67017093D01*
X106349052Y-67231549D01*
X106351281Y-67235923D01*
X106457856Y-67409838D01*
X106465554Y-67415430D01*
X106470076Y-67414714D01*
X107328000Y-66556790D01*
X107331641Y-66548000D01*
X108060359Y-66548000D01*
X108064000Y-66556790D01*
X108918858Y-67411648D01*
X108927648Y-67415289D01*
X108931877Y-67413537D01*
X109040719Y-67235923D01*
X109042948Y-67231549D01*
X109131778Y-67017093D01*
X109133294Y-67012427D01*
X109187483Y-66786713D01*
X109188251Y-66781864D01*
X109206464Y-66550452D01*
X111265536Y-66550452D01*
X111283749Y-66781864D01*
X111284517Y-66786713D01*
X111338706Y-67012427D01*
X111340222Y-67017093D01*
X111429052Y-67231549D01*
X111431281Y-67235923D01*
X111537856Y-67409838D01*
X111545554Y-67415430D01*
X111550076Y-67414714D01*
X112408000Y-66556790D01*
X112411641Y-66548000D01*
X113140359Y-66548000D01*
X113144000Y-66556790D01*
X113998858Y-67411648D01*
X114007648Y-67415289D01*
X114011877Y-67413537D01*
X114120719Y-67235923D01*
X114122948Y-67231549D01*
X114211778Y-67017093D01*
X114213294Y-67012427D01*
X114267483Y-66786713D01*
X114268251Y-66781864D01*
X114286464Y-66550452D01*
X114286464Y-66545548D01*
X114268251Y-66314136D01*
X114267483Y-66309287D01*
X114213294Y-66083573D01*
X114211778Y-66078907D01*
X114122948Y-65864451D01*
X114120719Y-65860077D01*
X114014144Y-65686162D01*
X114006446Y-65680570D01*
X114001924Y-65681286D01*
X113144000Y-66539210D01*
X113140359Y-66548000D01*
X112411641Y-66548000D01*
X112408000Y-66539210D01*
X111553142Y-65684352D01*
X111544352Y-65680711D01*
X111540123Y-65682463D01*
X111431281Y-65860077D01*
X111429052Y-65864451D01*
X111340222Y-66078907D01*
X111338706Y-66083573D01*
X111284517Y-66309287D01*
X111283749Y-66314136D01*
X111265536Y-66545548D01*
X111265536Y-66550452D01*
X109206464Y-66550452D01*
X109206464Y-66545548D01*
X109188251Y-66314136D01*
X109187483Y-66309287D01*
X109133294Y-66083573D01*
X109131778Y-66078907D01*
X109042948Y-65864451D01*
X109040719Y-65860077D01*
X108934144Y-65686162D01*
X108926446Y-65680570D01*
X108921924Y-65681286D01*
X108064000Y-66539210D01*
X108060359Y-66548000D01*
X107331641Y-66548000D01*
X107328000Y-66539210D01*
X106473142Y-65684352D01*
X106464352Y-65680711D01*
X106460123Y-65682463D01*
X106351281Y-65860077D01*
X106349052Y-65864451D01*
X106260222Y-66078907D01*
X106258706Y-66083573D01*
X106204517Y-66309287D01*
X106203749Y-66314136D01*
X106185536Y-66545548D01*
X106185536Y-66550452D01*
X105664000Y-66550452D01*
X105664000Y-65317554D01*
X106828570Y-65317554D01*
X106829286Y-65322076D01*
X107687210Y-66180000D01*
X107696000Y-66183641D01*
X107704790Y-66180000D01*
X108559648Y-65325142D01*
X108562791Y-65317554D01*
X111908570Y-65317554D01*
X111909286Y-65322076D01*
X112767210Y-66180000D01*
X112776000Y-66183641D01*
X112784790Y-66180000D01*
X113639648Y-65325142D01*
X113643289Y-65316352D01*
X113641537Y-65312123D01*
X113463923Y-65203281D01*
X113459549Y-65201052D01*
X113245093Y-65112222D01*
X113240427Y-65110706D01*
X113014713Y-65056517D01*
X113009864Y-65055749D01*
X112778452Y-65037536D01*
X112773548Y-65037536D01*
X112542136Y-65055749D01*
X112537287Y-65056517D01*
X112311573Y-65110706D01*
X112306907Y-65112222D01*
X112092451Y-65201052D01*
X112088077Y-65203281D01*
X111914162Y-65309856D01*
X111908570Y-65317554D01*
X108562791Y-65317554D01*
X108563289Y-65316352D01*
X108561537Y-65312123D01*
X108383923Y-65203281D01*
X108379549Y-65201052D01*
X108165093Y-65112222D01*
X108160427Y-65110706D01*
X107934713Y-65056517D01*
X107929864Y-65055749D01*
X107698452Y-65037536D01*
X107693548Y-65037536D01*
X107462136Y-65055749D01*
X107457287Y-65056517D01*
X107231573Y-65110706D01*
X107226907Y-65112222D01*
X107012451Y-65201052D01*
X107008077Y-65203281D01*
X106834162Y-65309856D01*
X106828570Y-65317554D01*
X105664000Y-65317554D01*
X105664000Y-64578500D01*
X105682306Y-64534306D01*
X105726500Y-64516000D01*
X140145500Y-64516000D01*
X140189694Y-64534306D01*
G37*
%TD.AperFunction*%
%TD*%
M02*
