M48
; DRILL file {KiCad (6.0.0)} date Sun Dec 26 21:08:45 2021
; FORMAT={-:-/ absolute / inch / decimal}
; #@! TF.CreationDate,2021-12-26T21:08:45+01:00
; #@! TF.GenerationSoftware,Kicad,Pcbnew,(6.0.0)
; #@! TF.FileFunction,Plated,1,4,PTH
FMAT,2
INCH
; #@! TA.AperFunction,Plated,PTH,ComponentDrill
T1C0.0118
; #@! TA.AperFunction,Plated,PTH,ViaDrill
T2C0.0130
; #@! TA.AperFunction,Plated,PTH,ViaDrill
T3C0.0150
; #@! TA.AperFunction,Plated,PTH,ComponentDrill
T4C0.0394
; #@! TA.AperFunction,Plated,PTH,ComponentDrill
T5C0.0591
; #@! TA.AperFunction,Plated,PTH,ComponentDrill
T6C0.0669
%
G90
G05
T1
X4.2965Y-3.036
X4.3835Y-3.036
T2
X4.23Y-3.34
X4.53Y-3.26
X4.53Y-3.44
X4.53Y-3.6
X4.53Y-3.78
X4.53Y-3.84
X4.53Y-3.96
X4.54Y-4.36
X4.55Y-3.19
X4.562Y-3.6
X4.585Y-3.155
X4.59Y-3.88
X4.6Y-3.185
X4.72Y-4.265
X4.8Y-3.66
X4.91Y-4.12
X5.04Y-3.19
X5.05Y-3.62
X5.0625Y-4.5975
X5.065Y-4.72
X5.11Y-4.39
X5.166Y-4.72
X5.1759Y-3.0841
X5.183Y-4.66
X5.19Y-2.91
X5.19Y-4.53
X5.23Y-3.26
X5.23Y-4.53
X5.2319Y-4.3881
X5.244Y-4.706
X5.245Y-4.66
X5.335Y-4.705
X5.34Y-4.03
T3
X4.91Y-2.69
X4.91Y-2.745
X4.91Y-2.8
X5.09Y-2.69
X5.09Y-2.745
X5.09Y-2.8
X5.27Y-2.69
X5.27Y-2.745
X5.27Y-2.8
T4
X4.25Y-4.55
X4.25Y-4.81
X4.25Y-4.91
X4.35Y-4.55
X4.35Y-4.81
X4.35Y-4.91
X4.45Y-4.55
X4.45Y-4.81
X4.45Y-4.91
X4.55Y-4.81
X4.55Y-4.91
X4.65Y-4.55
X4.65Y-4.81
X4.65Y-4.91
X4.75Y-4.55
X4.75Y-4.81
X4.75Y-4.91
X4.85Y-4.55
X4.85Y-4.81
X4.85Y-4.91
X4.95Y-4.81
X4.95Y-4.91
T5
X4.34Y-2.72
T6
X4.24Y-2.62
X4.24Y-2.82
X4.44Y-2.62
X4.44Y-2.82
T0
M30
