%TF.GenerationSoftware,KiCad,Pcbnew,(6.0.0)*%
%TF.CreationDate,2021-12-26T21:14:17+01:00*%
%TF.ProjectId,TRX_Board,5452585f-426f-4617-9264-2e6b69636164,V 1.0*%
%TF.SameCoordinates,Original*%
%TF.FileFunction,Soldermask,Bot*%
%TF.FilePolarity,Negative*%
%FSLAX46Y46*%
G04 Gerber Fmt 4.6, Leading zero omitted, Abs format (unit mm)*
G04 Created by KiCad (PCBNEW (6.0.0)) date 2021-12-26 21:14:17*
%MOMM*%
%LPD*%
G01*
G04 APERTURE LIST*
G04 Aperture macros list*
%AMRoundRect*
0 Rectangle with rounded corners*
0 $1 Rounding radius*
0 $2 $3 $4 $5 $6 $7 $8 $9 X,Y pos of 4 corners*
0 Add a 4 corners polygon primitive as box body*
4,1,4,$2,$3,$4,$5,$6,$7,$8,$9,$2,$3,0*
0 Add four circle primitives for the rounded corners*
1,1,$1+$1,$2,$3*
1,1,$1+$1,$4,$5*
1,1,$1+$1,$6,$7*
1,1,$1+$1,$8,$9*
0 Add four rect primitives between the rounded corners*
20,1,$1+$1,$2,$3,$4,$5,0*
20,1,$1+$1,$4,$5,$6,$7,0*
20,1,$1+$1,$6,$7,$8,$9,0*
20,1,$1+$1,$8,$9,$2,$3,0*%
G04 Aperture macros list end*
%ADD10R,4.000000X2.000000*%
%ADD11R,2.000000X4.000000*%
%ADD12R,6.600000X6.500000*%
%ADD13R,8.000000X4.000000*%
%ADD14C,2.050000*%
%ADD15C,2.250000*%
%ADD16R,1.700000X1.700000*%
%ADD17O,1.700000X1.700000*%
%ADD18RoundRect,0.249600X0.650400X-0.270400X0.650400X0.270400X-0.650400X0.270400X-0.650400X-0.270400X0*%
%ADD19RoundRect,0.152500X0.470000X-0.152500X0.470000X0.152500X-0.470000X0.152500X-0.470000X-0.152500X0*%
%ADD20C,0.610000*%
G04 APERTURE END LIST*
D10*
%TO.C,U3*%
X135700000Y-100650000D03*
X135700000Y-96200000D03*
X135700000Y-91750000D03*
X135700000Y-87300000D03*
X135700000Y-82850000D03*
X135700000Y-78400000D03*
X135700000Y-73950000D03*
D11*
X133858000Y-69774000D03*
X129286000Y-69774000D03*
X124714000Y-69774000D03*
X120142000Y-69774000D03*
D10*
X118300000Y-73950000D03*
X118300000Y-78400000D03*
X118300000Y-82850000D03*
X118300000Y-87300000D03*
X118300000Y-91750000D03*
X118300000Y-96200000D03*
X118300000Y-100650000D03*
D12*
X127000000Y-76200000D03*
D13*
X133858000Y-105588000D03*
X120142000Y-105588000D03*
%TD*%
D14*
%TO.C,J2*%
X110236000Y-69088000D03*
D15*
X107696000Y-66548000D03*
X112776000Y-71628000D03*
X112776000Y-66548000D03*
X107696000Y-71628000D03*
%TD*%
D16*
%TO.C,J3*%
X107950000Y-115570000D03*
D17*
X110490000Y-115570000D03*
X113030000Y-115570000D03*
%TD*%
D16*
%TO.C,J1*%
X107950000Y-124714000D03*
D17*
X107950000Y-122174000D03*
X110490000Y-124714000D03*
X110490000Y-122174000D03*
X113030000Y-124714000D03*
X113030000Y-122174000D03*
X115570000Y-124714000D03*
X115570000Y-122174000D03*
X118110000Y-124714000D03*
X118110000Y-122174000D03*
X120650000Y-124714000D03*
X120650000Y-122174000D03*
X123190000Y-124714000D03*
X123190000Y-122174000D03*
X125730000Y-124714000D03*
X125730000Y-122174000D03*
%TD*%
D16*
%TO.C,J4*%
X118110000Y-115570000D03*
D17*
X120650000Y-115570000D03*
X123190000Y-115570000D03*
%TD*%
D18*
%TO.C,FL1*%
X110236000Y-78740000D03*
D19*
X109308500Y-77115000D03*
D20*
X109131000Y-77115000D03*
D18*
X110236000Y-75490000D03*
D20*
X111341000Y-77115000D03*
D19*
X111163500Y-77115000D03*
%TD*%
M02*
