%FSLAX45Y45*%
G04 Gerber Fmt 4.5, Leading zero omitted, Abs format (unit mm)*
G04 Created by KiCad (PCBNEW (6.0.0)) date 2021-12-26 21:08:47*
%MOMM*%
%LPD*%
G01*
G04 APERTURE LIST*
%TA.AperFunction,Profile*%
%ADD10C,0.050000*%
%TD*%
%ADD11C,0.200000*%
%ADD12C,0.030000*%
%ADD13C,0.033020*%
%ADD14C,0.038100*%
%ADD15C,0.100000*%
%ADD16C,0.150000*%
%ADD17C,0.170000*%
G04 APERTURE END LIST*
D10*
X10541000Y-12700000D02*
X10541000Y-6426200D01*
X14859000Y-12700000D02*
X14859000Y-12700000D01*
X10541000Y-6426200D02*
X14046200Y-6426200D01*
X14046200Y-6426200D02*
X14046200Y-12700000D01*
X14046200Y-12700000D02*
X10541000Y-12700000D01*
D11*
D12*
X10898100Y-7696500D02*
X10928100Y-7726500D01*
X10928100Y-7696500D02*
X10898100Y-7726500D01*
X11119100Y-7696500D02*
X11149100Y-7726500D01*
X11149100Y-7696500D02*
X11119100Y-7726500D01*
D13*
X10760710Y-8483600D02*
G75*
G03*
X10760710Y-8483600I-16510J0D01*
G01*
X11522710Y-8280400D02*
G75*
G03*
X11522710Y-8280400I-16510J0D01*
G01*
X11522710Y-8737600D02*
G75*
G03*
X11522710Y-8737600I-16510J0D01*
G01*
X11522710Y-9144000D02*
G75*
G03*
X11522710Y-9144000I-16510J0D01*
G01*
X11522710Y-9601200D02*
G75*
G03*
X11522710Y-9601200I-16510J0D01*
G01*
X11522710Y-9753600D02*
G75*
G03*
X11522710Y-9753600I-16510J0D01*
G01*
X11522710Y-10058400D02*
G75*
G03*
X11522710Y-10058400I-16510J0D01*
G01*
X11548110Y-11074400D02*
G75*
G03*
X11548110Y-11074400I-16510J0D01*
G01*
X11573510Y-8102600D02*
G75*
G03*
X11573510Y-8102600I-16510J0D01*
G01*
X11603940Y-9144000D02*
G75*
G03*
X11603940Y-9144000I-16510J0D01*
G01*
X11662410Y-8013700D02*
G75*
G03*
X11662410Y-8013700I-16510J0D01*
G01*
X11675110Y-9855200D02*
G75*
G03*
X11675110Y-9855200I-16510J0D01*
G01*
X11700510Y-8089900D02*
G75*
G03*
X11700510Y-8089900I-16510J0D01*
G01*
X12005310Y-10833100D02*
G75*
G03*
X12005310Y-10833100I-16510J0D01*
G01*
X12208510Y-9296400D02*
G75*
G03*
X12208510Y-9296400I-16510J0D01*
G01*
X12487910Y-10464800D02*
G75*
G03*
X12487910Y-10464800I-16510J0D01*
G01*
X12818110Y-8102600D02*
G75*
G03*
X12818110Y-8102600I-16510J0D01*
G01*
X12843510Y-9194800D02*
G75*
G03*
X12843510Y-9194800I-16510J0D01*
G01*
X12875260Y-11677650D02*
G75*
G03*
X12875260Y-11677650I-16510J0D01*
G01*
X12881610Y-11988800D02*
G75*
G03*
X12881610Y-11988800I-16510J0D01*
G01*
X12995910Y-11150600D02*
G75*
G03*
X12995910Y-11150600I-16510J0D01*
G01*
X13138150Y-11988800D02*
G75*
G03*
X13138150Y-11988800I-16510J0D01*
G01*
X13163360Y-7833550D02*
G75*
G03*
X13163360Y-7833550I-16510J0D01*
G01*
X13181330Y-11836400D02*
G75*
G03*
X13181330Y-11836400I-16510J0D01*
G01*
X13199110Y-7391400D02*
G75*
G03*
X13199110Y-7391400I-16510J0D01*
G01*
X13199110Y-11506200D02*
G75*
G03*
X13199110Y-11506200I-16510J0D01*
G01*
X13300710Y-8280400D02*
G75*
G03*
X13300710Y-8280400I-16510J0D01*
G01*
X13300710Y-11506200D02*
G75*
G03*
X13300710Y-11506200I-16510J0D01*
G01*
X13305410Y-11145900D02*
G75*
G03*
X13305410Y-11145900I-16510J0D01*
G01*
X13336270Y-11953240D02*
G75*
G03*
X13336270Y-11953240I-16510J0D01*
G01*
X13338810Y-11836400D02*
G75*
G03*
X13338810Y-11836400I-16510J0D01*
G01*
X13567410Y-11950700D02*
G75*
G03*
X13567410Y-11950700I-16510J0D01*
G01*
X13580110Y-10236200D02*
G75*
G03*
X13580110Y-10236200I-16510J0D01*
G01*
D14*
X12471400Y-6813550D02*
X12471400Y-6851650D01*
X12452350Y-6832600D02*
X12490450Y-6832600D01*
X12471400Y-6953250D02*
X12471400Y-6991350D01*
X12452350Y-6972300D02*
X12490450Y-6972300D01*
X12471400Y-7092950D02*
X12471400Y-7131050D01*
X12452350Y-7112000D02*
X12490450Y-7112000D01*
X12928600Y-6813550D02*
X12928600Y-6851650D01*
X12909550Y-6832600D02*
X12947650Y-6832600D01*
X12928600Y-6953250D02*
X12928600Y-6991350D01*
X12909550Y-6972300D02*
X12947650Y-6972300D01*
X12928600Y-7092950D02*
X12928600Y-7131050D01*
X12909550Y-7112000D02*
X12947650Y-7112000D01*
X13385800Y-6813550D02*
X13385800Y-6851650D01*
X13366750Y-6832600D02*
X13404850Y-6832600D01*
X13385800Y-6953250D02*
X13385800Y-6991350D01*
X13366750Y-6972300D02*
X13404850Y-6972300D01*
X13385800Y-7092950D02*
X13385800Y-7131050D01*
X13366750Y-7112000D02*
X13404850Y-7112000D01*
D15*
X10830356Y-11592356D02*
X10830356Y-11521644D01*
X10759644Y-11521644D01*
X10759644Y-11592356D01*
X10830356Y-11592356D01*
X10830356Y-12252756D02*
X10830356Y-12182044D01*
X10759644Y-12182044D01*
X10759644Y-12252756D01*
X10830356Y-12252756D01*
X10830356Y-12506756D02*
X10830356Y-12436044D01*
X10759644Y-12436044D01*
X10759644Y-12506756D01*
X10830356Y-12506756D01*
X11084356Y-11592356D02*
X11084356Y-11521644D01*
X11013644Y-11521644D01*
X11013644Y-11592356D01*
X11084356Y-11592356D01*
X11084356Y-12252756D02*
X11084356Y-12182044D01*
X11013644Y-12182044D01*
X11013644Y-12252756D01*
X11084356Y-12252756D01*
X11084356Y-12506756D02*
X11084356Y-12436044D01*
X11013644Y-12436044D01*
X11013644Y-12506756D01*
X11084356Y-12506756D01*
X11338356Y-11592356D02*
X11338356Y-11521644D01*
X11267644Y-11521644D01*
X11267644Y-11592356D01*
X11338356Y-11592356D01*
X11338356Y-12252756D02*
X11338356Y-12182044D01*
X11267644Y-12182044D01*
X11267644Y-12252756D01*
X11338356Y-12252756D01*
X11338356Y-12506756D02*
X11338356Y-12436044D01*
X11267644Y-12436044D01*
X11267644Y-12506756D01*
X11338356Y-12506756D01*
X11592356Y-12252756D02*
X11592356Y-12182044D01*
X11521644Y-12182044D01*
X11521644Y-12252756D01*
X11592356Y-12252756D01*
X11592356Y-12506756D02*
X11592356Y-12436044D01*
X11521644Y-12436044D01*
X11521644Y-12506756D01*
X11592356Y-12506756D01*
X11846356Y-11592356D02*
X11846356Y-11521644D01*
X11775644Y-11521644D01*
X11775644Y-11592356D01*
X11846356Y-11592356D01*
X11846356Y-12252756D02*
X11846356Y-12182044D01*
X11775644Y-12182044D01*
X11775644Y-12252756D01*
X11846356Y-12252756D01*
X11846356Y-12506756D02*
X11846356Y-12436044D01*
X11775644Y-12436044D01*
X11775644Y-12506756D01*
X11846356Y-12506756D01*
X12100356Y-11592356D02*
X12100356Y-11521644D01*
X12029644Y-11521644D01*
X12029644Y-11592356D01*
X12100356Y-11592356D01*
X12100356Y-12252756D02*
X12100356Y-12182044D01*
X12029644Y-12182044D01*
X12029644Y-12252756D01*
X12100356Y-12252756D01*
X12100356Y-12506756D02*
X12100356Y-12436044D01*
X12029644Y-12436044D01*
X12029644Y-12506756D01*
X12100356Y-12506756D01*
X12354356Y-11592356D02*
X12354356Y-11521644D01*
X12283644Y-11521644D01*
X12283644Y-11592356D01*
X12354356Y-11592356D01*
X12354356Y-12252756D02*
X12354356Y-12182044D01*
X12283644Y-12182044D01*
X12283644Y-12252756D01*
X12354356Y-12252756D01*
X12354356Y-12506756D02*
X12354356Y-12436044D01*
X12283644Y-12436044D01*
X12283644Y-12506756D01*
X12354356Y-12506756D01*
X12608356Y-12252756D02*
X12608356Y-12182044D01*
X12537644Y-12182044D01*
X12537644Y-12252756D01*
X12608356Y-12252756D01*
X12608356Y-12506756D02*
X12608356Y-12436044D01*
X12537644Y-12436044D01*
X12537644Y-12506756D01*
X12608356Y-12506756D01*
D16*
X11023600Y-6983800D02*
X11098600Y-6908800D01*
X11023600Y-6833800D01*
X10948600Y-6908800D01*
X11023600Y-6983800D01*
D17*
X10684600Y-6569800D02*
X10854600Y-6739800D01*
X10854600Y-6569800D02*
X10684600Y-6739800D01*
X10854600Y-6654800D02*
G75*
G03*
X10854600Y-6654800I-85000J0D01*
G01*
X10684600Y-7077800D02*
X10854600Y-7247800D01*
X10854600Y-7077800D02*
X10684600Y-7247800D01*
X10854600Y-7162800D02*
G75*
G03*
X10854600Y-7162800I-85000J0D01*
G01*
X11192600Y-6569800D02*
X11362600Y-6739800D01*
X11362600Y-6569800D02*
X11192600Y-6739800D01*
X11362600Y-6654800D02*
G75*
G03*
X11362600Y-6654800I-85000J0D01*
G01*
X11192600Y-7077800D02*
X11362600Y-7247800D01*
X11362600Y-7077800D02*
X11192600Y-7247800D01*
X11362600Y-7162800D02*
G75*
G03*
X11362600Y-7162800I-85000J0D01*
G01*
D11*
X10796119Y-13012976D02*
X10796119Y-12812976D01*
X10843738Y-12812976D01*
X10872310Y-12822500D01*
X10891357Y-12841548D01*
X10900881Y-12860595D01*
X10910405Y-12898690D01*
X10910405Y-12927262D01*
X10900881Y-12965357D01*
X10891357Y-12984405D01*
X10872310Y-13003452D01*
X10843738Y-13012976D01*
X10796119Y-13012976D01*
X10996119Y-13012976D02*
X10996119Y-12879643D01*
X10996119Y-12917738D02*
X11005643Y-12898690D01*
X11015167Y-12889167D01*
X11034214Y-12879643D01*
X11053262Y-12879643D01*
X11119929Y-13012976D02*
X11119929Y-12879643D01*
X11119929Y-12812976D02*
X11110405Y-12822500D01*
X11119929Y-12832024D01*
X11129452Y-12822500D01*
X11119929Y-12812976D01*
X11119929Y-12832024D01*
X11243738Y-13012976D02*
X11224690Y-13003452D01*
X11215167Y-12984405D01*
X11215167Y-12812976D01*
X11348500Y-13012976D02*
X11329452Y-13003452D01*
X11319928Y-12984405D01*
X11319928Y-12812976D01*
X11577071Y-13012976D02*
X11577071Y-12812976D01*
X11643738Y-12955833D01*
X11710405Y-12812976D01*
X11710405Y-13012976D01*
X11891357Y-13012976D02*
X11891357Y-12908214D01*
X11881833Y-12889167D01*
X11862786Y-12879643D01*
X11824690Y-12879643D01*
X11805643Y-12889167D01*
X11891357Y-13003452D02*
X11872309Y-13012976D01*
X11824690Y-13012976D01*
X11805643Y-13003452D01*
X11796119Y-12984405D01*
X11796119Y-12965357D01*
X11805643Y-12946309D01*
X11824690Y-12936786D01*
X11872309Y-12936786D01*
X11891357Y-12927262D01*
X11986595Y-12879643D02*
X11986595Y-13079643D01*
X11986595Y-12889167D02*
X12005643Y-12879643D01*
X12043738Y-12879643D01*
X12062786Y-12889167D01*
X12072309Y-12898690D01*
X12081833Y-12917738D01*
X12081833Y-12974881D01*
X12072309Y-12993928D01*
X12062786Y-13003452D01*
X12043738Y-13012976D01*
X12005643Y-13012976D01*
X11986595Y-13003452D01*
X12167548Y-12993928D02*
X12177071Y-13003452D01*
X12167548Y-13012976D01*
X12158024Y-13003452D01*
X12167548Y-12993928D01*
X12167548Y-13012976D01*
X12167548Y-12889167D02*
X12177071Y-12898690D01*
X12167548Y-12908214D01*
X12158024Y-12898690D01*
X12167548Y-12889167D01*
X12167548Y-12908214D01*
D12*
X10508500Y-13327500D02*
X10538500Y-13357500D01*
X10538500Y-13327500D02*
X10508500Y-13357500D01*
D11*
X10834214Y-13232976D02*
X10853262Y-13232976D01*
X10872310Y-13242500D01*
X10881833Y-13252024D01*
X10891357Y-13271071D01*
X10900881Y-13309167D01*
X10900881Y-13356786D01*
X10891357Y-13394881D01*
X10881833Y-13413928D01*
X10872310Y-13423452D01*
X10853262Y-13432976D01*
X10834214Y-13432976D01*
X10815167Y-13423452D01*
X10805643Y-13413928D01*
X10796119Y-13394881D01*
X10786595Y-13356786D01*
X10786595Y-13309167D01*
X10796119Y-13271071D01*
X10805643Y-13252024D01*
X10815167Y-13242500D01*
X10834214Y-13232976D01*
X10986595Y-13413928D02*
X10996119Y-13423452D01*
X10986595Y-13432976D01*
X10977071Y-13423452D01*
X10986595Y-13413928D01*
X10986595Y-13432976D01*
X11062786Y-13232976D02*
X11186595Y-13232976D01*
X11119929Y-13309167D01*
X11148500Y-13309167D01*
X11167548Y-13318690D01*
X11177071Y-13328214D01*
X11186595Y-13347262D01*
X11186595Y-13394881D01*
X11177071Y-13413928D01*
X11167548Y-13423452D01*
X11148500Y-13432976D01*
X11091357Y-13432976D01*
X11072310Y-13423452D01*
X11062786Y-13413928D01*
X11310405Y-13232976D02*
X11329452Y-13232976D01*
X11348500Y-13242500D01*
X11358024Y-13252024D01*
X11367548Y-13271071D01*
X11377071Y-13309167D01*
X11377071Y-13356786D01*
X11367548Y-13394881D01*
X11358024Y-13413928D01*
X11348500Y-13423452D01*
X11329452Y-13432976D01*
X11310405Y-13432976D01*
X11291357Y-13423452D01*
X11281833Y-13413928D01*
X11272309Y-13394881D01*
X11262786Y-13356786D01*
X11262786Y-13309167D01*
X11272309Y-13271071D01*
X11281833Y-13252024D01*
X11291357Y-13242500D01*
X11310405Y-13232976D01*
X11500881Y-13232976D02*
X11519928Y-13232976D01*
X11538976Y-13242500D01*
X11548500Y-13252024D01*
X11558024Y-13271071D01*
X11567548Y-13309167D01*
X11567548Y-13356786D01*
X11558024Y-13394881D01*
X11548500Y-13413928D01*
X11538976Y-13423452D01*
X11519928Y-13432976D01*
X11500881Y-13432976D01*
X11481833Y-13423452D01*
X11472309Y-13413928D01*
X11462786Y-13394881D01*
X11453262Y-13356786D01*
X11453262Y-13309167D01*
X11462786Y-13271071D01*
X11472309Y-13252024D01*
X11481833Y-13242500D01*
X11500881Y-13232976D01*
X11653262Y-13432976D02*
X11653262Y-13299643D01*
X11653262Y-13318690D02*
X11662786Y-13309167D01*
X11681833Y-13299643D01*
X11710405Y-13299643D01*
X11729452Y-13309167D01*
X11738976Y-13328214D01*
X11738976Y-13432976D01*
X11738976Y-13328214D02*
X11748500Y-13309167D01*
X11767548Y-13299643D01*
X11796119Y-13299643D01*
X11815167Y-13309167D01*
X11824690Y-13328214D01*
X11824690Y-13432976D01*
X11919928Y-13432976D02*
X11919928Y-13299643D01*
X11919928Y-13318690D02*
X11929452Y-13309167D01*
X11948500Y-13299643D01*
X11977071Y-13299643D01*
X11996119Y-13309167D01*
X12005643Y-13328214D01*
X12005643Y-13432976D01*
X12005643Y-13328214D02*
X12015167Y-13309167D01*
X12034214Y-13299643D01*
X12062786Y-13299643D01*
X12081833Y-13309167D01*
X12091357Y-13328214D01*
X12091357Y-13432976D01*
X12481833Y-13223452D02*
X12310405Y-13480595D01*
X12738976Y-13232976D02*
X12758024Y-13232976D01*
X12777071Y-13242500D01*
X12786595Y-13252024D01*
X12796119Y-13271071D01*
X12805643Y-13309167D01*
X12805643Y-13356786D01*
X12796119Y-13394881D01*
X12786595Y-13413928D01*
X12777071Y-13423452D01*
X12758024Y-13432976D01*
X12738976Y-13432976D01*
X12719928Y-13423452D01*
X12710405Y-13413928D01*
X12700881Y-13394881D01*
X12691357Y-13356786D01*
X12691357Y-13309167D01*
X12700881Y-13271071D01*
X12710405Y-13252024D01*
X12719928Y-13242500D01*
X12738976Y-13232976D01*
X12891357Y-13413928D02*
X12900881Y-13423452D01*
X12891357Y-13432976D01*
X12881833Y-13423452D01*
X12891357Y-13413928D01*
X12891357Y-13432976D01*
X13024690Y-13232976D02*
X13043738Y-13232976D01*
X13062786Y-13242500D01*
X13072309Y-13252024D01*
X13081833Y-13271071D01*
X13091357Y-13309167D01*
X13091357Y-13356786D01*
X13081833Y-13394881D01*
X13072309Y-13413928D01*
X13062786Y-13423452D01*
X13043738Y-13432976D01*
X13024690Y-13432976D01*
X13005643Y-13423452D01*
X12996119Y-13413928D01*
X12986595Y-13394881D01*
X12977071Y-13356786D01*
X12977071Y-13309167D01*
X12986595Y-13271071D01*
X12996119Y-13252024D01*
X13005643Y-13242500D01*
X13024690Y-13232976D01*
X13281833Y-13432976D02*
X13167548Y-13432976D01*
X13224690Y-13432976D02*
X13224690Y-13232976D01*
X13205643Y-13261548D01*
X13186595Y-13280595D01*
X13167548Y-13290119D01*
X13472309Y-13432976D02*
X13358024Y-13432976D01*
X13415167Y-13432976D02*
X13415167Y-13232976D01*
X13396119Y-13261548D01*
X13377071Y-13280595D01*
X13358024Y-13290119D01*
X13586595Y-13318690D02*
X13567548Y-13309167D01*
X13558024Y-13299643D01*
X13548500Y-13280595D01*
X13548500Y-13271071D01*
X13558024Y-13252024D01*
X13567548Y-13242500D01*
X13586595Y-13232976D01*
X13624690Y-13232976D01*
X13643738Y-13242500D01*
X13653262Y-13252024D01*
X13662786Y-13271071D01*
X13662786Y-13280595D01*
X13653262Y-13299643D01*
X13643738Y-13309167D01*
X13624690Y-13318690D01*
X13586595Y-13318690D01*
X13567548Y-13328214D01*
X13558024Y-13337738D01*
X13548500Y-13356786D01*
X13548500Y-13394881D01*
X13558024Y-13413928D01*
X13567548Y-13423452D01*
X13586595Y-13432976D01*
X13624690Y-13432976D01*
X13643738Y-13423452D01*
X13653262Y-13413928D01*
X13662786Y-13394881D01*
X13662786Y-13356786D01*
X13653262Y-13337738D01*
X13643738Y-13328214D01*
X13624690Y-13318690D01*
X13738976Y-13232976D02*
X13738976Y-13271071D01*
X13815167Y-13232976D02*
X13815167Y-13271071D01*
X14110405Y-13509167D02*
X14100881Y-13499643D01*
X14081833Y-13471071D01*
X14072309Y-13452024D01*
X14062786Y-13423452D01*
X14053262Y-13375833D01*
X14053262Y-13337738D01*
X14062786Y-13290119D01*
X14072309Y-13261548D01*
X14081833Y-13242500D01*
X14100881Y-13213928D01*
X14110405Y-13204405D01*
X14177071Y-13252024D02*
X14186595Y-13242500D01*
X14205643Y-13232976D01*
X14253262Y-13232976D01*
X14272309Y-13242500D01*
X14281833Y-13252024D01*
X14291357Y-13271071D01*
X14291357Y-13290119D01*
X14281833Y-13318690D01*
X14167548Y-13432976D01*
X14291357Y-13432976D01*
X14529452Y-13432976D02*
X14529452Y-13232976D01*
X14615167Y-13432976D02*
X14615167Y-13328214D01*
X14605643Y-13309167D01*
X14586595Y-13299643D01*
X14558024Y-13299643D01*
X14538976Y-13309167D01*
X14529452Y-13318690D01*
X14738976Y-13432976D02*
X14719928Y-13423452D01*
X14710405Y-13413928D01*
X14700881Y-13394881D01*
X14700881Y-13337738D01*
X14710405Y-13318690D01*
X14719928Y-13309167D01*
X14738976Y-13299643D01*
X14767548Y-13299643D01*
X14786595Y-13309167D01*
X14796119Y-13318690D01*
X14805643Y-13337738D01*
X14805643Y-13394881D01*
X14796119Y-13413928D01*
X14786595Y-13423452D01*
X14767548Y-13432976D01*
X14738976Y-13432976D01*
X14919928Y-13432976D02*
X14900881Y-13423452D01*
X14891357Y-13404405D01*
X14891357Y-13232976D01*
X15072309Y-13423452D02*
X15053262Y-13432976D01*
X15015167Y-13432976D01*
X14996119Y-13423452D01*
X14986595Y-13404405D01*
X14986595Y-13328214D01*
X14996119Y-13309167D01*
X15015167Y-13299643D01*
X15053262Y-13299643D01*
X15072309Y-13309167D01*
X15081833Y-13328214D01*
X15081833Y-13347262D01*
X14986595Y-13366309D01*
X15158024Y-13423452D02*
X15177071Y-13432976D01*
X15215167Y-13432976D01*
X15234214Y-13423452D01*
X15243738Y-13404405D01*
X15243738Y-13394881D01*
X15234214Y-13375833D01*
X15215167Y-13366309D01*
X15186595Y-13366309D01*
X15167548Y-13356786D01*
X15158024Y-13337738D01*
X15158024Y-13328214D01*
X15167548Y-13309167D01*
X15186595Y-13299643D01*
X15215167Y-13299643D01*
X15234214Y-13309167D01*
X15310405Y-13509167D02*
X15319928Y-13499643D01*
X15338976Y-13471071D01*
X15348500Y-13452024D01*
X15358024Y-13423452D01*
X15367548Y-13375833D01*
X15367548Y-13337738D01*
X15358024Y-13290119D01*
X15348500Y-13261548D01*
X15338976Y-13242500D01*
X15319928Y-13213928D01*
X15310405Y-13204405D01*
D13*
X10538500Y-13606500D02*
G75*
G03*
X10538500Y-13606500I-16510J0D01*
G01*
D11*
X10834214Y-13496976D02*
X10853262Y-13496976D01*
X10872310Y-13506500D01*
X10881833Y-13516024D01*
X10891357Y-13535071D01*
X10900881Y-13573167D01*
X10900881Y-13620786D01*
X10891357Y-13658881D01*
X10881833Y-13677928D01*
X10872310Y-13687452D01*
X10853262Y-13696976D01*
X10834214Y-13696976D01*
X10815167Y-13687452D01*
X10805643Y-13677928D01*
X10796119Y-13658881D01*
X10786595Y-13620786D01*
X10786595Y-13573167D01*
X10796119Y-13535071D01*
X10805643Y-13516024D01*
X10815167Y-13506500D01*
X10834214Y-13496976D01*
X10986595Y-13677928D02*
X10996119Y-13687452D01*
X10986595Y-13696976D01*
X10977071Y-13687452D01*
X10986595Y-13677928D01*
X10986595Y-13696976D01*
X11062786Y-13496976D02*
X11186595Y-13496976D01*
X11119929Y-13573167D01*
X11148500Y-13573167D01*
X11167548Y-13582690D01*
X11177071Y-13592214D01*
X11186595Y-13611262D01*
X11186595Y-13658881D01*
X11177071Y-13677928D01*
X11167548Y-13687452D01*
X11148500Y-13696976D01*
X11091357Y-13696976D01*
X11072310Y-13687452D01*
X11062786Y-13677928D01*
X11253262Y-13496976D02*
X11377071Y-13496976D01*
X11310405Y-13573167D01*
X11338976Y-13573167D01*
X11358024Y-13582690D01*
X11367548Y-13592214D01*
X11377071Y-13611262D01*
X11377071Y-13658881D01*
X11367548Y-13677928D01*
X11358024Y-13687452D01*
X11338976Y-13696976D01*
X11281833Y-13696976D01*
X11262786Y-13687452D01*
X11253262Y-13677928D01*
X11500881Y-13496976D02*
X11519928Y-13496976D01*
X11538976Y-13506500D01*
X11548500Y-13516024D01*
X11558024Y-13535071D01*
X11567548Y-13573167D01*
X11567548Y-13620786D01*
X11558024Y-13658881D01*
X11548500Y-13677928D01*
X11538976Y-13687452D01*
X11519928Y-13696976D01*
X11500881Y-13696976D01*
X11481833Y-13687452D01*
X11472309Y-13677928D01*
X11462786Y-13658881D01*
X11453262Y-13620786D01*
X11453262Y-13573167D01*
X11462786Y-13535071D01*
X11472309Y-13516024D01*
X11481833Y-13506500D01*
X11500881Y-13496976D01*
X11653262Y-13696976D02*
X11653262Y-13563643D01*
X11653262Y-13582690D02*
X11662786Y-13573167D01*
X11681833Y-13563643D01*
X11710405Y-13563643D01*
X11729452Y-13573167D01*
X11738976Y-13592214D01*
X11738976Y-13696976D01*
X11738976Y-13592214D02*
X11748500Y-13573167D01*
X11767548Y-13563643D01*
X11796119Y-13563643D01*
X11815167Y-13573167D01*
X11824690Y-13592214D01*
X11824690Y-13696976D01*
X11919928Y-13696976D02*
X11919928Y-13563643D01*
X11919928Y-13582690D02*
X11929452Y-13573167D01*
X11948500Y-13563643D01*
X11977071Y-13563643D01*
X11996119Y-13573167D01*
X12005643Y-13592214D01*
X12005643Y-13696976D01*
X12005643Y-13592214D02*
X12015167Y-13573167D01*
X12034214Y-13563643D01*
X12062786Y-13563643D01*
X12081833Y-13573167D01*
X12091357Y-13592214D01*
X12091357Y-13696976D01*
X12481833Y-13487452D02*
X12310405Y-13744595D01*
X12738976Y-13496976D02*
X12758024Y-13496976D01*
X12777071Y-13506500D01*
X12786595Y-13516024D01*
X12796119Y-13535071D01*
X12805643Y-13573167D01*
X12805643Y-13620786D01*
X12796119Y-13658881D01*
X12786595Y-13677928D01*
X12777071Y-13687452D01*
X12758024Y-13696976D01*
X12738976Y-13696976D01*
X12719928Y-13687452D01*
X12710405Y-13677928D01*
X12700881Y-13658881D01*
X12691357Y-13620786D01*
X12691357Y-13573167D01*
X12700881Y-13535071D01*
X12710405Y-13516024D01*
X12719928Y-13506500D01*
X12738976Y-13496976D01*
X12891357Y-13677928D02*
X12900881Y-13687452D01*
X12891357Y-13696976D01*
X12881833Y-13687452D01*
X12891357Y-13677928D01*
X12891357Y-13696976D01*
X13024690Y-13496976D02*
X13043738Y-13496976D01*
X13062786Y-13506500D01*
X13072309Y-13516024D01*
X13081833Y-13535071D01*
X13091357Y-13573167D01*
X13091357Y-13620786D01*
X13081833Y-13658881D01*
X13072309Y-13677928D01*
X13062786Y-13687452D01*
X13043738Y-13696976D01*
X13024690Y-13696976D01*
X13005643Y-13687452D01*
X12996119Y-13677928D01*
X12986595Y-13658881D01*
X12977071Y-13620786D01*
X12977071Y-13573167D01*
X12986595Y-13535071D01*
X12996119Y-13516024D01*
X13005643Y-13506500D01*
X13024690Y-13496976D01*
X13281833Y-13696976D02*
X13167548Y-13696976D01*
X13224690Y-13696976D02*
X13224690Y-13496976D01*
X13205643Y-13525548D01*
X13186595Y-13544595D01*
X13167548Y-13554119D01*
X13348500Y-13496976D02*
X13472309Y-13496976D01*
X13405643Y-13573167D01*
X13434214Y-13573167D01*
X13453262Y-13582690D01*
X13462786Y-13592214D01*
X13472309Y-13611262D01*
X13472309Y-13658881D01*
X13462786Y-13677928D01*
X13453262Y-13687452D01*
X13434214Y-13696976D01*
X13377071Y-13696976D01*
X13358024Y-13687452D01*
X13348500Y-13677928D01*
X13596119Y-13496976D02*
X13615167Y-13496976D01*
X13634214Y-13506500D01*
X13643738Y-13516024D01*
X13653262Y-13535071D01*
X13662786Y-13573167D01*
X13662786Y-13620786D01*
X13653262Y-13658881D01*
X13643738Y-13677928D01*
X13634214Y-13687452D01*
X13615167Y-13696976D01*
X13596119Y-13696976D01*
X13577071Y-13687452D01*
X13567548Y-13677928D01*
X13558024Y-13658881D01*
X13548500Y-13620786D01*
X13548500Y-13573167D01*
X13558024Y-13535071D01*
X13567548Y-13516024D01*
X13577071Y-13506500D01*
X13596119Y-13496976D01*
X13738976Y-13496976D02*
X13738976Y-13535071D01*
X13815167Y-13496976D02*
X13815167Y-13535071D01*
X14110405Y-13773167D02*
X14100881Y-13763643D01*
X14081833Y-13735071D01*
X14072309Y-13716024D01*
X14062786Y-13687452D01*
X14053262Y-13639833D01*
X14053262Y-13601738D01*
X14062786Y-13554119D01*
X14072309Y-13525548D01*
X14081833Y-13506500D01*
X14100881Y-13477928D01*
X14110405Y-13468405D01*
X14167548Y-13496976D02*
X14291357Y-13496976D01*
X14224690Y-13573167D01*
X14253262Y-13573167D01*
X14272309Y-13582690D01*
X14281833Y-13592214D01*
X14291357Y-13611262D01*
X14291357Y-13658881D01*
X14281833Y-13677928D01*
X14272309Y-13687452D01*
X14253262Y-13696976D01*
X14196119Y-13696976D01*
X14177071Y-13687452D01*
X14167548Y-13677928D01*
X14358024Y-13496976D02*
X14481833Y-13496976D01*
X14415167Y-13573167D01*
X14443738Y-13573167D01*
X14462786Y-13582690D01*
X14472309Y-13592214D01*
X14481833Y-13611262D01*
X14481833Y-13658881D01*
X14472309Y-13677928D01*
X14462786Y-13687452D01*
X14443738Y-13696976D01*
X14386595Y-13696976D01*
X14367548Y-13687452D01*
X14358024Y-13677928D01*
X14719928Y-13696976D02*
X14719928Y-13496976D01*
X14805643Y-13696976D02*
X14805643Y-13592214D01*
X14796119Y-13573167D01*
X14777071Y-13563643D01*
X14748500Y-13563643D01*
X14729452Y-13573167D01*
X14719928Y-13582690D01*
X14929452Y-13696976D02*
X14910405Y-13687452D01*
X14900881Y-13677928D01*
X14891357Y-13658881D01*
X14891357Y-13601738D01*
X14900881Y-13582690D01*
X14910405Y-13573167D01*
X14929452Y-13563643D01*
X14958024Y-13563643D01*
X14977071Y-13573167D01*
X14986595Y-13582690D01*
X14996119Y-13601738D01*
X14996119Y-13658881D01*
X14986595Y-13677928D01*
X14977071Y-13687452D01*
X14958024Y-13696976D01*
X14929452Y-13696976D01*
X15110405Y-13696976D02*
X15091357Y-13687452D01*
X15081833Y-13668405D01*
X15081833Y-13496976D01*
X15262786Y-13687452D02*
X15243738Y-13696976D01*
X15205643Y-13696976D01*
X15186595Y-13687452D01*
X15177071Y-13668405D01*
X15177071Y-13592214D01*
X15186595Y-13573167D01*
X15205643Y-13563643D01*
X15243738Y-13563643D01*
X15262786Y-13573167D01*
X15272309Y-13592214D01*
X15272309Y-13611262D01*
X15177071Y-13630309D01*
X15348500Y-13687452D02*
X15367548Y-13696976D01*
X15405643Y-13696976D01*
X15424690Y-13687452D01*
X15434214Y-13668405D01*
X15434214Y-13658881D01*
X15424690Y-13639833D01*
X15405643Y-13630309D01*
X15377071Y-13630309D01*
X15358024Y-13620786D01*
X15348500Y-13601738D01*
X15348500Y-13592214D01*
X15358024Y-13573167D01*
X15377071Y-13563643D01*
X15405643Y-13563643D01*
X15424690Y-13573167D01*
X15500881Y-13773167D02*
X15510405Y-13763643D01*
X15529452Y-13735071D01*
X15538976Y-13716024D01*
X15548500Y-13687452D01*
X15558024Y-13639833D01*
X15558024Y-13601738D01*
X15548500Y-13554119D01*
X15538976Y-13525548D01*
X15529452Y-13506500D01*
X15510405Y-13477928D01*
X15500881Y-13468405D01*
D14*
X10519450Y-13851450D02*
X10519450Y-13889550D01*
X10500400Y-13870500D02*
X10538500Y-13870500D01*
D11*
X10834214Y-13760976D02*
X10853262Y-13760976D01*
X10872310Y-13770500D01*
X10881833Y-13780024D01*
X10891357Y-13799071D01*
X10900881Y-13837167D01*
X10900881Y-13884786D01*
X10891357Y-13922881D01*
X10881833Y-13941928D01*
X10872310Y-13951452D01*
X10853262Y-13960976D01*
X10834214Y-13960976D01*
X10815167Y-13951452D01*
X10805643Y-13941928D01*
X10796119Y-13922881D01*
X10786595Y-13884786D01*
X10786595Y-13837167D01*
X10796119Y-13799071D01*
X10805643Y-13780024D01*
X10815167Y-13770500D01*
X10834214Y-13760976D01*
X10986595Y-13941928D02*
X10996119Y-13951452D01*
X10986595Y-13960976D01*
X10977071Y-13951452D01*
X10986595Y-13941928D01*
X10986595Y-13960976D01*
X11062786Y-13760976D02*
X11186595Y-13760976D01*
X11119929Y-13837167D01*
X11148500Y-13837167D01*
X11167548Y-13846690D01*
X11177071Y-13856214D01*
X11186595Y-13875262D01*
X11186595Y-13922881D01*
X11177071Y-13941928D01*
X11167548Y-13951452D01*
X11148500Y-13960976D01*
X11091357Y-13960976D01*
X11072310Y-13951452D01*
X11062786Y-13941928D01*
X11300881Y-13846690D02*
X11281833Y-13837167D01*
X11272309Y-13827643D01*
X11262786Y-13808595D01*
X11262786Y-13799071D01*
X11272309Y-13780024D01*
X11281833Y-13770500D01*
X11300881Y-13760976D01*
X11338976Y-13760976D01*
X11358024Y-13770500D01*
X11367548Y-13780024D01*
X11377071Y-13799071D01*
X11377071Y-13808595D01*
X11367548Y-13827643D01*
X11358024Y-13837167D01*
X11338976Y-13846690D01*
X11300881Y-13846690D01*
X11281833Y-13856214D01*
X11272309Y-13865738D01*
X11262786Y-13884786D01*
X11262786Y-13922881D01*
X11272309Y-13941928D01*
X11281833Y-13951452D01*
X11300881Y-13960976D01*
X11338976Y-13960976D01*
X11358024Y-13951452D01*
X11367548Y-13941928D01*
X11377071Y-13922881D01*
X11377071Y-13884786D01*
X11367548Y-13865738D01*
X11358024Y-13856214D01*
X11338976Y-13846690D01*
X11567548Y-13960976D02*
X11453262Y-13960976D01*
X11510405Y-13960976D02*
X11510405Y-13760976D01*
X11491357Y-13789548D01*
X11472309Y-13808595D01*
X11453262Y-13818119D01*
X11653262Y-13960976D02*
X11653262Y-13827643D01*
X11653262Y-13846690D02*
X11662786Y-13837167D01*
X11681833Y-13827643D01*
X11710405Y-13827643D01*
X11729452Y-13837167D01*
X11738976Y-13856214D01*
X11738976Y-13960976D01*
X11738976Y-13856214D02*
X11748500Y-13837167D01*
X11767548Y-13827643D01*
X11796119Y-13827643D01*
X11815167Y-13837167D01*
X11824690Y-13856214D01*
X11824690Y-13960976D01*
X11919928Y-13960976D02*
X11919928Y-13827643D01*
X11919928Y-13846690D02*
X11929452Y-13837167D01*
X11948500Y-13827643D01*
X11977071Y-13827643D01*
X11996119Y-13837167D01*
X12005643Y-13856214D01*
X12005643Y-13960976D01*
X12005643Y-13856214D02*
X12015167Y-13837167D01*
X12034214Y-13827643D01*
X12062786Y-13827643D01*
X12081833Y-13837167D01*
X12091357Y-13856214D01*
X12091357Y-13960976D01*
X12481833Y-13751452D02*
X12310405Y-14008595D01*
X12738976Y-13760976D02*
X12758024Y-13760976D01*
X12777071Y-13770500D01*
X12786595Y-13780024D01*
X12796119Y-13799071D01*
X12805643Y-13837167D01*
X12805643Y-13884786D01*
X12796119Y-13922881D01*
X12786595Y-13941928D01*
X12777071Y-13951452D01*
X12758024Y-13960976D01*
X12738976Y-13960976D01*
X12719928Y-13951452D01*
X12710405Y-13941928D01*
X12700881Y-13922881D01*
X12691357Y-13884786D01*
X12691357Y-13837167D01*
X12700881Y-13799071D01*
X12710405Y-13780024D01*
X12719928Y-13770500D01*
X12738976Y-13760976D01*
X12891357Y-13941928D02*
X12900881Y-13951452D01*
X12891357Y-13960976D01*
X12881833Y-13951452D01*
X12891357Y-13941928D01*
X12891357Y-13960976D01*
X13024690Y-13760976D02*
X13043738Y-13760976D01*
X13062786Y-13770500D01*
X13072309Y-13780024D01*
X13081833Y-13799071D01*
X13091357Y-13837167D01*
X13091357Y-13884786D01*
X13081833Y-13922881D01*
X13072309Y-13941928D01*
X13062786Y-13951452D01*
X13043738Y-13960976D01*
X13024690Y-13960976D01*
X13005643Y-13951452D01*
X12996119Y-13941928D01*
X12986595Y-13922881D01*
X12977071Y-13884786D01*
X12977071Y-13837167D01*
X12986595Y-13799071D01*
X12996119Y-13780024D01*
X13005643Y-13770500D01*
X13024690Y-13760976D01*
X13281833Y-13960976D02*
X13167548Y-13960976D01*
X13224690Y-13960976D02*
X13224690Y-13760976D01*
X13205643Y-13789548D01*
X13186595Y-13808595D01*
X13167548Y-13818119D01*
X13462786Y-13760976D02*
X13367548Y-13760976D01*
X13358024Y-13856214D01*
X13367548Y-13846690D01*
X13386595Y-13837167D01*
X13434214Y-13837167D01*
X13453262Y-13846690D01*
X13462786Y-13856214D01*
X13472309Y-13875262D01*
X13472309Y-13922881D01*
X13462786Y-13941928D01*
X13453262Y-13951452D01*
X13434214Y-13960976D01*
X13386595Y-13960976D01*
X13367548Y-13951452D01*
X13358024Y-13941928D01*
X13596119Y-13760976D02*
X13615167Y-13760976D01*
X13634214Y-13770500D01*
X13643738Y-13780024D01*
X13653262Y-13799071D01*
X13662786Y-13837167D01*
X13662786Y-13884786D01*
X13653262Y-13922881D01*
X13643738Y-13941928D01*
X13634214Y-13951452D01*
X13615167Y-13960976D01*
X13596119Y-13960976D01*
X13577071Y-13951452D01*
X13567548Y-13941928D01*
X13558024Y-13922881D01*
X13548500Y-13884786D01*
X13548500Y-13837167D01*
X13558024Y-13799071D01*
X13567548Y-13780024D01*
X13577071Y-13770500D01*
X13596119Y-13760976D01*
X13738976Y-13760976D02*
X13738976Y-13799071D01*
X13815167Y-13760976D02*
X13815167Y-13799071D01*
X14110405Y-14037167D02*
X14100881Y-14027643D01*
X14081833Y-13999071D01*
X14072309Y-13980024D01*
X14062786Y-13951452D01*
X14053262Y-13903833D01*
X14053262Y-13865738D01*
X14062786Y-13818119D01*
X14072309Y-13789548D01*
X14081833Y-13770500D01*
X14100881Y-13741928D01*
X14110405Y-13732405D01*
X14196119Y-13960976D02*
X14234214Y-13960976D01*
X14253262Y-13951452D01*
X14262786Y-13941928D01*
X14281833Y-13913357D01*
X14291357Y-13875262D01*
X14291357Y-13799071D01*
X14281833Y-13780024D01*
X14272309Y-13770500D01*
X14253262Y-13760976D01*
X14215167Y-13760976D01*
X14196119Y-13770500D01*
X14186595Y-13780024D01*
X14177071Y-13799071D01*
X14177071Y-13846690D01*
X14186595Y-13865738D01*
X14196119Y-13875262D01*
X14215167Y-13884786D01*
X14253262Y-13884786D01*
X14272309Y-13875262D01*
X14281833Y-13865738D01*
X14291357Y-13846690D01*
X14529452Y-13960976D02*
X14529452Y-13760976D01*
X14615167Y-13960976D02*
X14615167Y-13856214D01*
X14605643Y-13837167D01*
X14586595Y-13827643D01*
X14558024Y-13827643D01*
X14538976Y-13837167D01*
X14529452Y-13846690D01*
X14738976Y-13960976D02*
X14719928Y-13951452D01*
X14710405Y-13941928D01*
X14700881Y-13922881D01*
X14700881Y-13865738D01*
X14710405Y-13846690D01*
X14719928Y-13837167D01*
X14738976Y-13827643D01*
X14767548Y-13827643D01*
X14786595Y-13837167D01*
X14796119Y-13846690D01*
X14805643Y-13865738D01*
X14805643Y-13922881D01*
X14796119Y-13941928D01*
X14786595Y-13951452D01*
X14767548Y-13960976D01*
X14738976Y-13960976D01*
X14919928Y-13960976D02*
X14900881Y-13951452D01*
X14891357Y-13932405D01*
X14891357Y-13760976D01*
X15072309Y-13951452D02*
X15053262Y-13960976D01*
X15015167Y-13960976D01*
X14996119Y-13951452D01*
X14986595Y-13932405D01*
X14986595Y-13856214D01*
X14996119Y-13837167D01*
X15015167Y-13827643D01*
X15053262Y-13827643D01*
X15072309Y-13837167D01*
X15081833Y-13856214D01*
X15081833Y-13875262D01*
X14986595Y-13894309D01*
X15158024Y-13951452D02*
X15177071Y-13960976D01*
X15215167Y-13960976D01*
X15234214Y-13951452D01*
X15243738Y-13932405D01*
X15243738Y-13922881D01*
X15234214Y-13903833D01*
X15215167Y-13894309D01*
X15186595Y-13894309D01*
X15167548Y-13884786D01*
X15158024Y-13865738D01*
X15158024Y-13856214D01*
X15167548Y-13837167D01*
X15186595Y-13827643D01*
X15215167Y-13827643D01*
X15234214Y-13837167D01*
X15310405Y-14037167D02*
X15319928Y-14027643D01*
X15338976Y-13999071D01*
X15348500Y-13980024D01*
X15358024Y-13951452D01*
X15367548Y-13903833D01*
X15367548Y-13865738D01*
X15358024Y-13818119D01*
X15348500Y-13789548D01*
X15338976Y-13770500D01*
X15319928Y-13741928D01*
X15310405Y-13732405D01*
D15*
X10523856Y-14169856D02*
X10523856Y-14099144D01*
X10453144Y-14099144D01*
X10453144Y-14169856D01*
X10523856Y-14169856D01*
D11*
X10900881Y-14224976D02*
X10786595Y-14224976D01*
X10843738Y-14224976D02*
X10843738Y-14024976D01*
X10824690Y-14053548D01*
X10805643Y-14072595D01*
X10786595Y-14082119D01*
X10986595Y-14205928D02*
X10996119Y-14215452D01*
X10986595Y-14224976D01*
X10977071Y-14215452D01*
X10986595Y-14205928D01*
X10986595Y-14224976D01*
X11119929Y-14024976D02*
X11138976Y-14024976D01*
X11158024Y-14034500D01*
X11167548Y-14044024D01*
X11177071Y-14063071D01*
X11186595Y-14101167D01*
X11186595Y-14148786D01*
X11177071Y-14186881D01*
X11167548Y-14205928D01*
X11158024Y-14215452D01*
X11138976Y-14224976D01*
X11119929Y-14224976D01*
X11100881Y-14215452D01*
X11091357Y-14205928D01*
X11081833Y-14186881D01*
X11072310Y-14148786D01*
X11072310Y-14101167D01*
X11081833Y-14063071D01*
X11091357Y-14044024D01*
X11100881Y-14034500D01*
X11119929Y-14024976D01*
X11310405Y-14024976D02*
X11329452Y-14024976D01*
X11348500Y-14034500D01*
X11358024Y-14044024D01*
X11367548Y-14063071D01*
X11377071Y-14101167D01*
X11377071Y-14148786D01*
X11367548Y-14186881D01*
X11358024Y-14205928D01*
X11348500Y-14215452D01*
X11329452Y-14224976D01*
X11310405Y-14224976D01*
X11291357Y-14215452D01*
X11281833Y-14205928D01*
X11272309Y-14186881D01*
X11262786Y-14148786D01*
X11262786Y-14101167D01*
X11272309Y-14063071D01*
X11281833Y-14044024D01*
X11291357Y-14034500D01*
X11310405Y-14024976D01*
X11500881Y-14024976D02*
X11519928Y-14024976D01*
X11538976Y-14034500D01*
X11548500Y-14044024D01*
X11558024Y-14063071D01*
X11567548Y-14101167D01*
X11567548Y-14148786D01*
X11558024Y-14186881D01*
X11548500Y-14205928D01*
X11538976Y-14215452D01*
X11519928Y-14224976D01*
X11500881Y-14224976D01*
X11481833Y-14215452D01*
X11472309Y-14205928D01*
X11462786Y-14186881D01*
X11453262Y-14148786D01*
X11453262Y-14101167D01*
X11462786Y-14063071D01*
X11472309Y-14044024D01*
X11481833Y-14034500D01*
X11500881Y-14024976D01*
X11653262Y-14224976D02*
X11653262Y-14091643D01*
X11653262Y-14110690D02*
X11662786Y-14101167D01*
X11681833Y-14091643D01*
X11710405Y-14091643D01*
X11729452Y-14101167D01*
X11738976Y-14120214D01*
X11738976Y-14224976D01*
X11738976Y-14120214D02*
X11748500Y-14101167D01*
X11767548Y-14091643D01*
X11796119Y-14091643D01*
X11815167Y-14101167D01*
X11824690Y-14120214D01*
X11824690Y-14224976D01*
X11919928Y-14224976D02*
X11919928Y-14091643D01*
X11919928Y-14110690D02*
X11929452Y-14101167D01*
X11948500Y-14091643D01*
X11977071Y-14091643D01*
X11996119Y-14101167D01*
X12005643Y-14120214D01*
X12005643Y-14224976D01*
X12005643Y-14120214D02*
X12015167Y-14101167D01*
X12034214Y-14091643D01*
X12062786Y-14091643D01*
X12081833Y-14101167D01*
X12091357Y-14120214D01*
X12091357Y-14224976D01*
X12481833Y-14015452D02*
X12310405Y-14272595D01*
X12738976Y-14024976D02*
X12758024Y-14024976D01*
X12777071Y-14034500D01*
X12786595Y-14044024D01*
X12796119Y-14063071D01*
X12805643Y-14101167D01*
X12805643Y-14148786D01*
X12796119Y-14186881D01*
X12786595Y-14205928D01*
X12777071Y-14215452D01*
X12758024Y-14224976D01*
X12738976Y-14224976D01*
X12719928Y-14215452D01*
X12710405Y-14205928D01*
X12700881Y-14186881D01*
X12691357Y-14148786D01*
X12691357Y-14101167D01*
X12700881Y-14063071D01*
X12710405Y-14044024D01*
X12719928Y-14034500D01*
X12738976Y-14024976D01*
X12891357Y-14205928D02*
X12900881Y-14215452D01*
X12891357Y-14224976D01*
X12881833Y-14215452D01*
X12891357Y-14205928D01*
X12891357Y-14224976D01*
X13024690Y-14024976D02*
X13043738Y-14024976D01*
X13062786Y-14034500D01*
X13072309Y-14044024D01*
X13081833Y-14063071D01*
X13091357Y-14101167D01*
X13091357Y-14148786D01*
X13081833Y-14186881D01*
X13072309Y-14205928D01*
X13062786Y-14215452D01*
X13043738Y-14224976D01*
X13024690Y-14224976D01*
X13005643Y-14215452D01*
X12996119Y-14205928D01*
X12986595Y-14186881D01*
X12977071Y-14148786D01*
X12977071Y-14101167D01*
X12986595Y-14063071D01*
X12996119Y-14044024D01*
X13005643Y-14034500D01*
X13024690Y-14024976D01*
X13158024Y-14024976D02*
X13281833Y-14024976D01*
X13215167Y-14101167D01*
X13243738Y-14101167D01*
X13262786Y-14110690D01*
X13272309Y-14120214D01*
X13281833Y-14139262D01*
X13281833Y-14186881D01*
X13272309Y-14205928D01*
X13262786Y-14215452D01*
X13243738Y-14224976D01*
X13186595Y-14224976D01*
X13167548Y-14215452D01*
X13158024Y-14205928D01*
X13377071Y-14224976D02*
X13415167Y-14224976D01*
X13434214Y-14215452D01*
X13443738Y-14205928D01*
X13462786Y-14177357D01*
X13472309Y-14139262D01*
X13472309Y-14063071D01*
X13462786Y-14044024D01*
X13453262Y-14034500D01*
X13434214Y-14024976D01*
X13396119Y-14024976D01*
X13377071Y-14034500D01*
X13367548Y-14044024D01*
X13358024Y-14063071D01*
X13358024Y-14110690D01*
X13367548Y-14129738D01*
X13377071Y-14139262D01*
X13396119Y-14148786D01*
X13434214Y-14148786D01*
X13453262Y-14139262D01*
X13462786Y-14129738D01*
X13472309Y-14110690D01*
X13643738Y-14091643D02*
X13643738Y-14224976D01*
X13596119Y-14015452D02*
X13548500Y-14158309D01*
X13672309Y-14158309D01*
X13738976Y-14024976D02*
X13738976Y-14063071D01*
X13815167Y-14024976D02*
X13815167Y-14063071D01*
X14110405Y-14301167D02*
X14100881Y-14291643D01*
X14081833Y-14263071D01*
X14072309Y-14244024D01*
X14062786Y-14215452D01*
X14053262Y-14167833D01*
X14053262Y-14129738D01*
X14062786Y-14082119D01*
X14072309Y-14053548D01*
X14081833Y-14034500D01*
X14100881Y-14005928D01*
X14110405Y-13996405D01*
X14177071Y-14044024D02*
X14186595Y-14034500D01*
X14205643Y-14024976D01*
X14253262Y-14024976D01*
X14272309Y-14034500D01*
X14281833Y-14044024D01*
X14291357Y-14063071D01*
X14291357Y-14082119D01*
X14281833Y-14110690D01*
X14167548Y-14224976D01*
X14291357Y-14224976D01*
X14367548Y-14044024D02*
X14377071Y-14034500D01*
X14396119Y-14024976D01*
X14443738Y-14024976D01*
X14462786Y-14034500D01*
X14472309Y-14044024D01*
X14481833Y-14063071D01*
X14481833Y-14082119D01*
X14472309Y-14110690D01*
X14358024Y-14224976D01*
X14481833Y-14224976D01*
X14719928Y-14224976D02*
X14719928Y-14024976D01*
X14805643Y-14224976D02*
X14805643Y-14120214D01*
X14796119Y-14101167D01*
X14777071Y-14091643D01*
X14748500Y-14091643D01*
X14729452Y-14101167D01*
X14719928Y-14110690D01*
X14929452Y-14224976D02*
X14910405Y-14215452D01*
X14900881Y-14205928D01*
X14891357Y-14186881D01*
X14891357Y-14129738D01*
X14900881Y-14110690D01*
X14910405Y-14101167D01*
X14929452Y-14091643D01*
X14958024Y-14091643D01*
X14977071Y-14101167D01*
X14986595Y-14110690D01*
X14996119Y-14129738D01*
X14996119Y-14186881D01*
X14986595Y-14205928D01*
X14977071Y-14215452D01*
X14958024Y-14224976D01*
X14929452Y-14224976D01*
X15110405Y-14224976D02*
X15091357Y-14215452D01*
X15081833Y-14196405D01*
X15081833Y-14024976D01*
X15262786Y-14215452D02*
X15243738Y-14224976D01*
X15205643Y-14224976D01*
X15186595Y-14215452D01*
X15177071Y-14196405D01*
X15177071Y-14120214D01*
X15186595Y-14101167D01*
X15205643Y-14091643D01*
X15243738Y-14091643D01*
X15262786Y-14101167D01*
X15272309Y-14120214D01*
X15272309Y-14139262D01*
X15177071Y-14158309D01*
X15348500Y-14215452D02*
X15367548Y-14224976D01*
X15405643Y-14224976D01*
X15424690Y-14215452D01*
X15434214Y-14196405D01*
X15434214Y-14186881D01*
X15424690Y-14167833D01*
X15405643Y-14158309D01*
X15377071Y-14158309D01*
X15358024Y-14148786D01*
X15348500Y-14129738D01*
X15348500Y-14120214D01*
X15358024Y-14101167D01*
X15377071Y-14091643D01*
X15405643Y-14091643D01*
X15424690Y-14101167D01*
X15500881Y-14301167D02*
X15510405Y-14291643D01*
X15529452Y-14263071D01*
X15538976Y-14244024D01*
X15548500Y-14215452D01*
X15558024Y-14167833D01*
X15558024Y-14129738D01*
X15548500Y-14082119D01*
X15538976Y-14053548D01*
X15529452Y-14034500D01*
X15510405Y-14005928D01*
X15500881Y-13996405D01*
D16*
X10463500Y-14473500D02*
X10538500Y-14398500D01*
X10463500Y-14323500D01*
X10388500Y-14398500D01*
X10463500Y-14473500D01*
D11*
X10900881Y-14488976D02*
X10786595Y-14488976D01*
X10843738Y-14488976D02*
X10843738Y-14288976D01*
X10824690Y-14317548D01*
X10805643Y-14336595D01*
X10786595Y-14346119D01*
X10986595Y-14469928D02*
X10996119Y-14479452D01*
X10986595Y-14488976D01*
X10977071Y-14479452D01*
X10986595Y-14469928D01*
X10986595Y-14488976D01*
X11177071Y-14288976D02*
X11081833Y-14288976D01*
X11072310Y-14384214D01*
X11081833Y-14374690D01*
X11100881Y-14365167D01*
X11148500Y-14365167D01*
X11167548Y-14374690D01*
X11177071Y-14384214D01*
X11186595Y-14403262D01*
X11186595Y-14450881D01*
X11177071Y-14469928D01*
X11167548Y-14479452D01*
X11148500Y-14488976D01*
X11100881Y-14488976D01*
X11081833Y-14479452D01*
X11072310Y-14469928D01*
X11310405Y-14288976D02*
X11329452Y-14288976D01*
X11348500Y-14298500D01*
X11358024Y-14308024D01*
X11367548Y-14327071D01*
X11377071Y-14365167D01*
X11377071Y-14412786D01*
X11367548Y-14450881D01*
X11358024Y-14469928D01*
X11348500Y-14479452D01*
X11329452Y-14488976D01*
X11310405Y-14488976D01*
X11291357Y-14479452D01*
X11281833Y-14469928D01*
X11272309Y-14450881D01*
X11262786Y-14412786D01*
X11262786Y-14365167D01*
X11272309Y-14327071D01*
X11281833Y-14308024D01*
X11291357Y-14298500D01*
X11310405Y-14288976D01*
X11500881Y-14288976D02*
X11519928Y-14288976D01*
X11538976Y-14298500D01*
X11548500Y-14308024D01*
X11558024Y-14327071D01*
X11567548Y-14365167D01*
X11567548Y-14412786D01*
X11558024Y-14450881D01*
X11548500Y-14469928D01*
X11538976Y-14479452D01*
X11519928Y-14488976D01*
X11500881Y-14488976D01*
X11481833Y-14479452D01*
X11472309Y-14469928D01*
X11462786Y-14450881D01*
X11453262Y-14412786D01*
X11453262Y-14365167D01*
X11462786Y-14327071D01*
X11472309Y-14308024D01*
X11481833Y-14298500D01*
X11500881Y-14288976D01*
X11653262Y-14488976D02*
X11653262Y-14355643D01*
X11653262Y-14374690D02*
X11662786Y-14365167D01*
X11681833Y-14355643D01*
X11710405Y-14355643D01*
X11729452Y-14365167D01*
X11738976Y-14384214D01*
X11738976Y-14488976D01*
X11738976Y-14384214D02*
X11748500Y-14365167D01*
X11767548Y-14355643D01*
X11796119Y-14355643D01*
X11815167Y-14365167D01*
X11824690Y-14384214D01*
X11824690Y-14488976D01*
X11919928Y-14488976D02*
X11919928Y-14355643D01*
X11919928Y-14374690D02*
X11929452Y-14365167D01*
X11948500Y-14355643D01*
X11977071Y-14355643D01*
X11996119Y-14365167D01*
X12005643Y-14384214D01*
X12005643Y-14488976D01*
X12005643Y-14384214D02*
X12015167Y-14365167D01*
X12034214Y-14355643D01*
X12062786Y-14355643D01*
X12081833Y-14365167D01*
X12091357Y-14384214D01*
X12091357Y-14488976D01*
X12481833Y-14279452D02*
X12310405Y-14536595D01*
X12738976Y-14288976D02*
X12758024Y-14288976D01*
X12777071Y-14298500D01*
X12786595Y-14308024D01*
X12796119Y-14327071D01*
X12805643Y-14365167D01*
X12805643Y-14412786D01*
X12796119Y-14450881D01*
X12786595Y-14469928D01*
X12777071Y-14479452D01*
X12758024Y-14488976D01*
X12738976Y-14488976D01*
X12719928Y-14479452D01*
X12710405Y-14469928D01*
X12700881Y-14450881D01*
X12691357Y-14412786D01*
X12691357Y-14365167D01*
X12700881Y-14327071D01*
X12710405Y-14308024D01*
X12719928Y-14298500D01*
X12738976Y-14288976D01*
X12891357Y-14469928D02*
X12900881Y-14479452D01*
X12891357Y-14488976D01*
X12881833Y-14479452D01*
X12891357Y-14469928D01*
X12891357Y-14488976D01*
X13024690Y-14288976D02*
X13043738Y-14288976D01*
X13062786Y-14298500D01*
X13072309Y-14308024D01*
X13081833Y-14327071D01*
X13091357Y-14365167D01*
X13091357Y-14412786D01*
X13081833Y-14450881D01*
X13072309Y-14469928D01*
X13062786Y-14479452D01*
X13043738Y-14488976D01*
X13024690Y-14488976D01*
X13005643Y-14479452D01*
X12996119Y-14469928D01*
X12986595Y-14450881D01*
X12977071Y-14412786D01*
X12977071Y-14365167D01*
X12986595Y-14327071D01*
X12996119Y-14308024D01*
X13005643Y-14298500D01*
X13024690Y-14288976D01*
X13272309Y-14288976D02*
X13177071Y-14288976D01*
X13167548Y-14384214D01*
X13177071Y-14374690D01*
X13196119Y-14365167D01*
X13243738Y-14365167D01*
X13262786Y-14374690D01*
X13272309Y-14384214D01*
X13281833Y-14403262D01*
X13281833Y-14450881D01*
X13272309Y-14469928D01*
X13262786Y-14479452D01*
X13243738Y-14488976D01*
X13196119Y-14488976D01*
X13177071Y-14479452D01*
X13167548Y-14469928D01*
X13377071Y-14488976D02*
X13415167Y-14488976D01*
X13434214Y-14479452D01*
X13443738Y-14469928D01*
X13462786Y-14441357D01*
X13472309Y-14403262D01*
X13472309Y-14327071D01*
X13462786Y-14308024D01*
X13453262Y-14298500D01*
X13434214Y-14288976D01*
X13396119Y-14288976D01*
X13377071Y-14298500D01*
X13367548Y-14308024D01*
X13358024Y-14327071D01*
X13358024Y-14374690D01*
X13367548Y-14393738D01*
X13377071Y-14403262D01*
X13396119Y-14412786D01*
X13434214Y-14412786D01*
X13453262Y-14403262D01*
X13462786Y-14393738D01*
X13472309Y-14374690D01*
X13662786Y-14488976D02*
X13548500Y-14488976D01*
X13605643Y-14488976D02*
X13605643Y-14288976D01*
X13586595Y-14317548D01*
X13567548Y-14336595D01*
X13548500Y-14346119D01*
X13738976Y-14288976D02*
X13738976Y-14327071D01*
X13815167Y-14288976D02*
X13815167Y-14327071D01*
X14110405Y-14565167D02*
X14100881Y-14555643D01*
X14081833Y-14527071D01*
X14072309Y-14508024D01*
X14062786Y-14479452D01*
X14053262Y-14431833D01*
X14053262Y-14393738D01*
X14062786Y-14346119D01*
X14072309Y-14317548D01*
X14081833Y-14298500D01*
X14100881Y-14269928D01*
X14110405Y-14260405D01*
X14291357Y-14488976D02*
X14177071Y-14488976D01*
X14234214Y-14488976D02*
X14234214Y-14288976D01*
X14215167Y-14317548D01*
X14196119Y-14336595D01*
X14177071Y-14346119D01*
X14529452Y-14488976D02*
X14529452Y-14288976D01*
X14615167Y-14488976D02*
X14615167Y-14384214D01*
X14605643Y-14365167D01*
X14586595Y-14355643D01*
X14558024Y-14355643D01*
X14538976Y-14365167D01*
X14529452Y-14374690D01*
X14738976Y-14488976D02*
X14719928Y-14479452D01*
X14710405Y-14469928D01*
X14700881Y-14450881D01*
X14700881Y-14393738D01*
X14710405Y-14374690D01*
X14719928Y-14365167D01*
X14738976Y-14355643D01*
X14767548Y-14355643D01*
X14786595Y-14365167D01*
X14796119Y-14374690D01*
X14805643Y-14393738D01*
X14805643Y-14450881D01*
X14796119Y-14469928D01*
X14786595Y-14479452D01*
X14767548Y-14488976D01*
X14738976Y-14488976D01*
X14919928Y-14488976D02*
X14900881Y-14479452D01*
X14891357Y-14460405D01*
X14891357Y-14288976D01*
X15072309Y-14479452D02*
X15053262Y-14488976D01*
X15015167Y-14488976D01*
X14996119Y-14479452D01*
X14986595Y-14460405D01*
X14986595Y-14384214D01*
X14996119Y-14365167D01*
X15015167Y-14355643D01*
X15053262Y-14355643D01*
X15072309Y-14365167D01*
X15081833Y-14384214D01*
X15081833Y-14403262D01*
X14986595Y-14422309D01*
X15148500Y-14565167D02*
X15158024Y-14555643D01*
X15177071Y-14527071D01*
X15186595Y-14508024D01*
X15196119Y-14479452D01*
X15205643Y-14431833D01*
X15205643Y-14393738D01*
X15196119Y-14346119D01*
X15186595Y-14317548D01*
X15177071Y-14298500D01*
X15158024Y-14269928D01*
X15148500Y-14260405D01*
D17*
X10368500Y-14583500D02*
X10538500Y-14753500D01*
X10538500Y-14583500D02*
X10368500Y-14753500D01*
X10538500Y-14668500D02*
G75*
G03*
X10538500Y-14668500I-85000J0D01*
G01*
D11*
X10900881Y-14758976D02*
X10786595Y-14758976D01*
X10843738Y-14758976D02*
X10843738Y-14558976D01*
X10824690Y-14587548D01*
X10805643Y-14606595D01*
X10786595Y-14616119D01*
X10986595Y-14739928D02*
X10996119Y-14749452D01*
X10986595Y-14758976D01*
X10977071Y-14749452D01*
X10986595Y-14739928D01*
X10986595Y-14758976D01*
X11062786Y-14558976D02*
X11196119Y-14558976D01*
X11110405Y-14758976D01*
X11310405Y-14558976D02*
X11329452Y-14558976D01*
X11348500Y-14568500D01*
X11358024Y-14578024D01*
X11367548Y-14597071D01*
X11377071Y-14635167D01*
X11377071Y-14682786D01*
X11367548Y-14720881D01*
X11358024Y-14739928D01*
X11348500Y-14749452D01*
X11329452Y-14758976D01*
X11310405Y-14758976D01*
X11291357Y-14749452D01*
X11281833Y-14739928D01*
X11272309Y-14720881D01*
X11262786Y-14682786D01*
X11262786Y-14635167D01*
X11272309Y-14597071D01*
X11281833Y-14578024D01*
X11291357Y-14568500D01*
X11310405Y-14558976D01*
X11500881Y-14558976D02*
X11519928Y-14558976D01*
X11538976Y-14568500D01*
X11548500Y-14578024D01*
X11558024Y-14597071D01*
X11567548Y-14635167D01*
X11567548Y-14682786D01*
X11558024Y-14720881D01*
X11548500Y-14739928D01*
X11538976Y-14749452D01*
X11519928Y-14758976D01*
X11500881Y-14758976D01*
X11481833Y-14749452D01*
X11472309Y-14739928D01*
X11462786Y-14720881D01*
X11453262Y-14682786D01*
X11453262Y-14635167D01*
X11462786Y-14597071D01*
X11472309Y-14578024D01*
X11481833Y-14568500D01*
X11500881Y-14558976D01*
X11653262Y-14758976D02*
X11653262Y-14625643D01*
X11653262Y-14644690D02*
X11662786Y-14635167D01*
X11681833Y-14625643D01*
X11710405Y-14625643D01*
X11729452Y-14635167D01*
X11738976Y-14654214D01*
X11738976Y-14758976D01*
X11738976Y-14654214D02*
X11748500Y-14635167D01*
X11767548Y-14625643D01*
X11796119Y-14625643D01*
X11815167Y-14635167D01*
X11824690Y-14654214D01*
X11824690Y-14758976D01*
X11919928Y-14758976D02*
X11919928Y-14625643D01*
X11919928Y-14644690D02*
X11929452Y-14635167D01*
X11948500Y-14625643D01*
X11977071Y-14625643D01*
X11996119Y-14635167D01*
X12005643Y-14654214D01*
X12005643Y-14758976D01*
X12005643Y-14654214D02*
X12015167Y-14635167D01*
X12034214Y-14625643D01*
X12062786Y-14625643D01*
X12081833Y-14635167D01*
X12091357Y-14654214D01*
X12091357Y-14758976D01*
X12481833Y-14549452D02*
X12310405Y-14806595D01*
X12738976Y-14558976D02*
X12758024Y-14558976D01*
X12777071Y-14568500D01*
X12786595Y-14578024D01*
X12796119Y-14597071D01*
X12805643Y-14635167D01*
X12805643Y-14682786D01*
X12796119Y-14720881D01*
X12786595Y-14739928D01*
X12777071Y-14749452D01*
X12758024Y-14758976D01*
X12738976Y-14758976D01*
X12719928Y-14749452D01*
X12710405Y-14739928D01*
X12700881Y-14720881D01*
X12691357Y-14682786D01*
X12691357Y-14635167D01*
X12700881Y-14597071D01*
X12710405Y-14578024D01*
X12719928Y-14568500D01*
X12738976Y-14558976D01*
X12891357Y-14739928D02*
X12900881Y-14749452D01*
X12891357Y-14758976D01*
X12881833Y-14749452D01*
X12891357Y-14739928D01*
X12891357Y-14758976D01*
X13024690Y-14558976D02*
X13043738Y-14558976D01*
X13062786Y-14568500D01*
X13072309Y-14578024D01*
X13081833Y-14597071D01*
X13091357Y-14635167D01*
X13091357Y-14682786D01*
X13081833Y-14720881D01*
X13072309Y-14739928D01*
X13062786Y-14749452D01*
X13043738Y-14758976D01*
X13024690Y-14758976D01*
X13005643Y-14749452D01*
X12996119Y-14739928D01*
X12986595Y-14720881D01*
X12977071Y-14682786D01*
X12977071Y-14635167D01*
X12986595Y-14597071D01*
X12996119Y-14578024D01*
X13005643Y-14568500D01*
X13024690Y-14558976D01*
X13262786Y-14558976D02*
X13224690Y-14558976D01*
X13205643Y-14568500D01*
X13196119Y-14578024D01*
X13177071Y-14606595D01*
X13167548Y-14644690D01*
X13167548Y-14720881D01*
X13177071Y-14739928D01*
X13186595Y-14749452D01*
X13205643Y-14758976D01*
X13243738Y-14758976D01*
X13262786Y-14749452D01*
X13272309Y-14739928D01*
X13281833Y-14720881D01*
X13281833Y-14673262D01*
X13272309Y-14654214D01*
X13262786Y-14644690D01*
X13243738Y-14635167D01*
X13205643Y-14635167D01*
X13186595Y-14644690D01*
X13177071Y-14654214D01*
X13167548Y-14673262D01*
X13453262Y-14558976D02*
X13415167Y-14558976D01*
X13396119Y-14568500D01*
X13386595Y-14578024D01*
X13367548Y-14606595D01*
X13358024Y-14644690D01*
X13358024Y-14720881D01*
X13367548Y-14739928D01*
X13377071Y-14749452D01*
X13396119Y-14758976D01*
X13434214Y-14758976D01*
X13453262Y-14749452D01*
X13462786Y-14739928D01*
X13472309Y-14720881D01*
X13472309Y-14673262D01*
X13462786Y-14654214D01*
X13453262Y-14644690D01*
X13434214Y-14635167D01*
X13396119Y-14635167D01*
X13377071Y-14644690D01*
X13367548Y-14654214D01*
X13358024Y-14673262D01*
X13567548Y-14758976D02*
X13605643Y-14758976D01*
X13624690Y-14749452D01*
X13634214Y-14739928D01*
X13653262Y-14711357D01*
X13662786Y-14673262D01*
X13662786Y-14597071D01*
X13653262Y-14578024D01*
X13643738Y-14568500D01*
X13624690Y-14558976D01*
X13586595Y-14558976D01*
X13567548Y-14568500D01*
X13558024Y-14578024D01*
X13548500Y-14597071D01*
X13548500Y-14644690D01*
X13558024Y-14663738D01*
X13567548Y-14673262D01*
X13586595Y-14682786D01*
X13624690Y-14682786D01*
X13643738Y-14673262D01*
X13653262Y-14663738D01*
X13662786Y-14644690D01*
X13738976Y-14558976D02*
X13738976Y-14597071D01*
X13815167Y-14558976D02*
X13815167Y-14597071D01*
X14110405Y-14835167D02*
X14100881Y-14825643D01*
X14081833Y-14797071D01*
X14072309Y-14778024D01*
X14062786Y-14749452D01*
X14053262Y-14701833D01*
X14053262Y-14663738D01*
X14062786Y-14616119D01*
X14072309Y-14587548D01*
X14081833Y-14568500D01*
X14100881Y-14539928D01*
X14110405Y-14530405D01*
X14272309Y-14625643D02*
X14272309Y-14758976D01*
X14224690Y-14549452D02*
X14177071Y-14692309D01*
X14300881Y-14692309D01*
X14529452Y-14758976D02*
X14529452Y-14558976D01*
X14615167Y-14758976D02*
X14615167Y-14654214D01*
X14605643Y-14635167D01*
X14586595Y-14625643D01*
X14558024Y-14625643D01*
X14538976Y-14635167D01*
X14529452Y-14644690D01*
X14738976Y-14758976D02*
X14719928Y-14749452D01*
X14710405Y-14739928D01*
X14700881Y-14720881D01*
X14700881Y-14663738D01*
X14710405Y-14644690D01*
X14719928Y-14635167D01*
X14738976Y-14625643D01*
X14767548Y-14625643D01*
X14786595Y-14635167D01*
X14796119Y-14644690D01*
X14805643Y-14663738D01*
X14805643Y-14720881D01*
X14796119Y-14739928D01*
X14786595Y-14749452D01*
X14767548Y-14758976D01*
X14738976Y-14758976D01*
X14919928Y-14758976D02*
X14900881Y-14749452D01*
X14891357Y-14730405D01*
X14891357Y-14558976D01*
X15072309Y-14749452D02*
X15053262Y-14758976D01*
X15015167Y-14758976D01*
X14996119Y-14749452D01*
X14986595Y-14730405D01*
X14986595Y-14654214D01*
X14996119Y-14635167D01*
X15015167Y-14625643D01*
X15053262Y-14625643D01*
X15072309Y-14635167D01*
X15081833Y-14654214D01*
X15081833Y-14673262D01*
X14986595Y-14692309D01*
X15158024Y-14749452D02*
X15177071Y-14758976D01*
X15215167Y-14758976D01*
X15234214Y-14749452D01*
X15243738Y-14730405D01*
X15243738Y-14720881D01*
X15234214Y-14701833D01*
X15215167Y-14692309D01*
X15186595Y-14692309D01*
X15167548Y-14682786D01*
X15158024Y-14663738D01*
X15158024Y-14654214D01*
X15167548Y-14635167D01*
X15186595Y-14625643D01*
X15215167Y-14625643D01*
X15234214Y-14635167D01*
X15310405Y-14835167D02*
X15319928Y-14825643D01*
X15338976Y-14797071D01*
X15348500Y-14778024D01*
X15358024Y-14749452D01*
X15367548Y-14701833D01*
X15367548Y-14663738D01*
X15358024Y-14616119D01*
X15348500Y-14587548D01*
X15338976Y-14568500D01*
X15319928Y-14539928D01*
X15310405Y-14530405D01*
M02*
