%FSLAX45Y45*%
G04 Gerber Fmt 4.5, Leading zero omitted, Abs format (unit mm)*
G04 Created by KiCad (PCBNEW (6.0.0)) date 2021-12-26 21:08:47*
%MOMM*%
%LPD*%
G01*
G04 APERTURE LIST*
%TA.AperFunction,Profile*%
%ADD10C,0.050000*%
%TD*%
%ADD11C,0.200000*%
G04 APERTURE END LIST*
D10*
X10541000Y-12700000D02*
X10541000Y-6426200D01*
X14859000Y-12700000D02*
X14859000Y-12700000D01*
X10541000Y-6426200D02*
X14046200Y-6426200D01*
X14046200Y-6426200D02*
X14046200Y-12700000D01*
X14046200Y-12700000D02*
X10541000Y-12700000D01*
D11*
X10796119Y-13012976D02*
X10796119Y-12812976D01*
X10843738Y-12812976D01*
X10872310Y-12822500D01*
X10891357Y-12841548D01*
X10900881Y-12860595D01*
X10910405Y-12898690D01*
X10910405Y-12927262D01*
X10900881Y-12965357D01*
X10891357Y-12984405D01*
X10872310Y-13003452D01*
X10843738Y-13012976D01*
X10796119Y-13012976D01*
X10996119Y-13012976D02*
X10996119Y-12879643D01*
X10996119Y-12917738D02*
X11005643Y-12898690D01*
X11015167Y-12889167D01*
X11034214Y-12879643D01*
X11053262Y-12879643D01*
X11119929Y-13012976D02*
X11119929Y-12879643D01*
X11119929Y-12812976D02*
X11110405Y-12822500D01*
X11119929Y-12832024D01*
X11129452Y-12822500D01*
X11119929Y-12812976D01*
X11119929Y-12832024D01*
X11243738Y-13012976D02*
X11224690Y-13003452D01*
X11215167Y-12984405D01*
X11215167Y-12812976D01*
X11348500Y-13012976D02*
X11329452Y-13003452D01*
X11319928Y-12984405D01*
X11319928Y-12812976D01*
X11577071Y-13012976D02*
X11577071Y-12812976D01*
X11643738Y-12955833D01*
X11710405Y-12812976D01*
X11710405Y-13012976D01*
X11891357Y-13012976D02*
X11891357Y-12908214D01*
X11881833Y-12889167D01*
X11862786Y-12879643D01*
X11824690Y-12879643D01*
X11805643Y-12889167D01*
X11891357Y-13003452D02*
X11872309Y-13012976D01*
X11824690Y-13012976D01*
X11805643Y-13003452D01*
X11796119Y-12984405D01*
X11796119Y-12965357D01*
X11805643Y-12946309D01*
X11824690Y-12936786D01*
X11872309Y-12936786D01*
X11891357Y-12927262D01*
X11986595Y-12879643D02*
X11986595Y-13079643D01*
X11986595Y-12889167D02*
X12005643Y-12879643D01*
X12043738Y-12879643D01*
X12062786Y-12889167D01*
X12072309Y-12898690D01*
X12081833Y-12917738D01*
X12081833Y-12974881D01*
X12072309Y-12993928D01*
X12062786Y-13003452D01*
X12043738Y-13012976D01*
X12005643Y-13012976D01*
X11986595Y-13003452D01*
X12167548Y-12993928D02*
X12177071Y-13003452D01*
X12167548Y-13012976D01*
X12158024Y-13003452D01*
X12167548Y-12993928D01*
X12167548Y-13012976D01*
X12167548Y-12889167D02*
X12177071Y-12898690D01*
X12167548Y-12908214D01*
X12158024Y-12898690D01*
X12167548Y-12889167D01*
X12167548Y-12908214D01*
M02*
